<?xml version="1.0" encoding="UTF-8"?>
<svg version="1.1" xmlns="http://www.w3.org/2000/svg" width="199" height="203">
<path d="M0 0 C65.67 0 131.34 0 199 0 C199 66.99 199 133.98 199 203 C133.33 203 67.66 203 0 203 C0 136.01 0 69.02 0 0 Z " fill="#FE4068" transform="translate(0,0)"/>
<path d="M0 0 C4.76868599 1.15125028 9.26062339 2.92958418 13.81054688 4.74316406 C22.67426355 8.1777855 31.56870947 11.38188616 40.60839844 14.32177734 C53.53511997 18.53247829 53.53511997 18.53247829 57.78320312 20.80957031 C62.32809107 22.87724461 67.95727541 21.15617462 72.47070312 19.64160156 C74.61024191 18.80309711 76.74269163 17.94636155 78.86914062 17.07519531 C83.07263428 15.41603856 87.325639 14.01029473 91.62304688 12.61816406 C97.74905868 10.61655795 103.68898503 8.39471845 109.61523438 5.85253906 C113.02817055 4.42218385 116.46672386 3.09470477 119.93554688 1.80566406 C121.05703125 1.38671875 122.17851562 0.96777344 123.33398438 0.53613281 C127.89270621 -0.76084011 130.89704737 -1.2265621 135.20126343 0.9591217 C138.87888402 5.10400262 138.25908886 9.1838105 138.20751953 14.54956055 C138.21628113 15.6637738 138.22504272 16.77798706 138.23406982 17.92596436 C138.25610061 21.61412341 138.24149558 25.30108627 138.22460938 28.98925781 C138.22797665 31.5498935 138.23282852 34.11052763 138.23910522 36.67115784 C138.24648183 42.04046301 138.23622226 47.40933863 138.21240234 52.77856445 C138.18520472 58.98065965 138.19399518 65.18193268 138.22153437 71.38400787 C138.24698619 77.3556084 138.24425643 83.32695414 138.2296257 89.29860115 C138.22628835 91.83714984 138.23039024 94.37571947 138.24202347 96.9142437 C138.25471377 100.46251963 138.2353766 104.00921492 138.20751953 107.55737305 C138.21764069 108.60844742 138.22776184 109.65952179 138.2381897 110.7424469 C138.16870251 115.51676255 138.12711907 117.85692077 135.21151733 121.77430725 C132.56054687 123.61816406 132.56054687 123.61816406 129.49804688 124.18066406 C125.73409295 123.45990693 124.7968817 122.73689852 122.56054688 119.61816406 C121.97563499 116.37801162 122.05566254 113.17676182 122.10644531 109.89257812 C122.10586121 108.90688339 122.1052771 107.92118866 122.10467529 106.90562439 C122.10746172 103.64798756 122.13858097 100.39126602 122.16992188 97.13378906 C122.17738225 94.87506612 122.18307614 92.61633671 122.18707275 90.35760498 C122.20234494 84.41280241 122.2416409 78.46839079 122.28588867 72.52374268 C122.32680691 66.45761402 122.34507643 60.3914222 122.36523438 54.32519531 C122.40813322 42.4226798 122.47640411 30.52045444 122.56054688 18.61816406 C120.48587023 19.24048104 118.41246444 19.86703578 116.33959961 20.49536133 C114.60745461 21.01804344 114.60745461 21.01804344 112.84031677 21.55128479 C110.151453 22.42594768 107.64998353 23.38348741 105.09570312 24.58300781 C99.25188632 27.31225559 93.12384615 29.19019887 86.99804688 31.18066406 C84.64211705 31.95139151 82.28663626 32.72349312 79.93164062 33.49707031 C78.27430908 34.03871826 78.27430908 34.03871826 76.58349609 34.59130859 C74.04720458 35.45285294 71.57701354 36.39036781 69.09570312 37.39550781 C62.71542692 39.60216688 58.84716587 38.61571799 52.74804688 35.99316406 C51.42378052 35.43807838 50.09820391 34.88611053 48.77148438 34.33691406 C47.74039551 33.90958984 47.74039551 33.90958984 46.68847656 33.47363281 C43.1212959 32.03955743 39.50182694 30.76160617 35.87304688 29.49316406 C35.15858398 29.2431665 34.44412109 28.99316895 33.70800781 28.7355957 C28.53974993 26.9385865 23.35092568 25.20633839 18.15429688 23.49316406 C14.58715093 22.28978953 11.07736027 20.96094736 7.56054688 19.61816406 C6.57054688 19.28816406 5.58054687 18.95816406 4.56054688 18.61816406 C4.56942932 19.85986862 4.57831177 21.10157318 4.58746338 22.38090515 C4.6685245 34.07863206 4.72850055 45.77630205 4.76779556 57.47424603 C4.78867665 63.48840217 4.81700437 69.5023317 4.86230469 75.51635742 C4.905743 81.31945335 4.92968005 87.12233121 4.94005585 92.92557716 C4.94745077 95.14039353 4.96189118 97.35519787 4.9834671 99.56992149 C5.01247365 102.67049392 5.01650394 105.77016349 5.01464844 108.87084961 C5.03622009 110.24649582 5.03622009 110.24649582 5.05822754 111.64993286 C5.03142138 115.78537185 4.8895349 118.06001678 2.75091553 121.68830872 C0.56054688 123.61816406 0.56054688 123.61816406 -2.93945312 124.24316406 C-6.43945312 123.61816406 -6.43945312 123.61816406 -8.62585449 121.770401 C-11.31547181 117.09554576 -10.99790629 112.86342622 -10.95703125 107.55737305 C-10.96404053 106.44140747 -10.9710498 105.32544189 -10.97827148 104.17565918 C-10.9958714 100.48827202 -10.98422163 96.80165272 -10.97070312 93.11425781 C-10.97339725 90.55265658 -10.97727901 87.99105635 -10.9822998 85.42945862 C-10.98819744 80.06199458 -10.98000392 74.69480575 -10.9609375 69.32739258 C-10.93915852 63.12478983 -10.94622949 56.92271282 -10.96824312 50.72012275 C-10.98858899 44.74800774 -10.98642748 38.77605593 -10.97471619 32.80391121 C-10.97204473 30.26453643 -10.97533328 27.72514826 -10.9846344 25.18578911 C-10.99477223 21.64001578 -10.97933647 18.09525806 -10.95703125 14.54956055 C-10.96512817 13.49646194 -10.9732251 12.44336334 -10.98156738 11.35835266 C-10.89866053 4.25863929 -10.89866053 4.25863929 -8.52984619 0.95475769 C-5.38737704 -1.05453152 -3.56228086 -0.58014288 0 0 Z " fill="#FEF9FA" transform="translate(38.439453125,40.3818359375)"/>
<path d="M0 0 C3.04296875 1.2421875 3.04296875 1.2421875 6.1875 2.875 C22.51150713 10.66934575 42.16052783 9.78445261 59.05078125 3.9453125 C63.3350561 2.49310056 63.3350561 2.49310056 67 0 C70.71441739 -0.42209289 72.58999427 -0.23174237 75.875 1.625 C78 4 78 4 78.625 6.9375 C77.79224265 11.01801103 76.11107239 12.27568661 73 15 C55.24203498 24.95730855 32.00437254 27.25562262 12.3125 22.375 C-5.72288319 17.11001236 -5.72288319 17.11001236 -10 10 C-10.53293835 6.34556561 -10.4753727 4.69477548 -8.375 1.625 C-5.28515382 -0.48910528 -3.70608729 -0.32187972 0 0 Z " fill="#FDF8F9" transform="translate(68,121)"/>
<path d="M0 0 C0.33 0 0.66 0 1 0 C1.33 33.99 1.66 67.98 2 103 C0.02 103.99 0.02 103.99 -2 105 C-2.66 104.67 -3.32 104.34 -4 104 C-3.27087654 103.30804535 -3.27087654 103.30804535 -2.52702332 102.60211182 C-0.20418949 98.64390549 -0.56059342 94.87863219 -0.56762695 90.36621094 C-0.55233948 88.90229919 -0.55233948 88.90229919 -0.53674316 87.40881348 C-0.5065561 84.18394269 -0.49733835 80.95936866 -0.48828125 77.734375 C-0.47143883 75.49805713 -0.45328919 73.26174876 -0.43388367 71.02545166 C-0.38633028 65.14004482 -0.35655532 59.25467646 -0.33044434 53.36914062 C-0.30066585 47.36320393 -0.25412619 41.3573999 -0.20898438 35.3515625 C-0.12289043 23.56777765 -0.05557214 11.78396554 0 0 Z " fill="#EE6E88" transform="translate(43,59)"/>
<path d="M0 0 C0.33 0 0.66 0 1 0 C1.36923077 6.52307692 1.36923077 6.52307692 -0.5 8.9375 C-0.995 9.288125 -1.49 9.63875 -2 10 C-2.99 9.67 -3.98 9.34 -5 9 C-4.0409375 7.88625 -4.0409375 7.88625 -3.0625 6.75 C-1.21666593 4.2888879 -0.43930826 2.96533074 0 0 Z " fill="#EE4F74" transform="translate(146,127)"/>
<path d="M0 0 C-0.99 0.33 -1.98 0.66 -3 1 C-3 1.66 -3 2.32 -3 3 C-5.64 3 -8.28 3 -11 3 C-3.71428571 -1.85714286 -3.71428571 -1.85714286 0 0 Z " fill="#EC6E8B" transform="translate(131,70)"/>
<path d="M0 0 C0.66 1.32 1.32 2.64 2 4 C1.01 4.99 0.02 5.98 -1 7 C-1.99 6.67 -2.98 6.34 -4 6 C-2.68 4.02 -1.36 2.04 0 0 Z " fill="#EF5376" transform="translate(43,157)"/>
</svg>
