<?xml version="1.0" encoding="UTF-8"?>
<svg version="1.1" xmlns="http://www.w3.org/2000/svg" width="335" height="345">
<path d="M0 0 C0.87398437 0.45890625 1.74796875 0.9178125 2.6484375 1.390625 C7.90601648 4.32006783 11.41849718 7.18735558 15 12 C15.66 12.33 16.32 12.66 17 13 C18.2890625 15.81640625 18.2890625 15.81640625 19.625 19.5625 C19.98223145 20.56156372 19.98223145 20.56156372 20.34667969 21.58081055 C21.80792342 26.09580066 22.03485785 29.58369677 21.4831543 34.27124023 C21.07391653 37.85410616 21.10502001 40.48321141 22 44 C26.4608603 48.67075107 32.94296244 51.88427608 39 54 C39.99 54 40.98 54 42 54 C43.12562315 52.84026705 44.24879039 51.67804841 45.359375 50.50390625 C54.19609045 42.40358376 63.94450819 40.54361701 75.53515625 40.75390625 C86.77467959 41.55220385 95.73555562 46.94250845 103.43359375 55.015625 C111.29978496 64.98077497 113.01767585 76.64795932 112 89 C109.46783154 100.5530186 102.33556243 109.04076255 93 116 C87.56065727 119.16156102 83.36704822 120.09042168 77 121 C77 127.6 77 134.2 77 141 C78.44375 141.20625 79.8875 141.4125 81.375 141.625 C91.85941696 143.75742379 100.52081302 150.49207184 106.53515625 159.23046875 C112.47217486 169.28705129 113.82207496 180.6971357 111.3125 192.1328125 C107.78294434 202.69206651 100.35784055 211.90838033 90.5625 217.35546875 C80.20980339 222.0720756 68.11178779 222.85952037 57.28125 219.05078125 C52.13995067 216.68261426 47.58480161 213.67046656 43.6875 209.5625 C43.130625 209.046875 42.57375 208.53125 42 208 C39.02257188 208.43677793 36.70103734 209.58247055 34.109375 211.06640625 C33.40039062 211.46923828 32.69140625 211.87207031 31.9609375 212.28710938 C31.23132813 212.70798828 30.50171875 213.12886719 29.75 213.5625 C29.00492188 213.98724609 28.25984375 214.41199219 27.4921875 214.84960938 C25.65901039 215.89546042 23.82917323 216.94716192 22 218 C22.04640625 219.02738281 22.0928125 220.05476562 22.140625 221.11328125 C22.53977257 233.70166426 20.42244367 244.1209031 12 254 C1.49271775 263.84448523 -8.35752124 266.51212908 -22.4375 266.2734375 C-32.29735936 265.86463381 -39.94024103 261.75640995 -47 255 C-53.22584876 248.19047792 -58.16897901 239.305229 -58.09765625 229.890625 C-58.09282227 228.75947266 -58.09282227 228.75947266 -58.08789062 227.60546875 C-58.07951172 226.82816406 -58.07113281 226.05085937 -58.0625 225.25 C-58.05798828 224.45722656 -58.05347656 223.66445313 -58.04882812 222.84765625 C-58.03708565 220.89840492 -58.01915146 218.94919262 -58 217 C-58.69996094 216.74605469 -59.39992188 216.49210938 -60.12109375 216.23046875 C-64.40998961 214.39735858 -68.21915991 211.8431768 -72.16015625 209.36328125 C-74.79969436 207.82248098 -74.79969436 207.82248098 -77.15625 208.08984375 C-79.36554646 209.18044984 -80.716847 210.48719292 -82.4375 212.25 C-90.94165203 219.84578957 -101.1122328 222.00933166 -112.20703125 221.41015625 C-123.17629761 220.2239843 -133.15012513 215.00039263 -140.140625 206.3515625 C-141.95269741 203.63345389 -143.52278821 200.91233777 -145 198 C-145.35964844 197.29359375 -145.71929687 196.5871875 -146.08984375 195.859375 C-149.65213595 187.25734223 -149.30279445 175.77238223 -146.375 167.0625 C-141.5310037 155.86599645 -134.44884328 148.29536808 -123.25 143.0625 C-120 142 -120 142 -113 141 C-113 134.4 -113 127.8 -113 121 C-114.753125 120.649375 -116.50625 120.29875 -118.3125 119.9375 C-129.02597 117.22123107 -137.31211621 111.54696571 -143 102 C-148.28376553 91.01235302 -150.36351896 78.87910805 -146.375 67.0625 C-141.81203593 56.31489125 -133.60970702 47.67585398 -122.875 43 C-111.45066316 39.06746865 -99.90121557 39.90757501 -89 45 C-84.51575516 47.51091487 -80.87415185 49.68877223 -78 54 C-73.81178357 53.33704112 -70.45345932 51.07350819 -66.875 48.9375 C-60.26538462 45 -60.26538462 45 -58 45 C-58.05800781 43.83984375 -58.11601563 42.6796875 -58.17578125 41.484375 C-58.63949837 28.26630984 -56.62792741 18.37888464 -47.87109375 7.96484375 C-35.62332412 -4.89659284 -15.7735194 -8.78113451 0 0 Z M-58.6953125 56.96875 C-59.41074219 57.37480469 -60.12617187 57.78085938 -60.86328125 58.19921875 C-61.60964844 58.62847656 -62.35601562 59.05773437 -63.125 59.5 C-63.87910156 59.92925781 -64.63320312 60.35851562 -65.41015625 60.80078125 C-67.27561048 61.86338176 -69.13808875 62.93120357 -71 64 C-70.67 65.155 -70.34 66.31 -70 67.5 C-68.98358804 72.04141514 -68.80821123 76.48883639 -68.8125 81.125 C-68.8115332 82.12756836 -68.8115332 82.12756836 -68.81054688 83.15039062 C-68.85800273 87.52927142 -69.30035462 91.69018449 -70 96 C-68.11248318 97.18007431 -66.21460805 98.34359173 -64.3125 99.5 C-63.25675781 100.1496875 -62.20101562 100.799375 -61.11328125 101.46875 C-58.0229029 102.98873534 -56.37296489 103.35043791 -53 103 C-53 103.99 -53 104.98 -53 106 C-51.515 106.495 -51.515 106.495 -50 107 C-49.5875 106.55269531 -49.175 106.10539062 -48.75 105.64453125 C-41.3367374 97.88377197 -34.46772779 94.36678404 -24 92 C-23.08342019 86.61509359 -22.88861841 81.45769811 -23 76 C-23.9075 75.79375 -24.815 75.5875 -25.75 75.375 C-37.51993921 71.93712729 -46.94003578 65.77326972 -53 55 C-55.47671145 55 -56.55133684 55.74362105 -58.6953125 56.96875 Z M17 55 C15.6584751 56.59089127 15.6584751 56.59089127 14.3125 58.625 C8.03936263 67.24295086 0.32748609 72.69993049 -10.1796875 74.60546875 C-12.01084708 74.83041969 -12.01084708 74.83041969 -13 76 C-13.07313567 78.53049402 -13.09247527 81.03304837 -13.0625 83.5625 C-13.05798828 84.27341797 -13.05347656 84.98433594 -13.04882812 85.71679688 C-13.03700864 87.47790013 -13.01907263 89.23896036 -13 91 C-11.741875 91.37125 -10.48375 91.7425 -9.1875 92.125 C0.00507485 95.22297011 7.62282717 99.6433979 14 107 C20.68412752 103.36433437 27.35556707 99.70775764 34 96 C33.7525 94.205625 33.7525 94.205625 33.5 92.375 C32.44941291 82.72177948 32.40953961 73.39041893 35 64 C32.37785672 62.49480613 29.75255792 60.99568681 27.125 59.5 C26.37863281 59.07074219 25.63226563 58.64148438 24.86328125 58.19921875 C23.79013672 57.59013672 23.79013672 57.59013672 22.6953125 56.96875 C22.03547363 56.59169922 21.37563477 56.21464844 20.69580078 55.82617188 C19.01472854 54.8540084 19.01472854 54.8540084 17 55 Z M-76 105 C-77.15762119 106.21807138 -78.3006583 107.45001235 -79.4375 108.6875 C-86.28148345 115.60481184 -93.8242543 117.9414181 -103 121 C-103 127.6 -103 134.2 -103 141 C-101.205625 141.53625 -99.41125 142.0725 -97.5625 142.625 C-88.30672653 145.71751725 -82.40964061 150.64887948 -75 157 C-68.73 153.37 -62.46 149.74 -56 146 C-56.37125 144.39125 -56.7425 142.7825 -57.125 141.125 C-58.59230258 132.62687256 -57.22058723 124.45021926 -56 116 C-59.14381306 114.16318536 -62.29037629 112.3311356 -65.4375 110.5 C-66.33533203 109.97535156 -67.23316406 109.45070313 -68.15820312 108.91015625 C-69.01220703 108.41386719 -69.86621094 107.91757813 -70.74609375 107.40625 C-71.93223267 106.71499023 -71.93223267 106.71499023 -73.14233398 106.00976562 C-74.7940374 104.92040443 -74.7940374 104.92040443 -76 105 Z M39 105 C32.73 108.63 26.46 112.26 20 116 C20.37125 118.908125 20.7425 121.81625 21.125 124.8125 C21.99919905 132.32675503 21.92880659 138.6062414 20 146 C26.27 149.63 32.54 153.26 39 157 C41.31 155.02 43.62 153.04 46 151 C52.52570233 145.85715228 59.05438946 143.37455027 67 141 C67 134.4 67 127.8 67 121 C65.205625 120.46375 63.41125 119.9275 61.5625 119.375 C52.30672653 116.28248275 46.40964061 111.35112052 39 105 Z M14 155 C13.401875 155.845625 12.80375 156.69125 12.1875 157.5625 C6.25205035 164.82267319 -3.25115423 168.41837338 -12 171 C-13.36532549 172.13701597 -13.36532549 172.13701597 -13.09765625 175.16015625 C-13.08605469 176.44792969 -13.07445312 177.73570312 -13.0625 179.0625 C-13.05347656 180.35285156 -13.04445312 181.64320313 -13.03515625 182.97265625 C-13.02355469 183.97167969 -13.01195312 184.97070312 -13 186 C-11.741875 186.37125 -10.48375 186.7425 -9.1875 187.125 C2.36383352 191.0480944 10.22417986 196.83626978 17 207 C21.14032846 205.45614871 24.93553053 203.48971062 28.8125 201.375 C29.40998047 201.05015625 30.00746094 200.7253125 30.62304688 200.390625 C32.08337135 199.59620849 33.54187491 198.79844624 35 198 C34.505 196.2675 34.505 196.2675 34 194.5 C32.98358804 189.95858486 32.80821123 185.51116361 32.8125 180.875 C32.81185547 180.20662109 32.81121094 179.53824219 32.81054688 178.84960938 C32.85800273 174.47072858 33.30035462 170.30981551 34 166 C30.85618694 164.16318536 27.70962371 162.3311356 24.5625 160.5 C23.66466797 159.97535156 22.76683594 159.45070312 21.84179688 158.91015625 C20.98779297 158.41386719 20.13378906 157.91757813 19.25390625 157.40625 C18.06776733 156.71499023 18.06776733 156.71499023 16.85766602 156.00976562 C15.2059626 154.92040443 15.2059626 154.92040443 14 155 Z M-51 155 C-57.27 158.63 -63.54 162.26 -70 166 C-69.67 168.31 -69.34 170.62 -69 173 C-68.88539971 175.63847168 -68.80995701 178.23791916 -68.8125 180.875 C-68.81185547 181.57173828 -68.81121094 182.26847656 -68.81054688 182.98632812 C-68.86469111 188.27769701 -69.55096509 192.9283778 -71 198 C-68.37785672 199.50519387 -65.75255792 201.00431319 -63.125 202.5 C-62.37863281 202.92925781 -61.63226563 203.35851562 -60.86328125 203.80078125 C-60.14785156 204.20683594 -59.43242188 204.61289063 -58.6953125 205.03125 C-57.7055542 205.59682617 -57.7055542 205.59682617 -56.69580078 206.17382812 C-55.01472854 207.1459916 -55.01472854 207.1459916 -53 207 C-51.6584751 205.40910873 -51.6584751 205.40910873 -50.3125 203.375 C-43.17779118 193.5971666 -34.30600179 189.53312556 -23 186 C-23 181.05 -23 176.1 -23 171 C-24.753125 170.484375 -26.50625 169.96875 -28.3125 169.4375 C-37.46234516 166.38755161 -44.20315821 161.79684179 -51 155 Z " fill="#057BBB" transform="translate(175,41)"/>
<path d="M0 0 C0.87398437 0.45890625 1.74796875 0.9178125 2.6484375 1.390625 C7.90601648 4.32006783 11.41849718 7.18735558 15 12 C15.66 12.33 16.32 12.66 17 13 C16.67 14.32 16.34 15.64 16 17 C12.37 16.34 8.74 15.68 5 15 C5.42152344 15.80824219 5.84304687 16.61648437 6.27734375 17.44921875 C6.82519531 18.51785156 7.37304688 19.58648437 7.9375 20.6875 C8.48277344 21.74324219 9.02804688 22.79898438 9.58984375 23.88671875 C12.40757495 30.10758237 13.23846294 37.04983149 11.17578125 43.62890625 C10.17776321 46.1183862 9.10789769 48.55777298 8 51 C7.32736852 52.66426834 6.66002321 54.33069129 6 56 C5.443125 57.3303125 5.443125 57.3303125 4.875 58.6875 C3.88203597 60.89967791 3.88203597 60.89967791 4 63 C4.99 63.66 5.98 64.32 7 65 C7 65.99 7 66.98 7 68 C1.31300437 72.6659484 -4.83924633 74.84503973 -12 76 C-12.05383848 78.45862401 -12.09359038 80.9160755 -12.125 83.375 C-12.15013672 84.42300781 -12.15013672 84.42300781 -12.17578125 85.4921875 C-12.19344267 87.32897486 -12.10303261 89.16601963 -12 91 C-10.04783565 92.95216435 -8.46800047 93.84826645 -6 95 C-6.309375 95.598125 -6.61875 96.19625 -6.9375 96.8125 C-8.10209704 99.08956772 -8.10209704 99.08956772 -9 102 C-8.35933594 102.3403125 -7.71867188 102.680625 -7.05859375 103.03125 C1.96401378 108.08713738 7.77830441 113.69004105 11.35546875 123.5234375 C12.29998018 127.15265113 12.27632386 130.26962786 12 134 C14.31 134 16.62 134 19 134 C19 134.33 19 134.66 19 135 C16.36 135 13.72 135 11 135 C10.95875 136.134375 10.9175 137.26875 10.875 138.4375 C9.95813802 145.53376056 5.64492481 150.96540075 0.1875 155.375 C-5.12293713 159.04439994 -10.54950338 161 -17 161 C-17 172.88 -17 184.76 -17 197 C-14.36 197 -11.72 197 -9 197 C-1.70069169 198.92620636 4.38154049 204.90252589 8.35546875 211.12109375 C12.08935808 218.25187878 13.67377491 226.58841688 11.24609375 234.4375 C10.27071452 236.70190983 9.19598397 238.84473721 8 241 C7.4225 242.051875 6.845 243.10375 6.25 244.1875 C1.60658988 249.99176265 -4.63465723 254.50468712 -12 256 C-22.53390481 257.08279986 -29.95718953 255.40732556 -38.25 248.875 C-43.97726662 243.58213684 -47.49344975 236.27310503 -48.23828125 228.51953125 C-48.50117143 218.93095784 -45.42764404 211.16172038 -39 204 C-33.00410118 198.46994796 -26.08838021 196 -18 196 C-18 184.45 -18 172.9 -18 161 C-20.97 160.67 -23.94 160.34 -27 160 C-34.32506799 157.63609302 -39.76599179 153.40408485 -44 147 C-47.70346777 139.47007106 -49.60424113 130.86611063 -47.3515625 122.62890625 C-43.79284113 113.85376851 -37.51653805 107.11788653 -29 103 C-26.03630121 101.85514439 -23.05514737 100.86986835 -20 100 C-20.52268466 97.23723823 -21.10869587 94.6739124 -22 92 C-22.66 92.66 -23.32 93.32 -24 94 C-27.625 94.125 -27.625 94.125 -31 94 C-31 94.99 -31 95.98 -31 97 C-32.21236328 97.45439453 -32.21236328 97.45439453 -33.44921875 97.91796875 C-41.67085629 101.11810744 -41.67085629 101.11810744 -48 107 C-48.66 106.67 -49.32 106.34 -50 106 C-44.02965505 99.52590719 -37.74223071 94.13698973 -29 92 C-27.35 92 -25.7 92 -24 92 C-24 86.72 -24 81.44 -24 76 C-25.27875 75.79375 -26.5575 75.5875 -27.875 75.375 C-37.15414873 73.27735884 -45.15464691 67.43563298 -51 60 C-52.21875 57.25390625 -52.21875 57.25390625 -53 55 C-54.13179688 55.6496875 -55.26359375 56.299375 -56.4296875 56.96875 C-57.91133076 57.81272401 -59.39310858 58.65646181 -60.875 59.5 C-61.99455078 60.14388672 -61.99455078 60.14388672 -63.13671875 60.80078125 C-63.85214844 61.20683594 -64.56757812 61.61289063 -65.3046875 62.03125 C-65.96452637 62.40830078 -66.62436523 62.78535156 -67.30419922 63.17382812 C-69 64 -69 64 -71 64 C-70.505 65.155 -70.01 66.31 -69.5 67.5 C-67.98243338 72.03112308 -67.69627553 76.38182628 -67.6875 81.125 C-67.67976563 82.12756836 -67.67976563 82.12756836 -67.671875 83.15039062 C-67.73597499 87.79763995 -68.57465842 91.62743818 -70 96 C-69.319375 96.2475 -68.63875 96.495 -67.9375 96.75 C-65.58856001 97.74954893 -63.70324929 98.78346378 -61.5625 100.125 C-58.28987555 102.06273816 -55.83554747 102.37419975 -52 102 C-52.495 103.98 -52.495 103.98 -53 106 C-53.66 106 -54.32 106 -55 106 C-55.12375 106.804375 -55.2475 107.60875 -55.375 108.4375 C-55.58125 109.283125 -55.7875 110.12875 -56 111 C-56.99 111.495 -56.99 111.495 -58 112 C-57.67 112.99 -57.34 113.98 -57 115 C-61.53847198 113.65072455 -65.31932246 111.80840652 -69.375 109.375 C-70.43460937 108.74335938 -71.49421875 108.11171875 -72.5859375 107.4609375 C-73.38257812 106.97882813 -74.17921875 106.49671875 -75 106 C-75.969375 106.86625 -76.93875 107.7325 -77.9375 108.625 C-85.59901284 115.14576445 -93.58948916 121 -104 121 C-104 125.62 -104 130.24 -104 135 C-104.99 135 -105.98 135 -107 135 C-107 140.28 -107 145.56 -107 151 C-104.69 151.33 -102.38 151.66 -100 152 C-90.58406074 155.16339915 -84.75859888 160.31663527 -80 169 C-77.08408433 176.24142091 -76.96226264 183.84298925 -79.6875 191.125 C-84.2211864 201.25912255 -89.89121862 205.67248531 -99.9375 210.375 C-109.48379046 212.32322254 -117.58440203 211.01179963 -126 206 C-133.30243443 200.05560395 -137.14502656 192.44792468 -138.375 183.171875 C-138.80530503 173.54379998 -134.93267467 166.33778182 -129 159 C-128.34 159 -127.68 159 -127 159 C-127 158.34 -127 157.68 -127 157 C-120.56479472 153.35920537 -115.41216681 151.35865323 -108 151 C-108 145.72 -108 140.44 -108 135 C-109.32 134.67 -110.64 134.34 -112 134 C-110.68 134 -109.36 134 -108 134 C-108 126.41 -108 118.82 -108 111 C-110.97 110.67 -113.94 110.34 -117 110 C-125.67711484 107.05696583 -131.68333789 101.11798628 -135.98046875 93.19140625 C-139.03762542 86.28768626 -139.24432399 77.99087777 -136.9375 70.8125 C-133.39456069 62.86572024 -127.81247831 56.80433727 -120 53 C-117.11788698 52.03929566 -115.30149956 51.89418117 -112.3125 51.9375 C-111.10013672 51.95103516 -111.10013672 51.95103516 -109.86328125 51.96484375 C-109.24839844 51.97644531 -108.63351563 51.98804688 -108 52 C-108 49.69 -108 47.38 -108 45 C-113.94 45.33 -119.88 45.66 -126 46 C-126.66 47.32 -127.32 48.64 -128 50 C-128.99 50 -129.98 50 -131 50 C-131 50.99 -131 51.98 -131 53 C-131.763125 53.20625 -132.52625 53.4125 -133.3125 53.625 C-136.82229103 55.42070704 -137.52599781 57.43136312 -139 61 C-139.99 61 -140.98 61 -142 61 C-142 61.99 -142 62.98 -142 64 C-142.66 64 -143.32 64 -144 64 C-141.69829678 55.81616633 -134.08093423 49.23602791 -127 45 C-116.82152499 39.72227222 -105.53900791 39.31603964 -94.625 42.625 C-88.17880699 45.07281113 -81.8885375 48.16719375 -78 54 C-73.81178357 53.33704112 -70.45345932 51.07350819 -66.875 48.9375 C-60.26538462 45 -60.26538462 45 -58 45 C-58.05800781 43.83984375 -58.11601563 42.6796875 -58.17578125 41.484375 C-58.63949837 28.26630984 -56.62792741 18.37888464 -47.87109375 7.96484375 C-35.62332412 -4.89659284 -15.7735194 -8.78113451 0 0 Z " fill="#057BBB" transform="translate(175,41)"/>
<path d="M0 0 C8.78470885 5.63956617 14.21008746 12.03059268 16.8984375 22.21875 C17.22416816 25.04609211 17.17239484 27.36959368 16.8984375 30.21875 C19.2084375 30.21875 21.5184375 30.21875 23.8984375 30.21875 C23.8984375 30.54875 23.8984375 30.87875 23.8984375 31.21875 C21.2584375 31.21875 18.6184375 31.21875 15.8984375 31.21875 C15.8571875 32.353125 15.8159375 33.4875 15.7734375 34.65625 C14.85657552 41.75251056 10.54336231 47.18415075 5.0859375 51.59375 C-0.22449963 55.26314994 -5.65106588 57.21875 -12.1015625 57.21875 C-12.1015625 69.09875 -12.1015625 80.97875 -12.1015625 93.21875 C-9.4615625 93.21875 -6.8215625 93.21875 -4.1015625 93.21875 C3.19774581 95.14495636 9.27997799 101.12127589 13.25390625 107.33984375 C16.98779558 114.47062878 18.57221241 122.80716688 16.14453125 130.65625 C15.16915202 132.92065983 14.09442147 135.06348721 12.8984375 137.21875 C12.0321875 138.7965625 12.0321875 138.7965625 11.1484375 140.40625 C6.50502738 146.21051265 0.26378027 150.72343712 -7.1015625 152.21875 C-17.63546731 153.30154986 -25.05875203 151.62607556 -33.3515625 145.09375 C-39.07882912 139.80088684 -42.59501225 132.49185503 -43.33984375 124.73828125 C-43.60273393 115.14970784 -40.52920654 107.38047038 -34.1015625 100.21875 C-28.10566368 94.68869796 -21.18994271 92.21875 -13.1015625 92.21875 C-13.1015625 80.66875 -13.1015625 69.11875 -13.1015625 57.21875 C-16.0715625 56.88875 -19.0415625 56.55875 -22.1015625 56.21875 C-29.42663049 53.85484302 -34.86755429 49.62283485 -39.1015625 43.21875 C-42.80503027 35.68882106 -44.70580363 27.08486063 -42.453125 18.84765625 C-38.85827255 9.98342607 -32.59443249 3.52057328 -24.1015625 -0.78125 C-17.27436862 -3.05698129 -6.64076362 -3.13188852 0 0 Z " fill="#4EC1F6" transform="translate(170.1015625,144.78125)"/>
<path d="M0 0 C1.89492187 0.01353516 1.89492187 0.01353516 3.828125 0.02734375 C4.79234375 0.03894531 5.7565625 0.05054687 6.75 0.0625 C6.75 2.3725 6.75 4.6825 6.75 7.0625 C5.98816406 7.13726562 5.22632813 7.21203125 4.44140625 7.2890625 C-3.02280418 8.23956121 -8.75657938 9.73713813 -14.25 15.0625 C-21.07105442 23.93886272 -23.27373934 30.91355788 -22.25 42.0625 C-21.29587096 45.32038103 -19.93341252 48.12386003 -18.25 51.0625 C-17.693125 52.114375 -17.13625 53.16625 -16.5625 54.25 C-10.15996279 62.03686958 -3.22396971 63.56900757 6.75 66.0625 C6.75 79.2625 6.75 92.4625 6.75 106.0625 C2.79 107.0525 -1.17 108.0425 -5.25 109.0625 C-6.9 110.0525 -8.55 111.0425 -10.25 112.0625 C-10.91 112.0625 -11.57 112.0625 -12.25 112.0625 C-12.25 112.7225 -12.25 113.3825 -12.25 114.0625 C-12.9925 114.76375 -13.735 115.465 -14.5 116.1875 C-20.45610527 122.41433733 -22.63570851 129.52061596 -22.5234375 138.01953125 C-21.82758477 145.76337808 -18.8269928 152.72293055 -13.421875 158.3359375 C-6.91153522 163.51142344 0.81274974 165.90592173 9.08203125 165.48828125 C17.1781251 164.19622528 25.34129153 160.4186523 30.4375 153.875 C35.42498201 146.32942238 36.93470338 138.40066306 35.28125 129.5546875 C33.24218111 121.61688359 29.64972945 115.49436236 22.5 111.25 C17.75748277 108.85854327 12.87060749 107.43280341 7.75 106.0625 C7.75 100.7825 7.75 95.5025 7.75 90.0625 C8.74 90.0625 9.73 90.0625 10.75 90.0625 C10.75 85.4425 10.75 80.8225 10.75 76.0625 C11.08 76.0625 11.41 76.0625 11.75 76.0625 C11.94656224 78.27004516 12.13185459 80.47859539 12.3125 82.6875 C12.46912109 84.53214844 12.46912109 84.53214844 12.62890625 86.4140625 C12.74191061 89.81877462 12.44045563 92.73808398 11.75 96.0625 C12.35585937 96.13726562 12.96171875 96.21203125 13.5859375 96.2890625 C24.17739999 97.95110738 31.69030991 103.16125745 38.75 111.0625 C39.801875 110.48242188 39.801875 110.48242188 40.875 109.890625 C46.44832834 106.83135238 52.04206196 103.86262055 57.75 101.0625 C57.58242187 100.40507812 57.41484375 99.74765625 57.2421875 99.0703125 C55.61346265 91.46272425 55.92835827 84.90097937 57.11279297 77.29541016 C57.74875969 72.92971378 57.9328195 70.09911105 55.75 66.0625 C56.74 66.0625 57.73 66.0625 58.75 66.0625 C59.08 64.4125 59.41 62.7625 59.75 61.0625 C62.72 61.0625 65.69 61.0625 68.75 61.0625 C69.41 59.7425 70.07 58.4225 70.75 57.0625 C74.75519572 54.24803814 78.80369914 52.0625 83.75 52.0625 C83.75 51.0725 83.75 50.0825 83.75 49.0625 C84.843125 48.93875 85.93625 48.815 87.0625 48.6875 C90.82381802 48.30785199 90.82381802 48.30785199 93.75 46.0625 C94.73120464 49.11513664 94.73120464 51.00986336 93.75 54.0625 C94.41 54.3925 95.07 54.7225 95.75 55.0625 C94.95335937 55.37703125 94.15671875 55.6915625 93.3359375 56.015625 C82.94109401 60.21402894 73.46283347 65.1013456 68.8125 75.9375 C66.28572701 83.97295201 67.31670098 92.45846802 70.75 100.0625 C74.21877543 105.6423231 78.01634895 109.84606161 83.75 113.0625 C82.9375 115.5 82.9375 115.5 81.75 118.0625 C77.43079105 119.50223632 73.95035271 118.71763023 69.75 117.0625 C67.61022857 115.20803143 66.35166769 113.43916819 64.75 111.0625 C63.698125 111.64257812 63.698125 111.64257812 62.625 112.234375 C57.05167166 115.29364762 51.45793804 118.26237945 45.75 121.0625 C45.91113281 122.0525 46.07226562 123.0425 46.23828125 124.0625 C46.80630286 128.05976361 46.93363677 132.02929063 46.9375 136.0625 C46.94974609 136.73539063 46.96199219 137.40828125 46.97460938 138.1015625 C46.98830734 142.831925 46.21283512 146.62195702 44.75 151.0625 C44.09 151.0625 43.43 151.0625 42.75 151.0625 C42.75 152.0525 42.75 153.0425 42.75 154.0625 C44.07 154.3925 45.39 154.7225 46.75 155.0625 C46.75 156.0525 46.75 157.0425 46.75 158.0625 C48.73 158.3925 50.71 158.7225 52.75 159.0625 C53.245 161.5375 53.245 161.5375 53.75 164.0625 C54.41 164.0625 55.07 164.0625 55.75 164.0625 C55.75 165.3825 55.75 166.7025 55.75 168.0625 C53.375 168.25 53.375 168.25 50.75 168.0625 C50.09 167.0725 49.43 166.0825 48.75 165.0625 C46.78145525 164.74499278 44.80797199 164.43214795 42.8203125 164.2734375 C40.75 164.0625 40.75 164.0625 38.73828125 163.3125 C36.61561791 162.80764189 36.61561791 162.80764189 34.84765625 164.5390625 C33.84025391 165.60253906 33.84025391 165.60253906 32.8125 166.6875 C24.71087263 174.20855473 15.41509762 176.80821378 4.56347656 176.58203125 C-6.3706515 175.99014032 -15.26732925 171.47497998 -23.25 164.0625 C-26.05210426 160.59566298 -28.23576444 157.0335855 -30.25 153.0625 C-30.60964844 152.35609375 -30.96929688 151.6496875 -31.33984375 150.921875 C-34.90213595 142.31984223 -34.55279445 130.83488223 -31.625 122.125 C-26.7810037 110.92849645 -19.69884328 103.35786808 -8.5 98.125 C-5.25 97.0625 -5.25 97.0625 1.75 96.0625 C1.75 89.4625 1.75 82.8625 1.75 76.0625 C-0.003125 75.711875 -1.75625 75.36125 -3.5625 75 C-14.27597 72.28373107 -22.56211621 66.60946571 -28.25 57.0625 C-33.40688921 46.33869369 -35.65226397 34.18453667 -31.75 22.625 C-31.255 21.449375 -30.76 20.27375 -30.25 19.0625 C-29.26 19.0625 -28.27 19.0625 -27.25 19.0625 C-27.25 18.0725 -27.25 17.0825 -27.25 16.0625 C-26.26 16.0625 -25.27 16.0625 -24.25 16.0625 C-23.96125 15.11375 -23.6725 14.165 -23.375 13.1875 C-22.25 10.0625 -22.25 10.0625 -20.25 8.0625 C-18.93 8.0625 -17.61 8.0625 -16.25 8.0625 C-16.25 7.0725 -16.25 6.0825 -16.25 5.0625 C-15.2909375 4.629375 -15.2909375 4.629375 -14.3125 4.1875 C-12.09793921 3.23426549 -12.09793921 3.23426549 -11.25 1.0625 C-7.62183731 -0.337689 -3.83524417 -0.03551152 0 0 Z " fill="#057BBB" transform="translate(60.25,85.9375)"/>
<path d="M0 0 C1.216875 -0.04125 2.43375 -0.0825 3.6875 -0.125 C4.71423828 -0.15980469 4.71423828 -0.15980469 5.76171875 -0.1953125 C8.57259941 0.04996504 10.51146906 0.65750304 13 2 C16.56444511 7.3313477 17.14225012 12.74514678 16.40625 18.98779297 C16.00801112 22.76483983 16.04201196 25.23319102 17 29 C21.43819027 33.68295336 27.9510564 36.8871033 34 39 C34.99 39 35.98 39 37 39 C38.12562315 37.84026705 39.24879039 36.67804841 40.359375 35.50390625 C49.19609045 27.40358376 58.94450819 25.54361701 70.53515625 25.75390625 C79.26171444 26.37371816 86.22926222 29.46310965 93 35 C93.33 35.66 93.66 36.32 94 37 C91.36 36.67 88.72 36.34 86 36 C86 35.01 86 34.02 86 33 C85.34 33 84.68 33 84 33 C84 32.34 84 31.68 84 31 C78.72 30.67 73.44 30.34 68 30 C68 31.98 68 33.96 68 36 C66.76636719 36.20302734 66.76636719 36.20302734 65.5078125 36.41015625 C56.56955253 38.13381608 49.25381144 40.80312659 43.34375 48.0234375 C42.06193781 49.96851298 40.99716631 51.89680644 40 54 C39.566875 54.9075 39.13375 55.815 38.6875 56.75 C36.82456235 65.55661434 37.36503356 73.23643121 42 81 C42.4125 81.7115625 42.825 82.423125 43.25 83.15625 C49.02429418 91.94892523 57.0725578 93.79390173 67 96 C67 103.59 67 111.18 67 119 C65.68 119 64.36 119 63 119 C63 121.31 63 123.62 63 126 C62.67 126 62.34 126 62 126 C60.58969686 119.26188501 61.33438334 112.80977041 62 106 C61.09121094 105.88785156 61.09121094 105.88785156 60.1640625 105.7734375 C49.57260001 104.11139262 42.05969009 98.90124255 35 91 C33.948125 91.58007812 33.948125 91.58007812 32.875 92.171875 C31.92625 92.69265625 30.9775 93.2134375 30 93.75 C29.071875 94.26046875 28.14375 94.7709375 27.1875 95.296875 C23.49314038 97.27082205 19.75468769 99.1440979 16 101 C16.07105957 101.55461914 16.14211914 102.10923828 16.21533203 102.68066406 C16.53120536 105.20237733 16.82827026 107.72596557 17.125 110.25 C17.23714844 111.12269531 17.34929687 111.99539062 17.46484375 112.89453125 C17.56152344 113.73886719 17.65820312 114.58320313 17.7578125 115.453125 C17.8520752 116.22817383 17.94633789 117.00322266 18.04345703 117.80175781 C18 120 18 120 16 124 C15.67 119.71 15.34 115.42 15 111 C14.34 111 13.68 111 13 111 C13 113.64 13 116.28 13 119 C11.02 119 9.04 119 7 119 C6.91363281 118.32195312 6.82726562 117.64390625 6.73828125 116.9453125 C5.20859293 106.81288163 2.19651723 99.00760796 -5.9296875 92.47265625 C-8.85069219 90.39488499 -11.82076142 88.65585343 -15 87 C-13.125 81.125 -13.125 81.125 -12 80 C-13.65 79.67 -15.3 79.34 -17 79 C-16.01 78.01 -16.01 78.01 -15 77 C-4.82294516 77.17212778 2.78424844 84.72298677 10 91 C10.50450684 90.69707031 11.00901367 90.39414063 11.52880859 90.08203125 C13.80819079 88.71681731 16.09151668 87.35834217 18.375 86 C19.1690625 85.52304688 19.963125 85.04609375 20.78125 84.5546875 C21.54179687 84.10351562 22.30234375 83.65234375 23.0859375 83.1875 C23.7876709 82.76855469 24.4894043 82.34960938 25.21240234 81.91796875 C27 81 27 81 29 81 C28.67 79.80375 28.34 78.6075 28 77.375 C25.85818149 67.60584217 26.17656654 58.2399642 30 49 C29.14148438 48.74476562 28.28296875 48.48953125 27.3984375 48.2265625 C23.84267486 46.94321828 20.86307753 45.31784652 17.625 43.375 C16.56539062 42.74335937 15.50578125 42.11171875 14.4140625 41.4609375 C13.61742187 40.97882813 12.82078125 40.49671875 12 40 C11.61714844 41.11955078 11.61714844 41.11955078 11.2265625 42.26171875 C9.94118961 45.13129326 8.64355501 46.66997582 6.375 48.8125 C5.74335938 49.41707031 5.11171875 50.02164063 4.4609375 50.64453125 C3.97882813 51.09183594 3.49671875 51.53914063 3 52 C0.4375 49.75 0.4375 49.75 -2 47 C-2 45.125 -2 45.125 -1 43 C-0.566875 41.96875 -0.13375 40.9375 0.3125 39.875 C1.21447977 37.78526469 2.13423986 35.70834217 3.0859375 33.640625 C7.26272527 24.10214513 6.75058306 16.66366447 3 7 C2.04710343 5.30596166 1.06639644 3.62498505 0 2 C0 1.34 0 0.68 0 0 Z " fill="#057ABA" transform="translate(180,56)"/>
<path d="M0 0 C6.83410147 3.82371674 11.71255645 10.83115247 13.83984375 18.3515625 C15.54403691 26.83943719 14.71682616 33.75188228 10.52734375 41.4140625 C5.38353811 48.86281396 -0.90252642 53.84254665 -9.78515625 55.8515625 C-18.85462097 57.14183165 -26.57233511 55.22456441 -34.2421875 50.26171875 C-40.45992335 45.11112496 -44.55452313 37.37121623 -45.47265625 29.4140625 C-46.20988021 20.71481978 -43.82643349 12.86900886 -38.28515625 6.0390625 C-27.75935729 -5.03235023 -13.50827398 -6.3547465 0 0 Z " fill="#4EBFF4" transform="translate(172.47265625,50.5859375)"/>
<path d="M0 0 C6.32532458 4.48930116 10.60911963 11.8894503 12.25 19.4375 C12.90849866 27.20778417 11.87596489 34.84669195 7.1875 41.2578125 C0.22526238 49.11323192 -5.72044284 53.39340898 -16.2734375 54.765625 C-24.26343734 55.11849566 -31.25412623 52.65196143 -37.5625 47.75 C-42.91467963 42.77651233 -47.21236645 34.91361189 -48.0859375 27.640625 C-48.17896632 20.60764609 -47.31896002 15.51882003 -43.75 9.4375 C-43.399375 8.81101562 -43.04875 8.18453125 -42.6875 7.5390625 C-38.78414755 1.33164784 -32.93522448 -2.33311511 -26.1875 -4.9375 C-16.61073787 -6.67872948 -8.3729271 -4.96746767 0 0 Z " fill="#4EC1F7" transform="translate(264.75,97.5625)"/>
<path d="M0 0 C1.051875 0.721875 2.10375 1.44375 3.1875 2.1875 C9.20406281 8.20406281 12.92336616 16.114732 13.4375 24.625 C13.2267179 32.85790085 9.91410586 40.38551397 4.375 46.4375 C-1.60287169 51.80973366 -8.40353132 55.2044536 -16.5 55.5625 C-26.31295664 55.00335717 -33.45494831 51.66391998 -40.12109375 44.44921875 C-45.94370366 36.859247 -47.92122757 28.42680811 -47 19 C-46.02848963 15.76331002 -44.65185785 12.93984492 -43 10 C-42.46375 8.96875 -41.9275 7.9375 -41.375 6.875 C-31.19773478 -5.44484737 -13.60511439 -9.3993179 0 0 Z " fill="#4EC1F7" transform="translate(264,197)"/>
<path d="M0 0 C2.03515625 1.12890625 2.03515625 1.12890625 3.75 2.25 C4.636875 2.806875 5.52375 3.36375 6.4375 3.9375 C13.30225908 10.80225908 16.58599548 18.02398201 17.125 27.625 C16.92523794 35.34913304 13.26054256 43.79282832 7.75 49.25 C-0.71887618 55.39241773 -8.73125806 58.535776 -19.25 57.25 C-28.04773504 54.96458585 -34.29847297 50.91534473 -39.25 43.25 C-43.24071678 35.58600982 -45.03895788 27.2387039 -42.51953125 18.8046875 C-40.44360639 13.80552151 -37.64665989 9.45113197 -34.25 5.25 C-33.59 5.25 -32.93 5.25 -32.25 5.25 C-32.25 4.59 -32.25 3.93 -32.25 3.25 C-23.03739215 -3.08791203 -10.41847391 -4.3802964 0 0 Z " fill="#4EC1F7" transform="translate(80.25,194.75)"/>
<path d="M0 0 C2.8125 2.5 2.8125 2.5 5 5 C5.70125 5.763125 6.4025 6.52625 7.125 7.3125 C12.0924517 14.4325141 13.00058968 21.48936639 12 30 C11.08306498 33.29992999 9.75618481 36.06755434 8 39 C7.57589844 39.7115625 7.15179688 40.423125 6.71484375 41.15625 C2.52638132 47.40977607 -2.93337816 50.64445939 -10 53 C-27.59853004 54.12409459 -27.59853004 54.12409459 -35 49 C-35.886875 48.401875 -36.77375 47.80375 -37.6875 47.1875 C-44.55586142 40.69040136 -48.10103458 33.46967432 -48.375 24 C-48.07386464 14.39980485 -44.586842 7.95867985 -38 1 C-27.19473109 -8.59433361 -11.35313748 -7.87859053 0 0 Z " fill="#4EC1F7" transform="translate(85,98)"/>
<path d="M0 0 C1.31097656 0.68835937 1.31097656 0.68835937 2.6484375 1.390625 C7.90601648 4.32006783 11.41849718 7.18735558 15 12 C15.66 12.33 16.32 12.66 17 13 C16.67 14.32 16.34 15.64 16 17 C15.01 16.67 14.02 16.34 13 16 C11.43881572 15.93259135 9.8749748 15.91485544 8.3125 15.9375 C7.50425781 15.94652344 6.69601563 15.95554687 5.86328125 15.96484375 C5.24839844 15.97644531 4.63351563 15.98804687 4 16 C3.505 14.515 3.505 14.515 3 13 C0.67894458 11.88155772 0.67894458 11.88155772 -2 11 C-2.7321875 10.64679687 -3.464375 10.29359375 -4.21875 9.9296875 C-13.01011518 5.86518648 -21.61757582 6.27239794 -31 8 C-31 6.68 -31 5.36 -31 4 C-32.32 3.67 -33.64 3.34 -35 3 C-35 2.34 -35 1.68 -35 1 C-36.32 1.33 -37.64 1.66 -39 2 C-37.29527121 -1.40945758 -33.97018034 -1.96193876 -30.50390625 -3.1640625 C-20.19286554 -5.62399863 -9.35098067 -5.20570058 0 0 Z " fill="#067BBA" transform="translate(175,41)"/>
<path d="M0 0 C0.66 0.33 1.32 0.66 2 1 C2 1.99 2 2.98 2 4 C1.01 4.495 1.01 4.495 0 5 C0 7.31 0 9.62 0 12 C-1.65 12 -3.3 12 -5 12 C-5 12.66 -5 13.32 -5 14 C-6.98 14 -8.96 14 -11 14 C-11 14.99 -11 15.98 -11 17 C-11.99 17 -12.98 17 -14 17 C-14 21.62 -14 26.24 -14 31 C-14.99 31 -15.98 31 -17 31 C-17 36.28 -17 41.56 -17 47 C-15.35 47 -13.7 47 -12 47 C-12 47.33 -12 47.66 -12 48 C-15.96 48 -19.92 48 -24 48 C-24 47.67 -24 47.34 -24 47 C-22.02 47 -20.04 47 -18 47 C-18 41.72 -18 36.44 -18 31 C-19.32 30.67 -20.64 30.34 -22 30 C-20.68 30 -19.36 30 -18 30 C-18 22.41 -18 14.82 -18 7 C-19.98 7 -21.96 7 -24 7 C-24 6.67 -24 6.34 -24 6 C-23.09378906 5.97421875 -22.18757813 5.9484375 -21.25390625 5.921875 C-9.77225156 5.5286416 -9.77225156 5.5286416 0 0 Z " fill="#037CBE" transform="translate(85,145)"/>
<path d="M0 0 C9.58727586 0 19.18653743 4.56654763 26.2265625 11.05078125 C27.56143248 12.63881623 28.79419577 14.31187408 30 16 C30.66 16.33 31.32 16.66 32 17 C31.67 18.32 31.34 19.64 31 21 C30.01 20.67 29.02 20.34 28 20 C26.43881572 19.93259135 24.8749748 19.91485544 23.3125 19.9375 C22.50425781 19.94652344 21.69601563 19.95554687 20.86328125 19.96484375 C20.24839844 19.97644531 19.63351563 19.98804687 19 20 C18.67 19.01 18.34 18.02 18 17 C16.3523962 16.28752268 14.68236471 15.62599617 13 15 C11.63634717 14.04175747 10.29205831 13.05278825 9 12 C9.33 11.01 9.66 10.02 10 9 C9.01 8.67 8.02 8.34 7 8 C7 6.02 7 4.04 7 2 C4.69 1.67 2.38 1.34 0 1 C0 0.67 0 0.34 0 0 Z " fill="#2F7DB5" transform="translate(160,37)"/>
<path d="M0 0 C0.48984375 0.56203125 0.9796875 1.1240625 1.484375 1.703125 C4.76670033 4.70003073 8.3589867 6.63950339 12.25 8.75 C12.99507812 9.16121094 13.74015625 9.57242188 14.5078125 9.99609375 C16.33519231 11.00349544 18.16714863 12.00258786 20 13 C20.78375 12.175 21.5675 11.35 22.375 10.5 C25 8 25 8 27 8 C27 10 27 10 25 12.625 C20.97281091 15.81319137 19.00904667 15.42449548 14 15 C13.67 16.32 13.34 17.64 13 19 C13.99 19 14.98 19 16 19 C16 20.32 16 21.64 16 23 C17.98 22.67 19.96 22.34 22 22 C20.66818267 24.66363467 18.94875383 26.75598043 17 29 C16.34 29 15.68 29 15 29 C15.13822199 32.14621682 15.28685084 35.29185566 15.4375 38.4375 C15.47681641 39.33533203 15.51613281 40.23316406 15.55664062 41.15820312 C15.61948242 42.43920898 15.61948242 42.43920898 15.68359375 43.74609375 C15.73858032 44.93223267 15.73858032 44.93223267 15.79467773 46.14233398 C15.80563257 48.01401441 15.80563257 48.01401441 17 49 C17.04080783 50.99958364 17.04254356 53.00045254 17 55 C13.43204781 51.43204781 13.05611483 46.95870755 12.76953125 42.0625 C12.77345278 40.70826327 12.78785791 39.3540182 12.8125 38 C12.81314453 37.32710937 12.81378906 36.65421875 12.81445312 35.9609375 C12.85283321 31.54296358 13.29243991 27.34724921 14 23 C11.03 21.35 8.06 19.7 5 18 C5 17.67 5 17.34 5 17 C5.78375 16.9175 6.5675 16.835 7.375 16.75 C10.14749104 16.27193661 10.14749104 16.27193661 11.3125 13.9375 C11.6528125 12.9784375 11.6528125 12.9784375 12 12 C9.36 11.01 6.72 10.02 4 9 C4 8.34 4 7.68 4 7 C2.68 6.67 1.36 6.34 0 6 C0 4.02 0 2.04 0 0 Z " fill="#1078B2" transform="translate(194,184)"/>
<path d="M0 0 C0.12375 1.134375 0.2475 2.26875 0.375 3.4375 C0.58125 4.613125 0.7875 5.78875 1 7 C1.66 7.33 2.32 7.66 3 8 C2.030625 8.12375 1.06125 8.2475 0.0625 8.375 C-0.948125 8.58125 -1.95875 8.7875 -3 9 C-3.33 9.66 -3.66 10.32 -4 11 C-4.66 11 -5.32 11 -6 11 C-6.33 15.62 -6.66 20.24 -7 25 C-7.99 25 -8.98 25 -10 25 C-10 30.28 -10 35.56 -10 41 C-10.33 41 -10.66 41 -11 41 C-11 35.72 -11 30.44 -11 25 C-12.32 24.67 -13.64 24.34 -15 24 C-13.68 24 -12.36 24 -11 24 C-11 16.41 -11 8.82 -11 1 C-7.1273408 0.0318352 -3.96388638 -0.07622858 0 0 Z " fill="#047CBC" transform="translate(258,151)"/>
<path d="M0 0 C1.71484375 1.40234375 1.71484375 1.40234375 2.71484375 3.40234375 C0.07484375 3.07234375 -2.56515625 2.74234375 -5.28515625 2.40234375 C-5.28515625 1.41234375 -5.28515625 0.42234375 -5.28515625 -0.59765625 C-5.94515625 -0.59765625 -6.60515625 -0.59765625 -7.28515625 -0.59765625 C-7.28515625 -1.25765625 -7.28515625 -1.91765625 -7.28515625 -2.59765625 C-12.56515625 -2.92765625 -17.84515625 -3.25765625 -23.28515625 -3.59765625 C-23.28515625 -1.61765625 -23.28515625 0.36234375 -23.28515625 2.40234375 C-23.61515625 2.40234375 -23.94515625 2.40234375 -24.28515625 2.40234375 C-24.28515625 0.42234375 -24.28515625 -1.55765625 -24.28515625 -3.59765625 C-30.22515625 -3.26765625 -36.16515625 -2.93765625 -42.28515625 -2.59765625 C-42.61515625 -0.61765625 -42.94515625 1.36234375 -43.28515625 3.40234375 C-44.04828125 3.23734375 -44.81140625 3.07234375 -45.59765625 2.90234375 C-48.32111861 2.31088979 -48.32111861 2.31088979 -51.28515625 2.40234375 C-36.54911343 -10.86009479 -15.95548355 -11.02021975 0 0 Z " fill="#177CB4" transform="translate(271.28515625,89.59765625)"/>
<path d="M0 0 C0 0.66 0 1.32 0 2 C-4.29 2 -8.58 2 -13 2 C-13 3.98 -13 5.96 -13 8 C-13.33 8 -13.66 8 -14 8 C-14 6.02 -14 4.04 -14 2 C-19.94 2.33 -25.88 2.66 -32 3 C-32.66 4.32 -33.32 5.64 -34 7 C-34.99 7 -35.98 7 -37 7 C-37 7.99 -37 8.98 -37 10 C-37.763125 10.20625 -38.52625 10.4125 -39.3125 10.625 C-42.82229103 12.42070704 -43.52599781 14.43136312 -45 18 C-45.99 18 -46.98 18 -48 18 C-48 18.99 -48 19.98 -48 21 C-48.66 21 -49.32 21 -50 21 C-47.69829678 12.81616633 -40.08093423 6.23602791 -33 2 C-22.55678712 -3.41499927 -11.06754225 -3.54728918 0 0 Z " fill="#137AB1" transform="translate(81,84)"/>
<path d="M0 0 C2.0625 0.4375 2.0625 0.4375 4 1 C3.01 1 2.02 1 1 1 C1.66 2.32 2.32 3.64 3 5 C2.67 5.33 2.34 5.66 2 6 C1.84417697 7.34015221 1.74955858 8.68758903 1.68359375 10.03515625 C1.62075195 11.24848633 1.62075195 11.24848633 1.55664062 12.48632812 C1.51732422 13.33646484 1.47800781 14.18660156 1.4375 15.0625 C1.39431641 15.91650391 1.35113281 16.77050781 1.30664062 17.65039062 C1.20023298 19.76672037 1.09958269 21.88333813 1 24 C1.66 24 2.32 24 3 24 C3 24.66 3 25.32 3 26 C3.5775 26.28875 4.155 26.5775 4.75 26.875 C6.83333333 27.91666667 8.91666667 28.95833333 11 30 C10.690625 30.5775 10.38125 31.155 10.0625 31.75 C8.80714968 34.21905868 8.80714968 34.21905868 8 38 C5.03 37.67 2.06 37.34 -1 37 C-1.0246501 31.89136104 -1.04283607 26.78275641 -1.05493164 21.67407227 C-1.05997204 19.93480832 -1.0668043 18.19554864 -1.07543945 16.45629883 C-1.08751792 13.96174063 -1.09323108 11.46723827 -1.09765625 8.97265625 C-1.10281754 8.19036148 -1.10797882 7.40806671 -1.11329651 6.60206604 C-1.11349226 4.73432886 -1.06199694 2.86670796 -1 1 C-0.67 0.67 -0.34 0.34 0 0 Z " fill="#1085C5" transform="translate(158,106)"/>
<path d="M0 0 C0.66 0 1.32 0 2 0 C2 1.65 2 3.3 2 5 C3.32 5 4.64 5 6 5 C6 4.34 6 3.68 6 3 C7.65 3 9.3 3 11 3 C4.15002625 11.78201763 -3.15371327 16.41862904 -14 19 C-14 18.01 -14 17.02 -14 16 C-12.02 16 -10.04 16 -8 16 C-8 15.34 -8 14.68 -8 14 C-6.68 13.67 -5.36 13.34 -4 13 C-4.04125 12.0925 -4.0825 11.185 -4.125 10.25 C-3.9522911 5.75956863 -2.45775231 3.68662846 0 0 Z " fill="#097AB5" transform="translate(88,143)"/>
<path d="M0 0 C0.33 0 0.66 0 1 0 C1 8.58 1 17.16 1 26 C10.57 26 20.14 26 30 26 C30 26.33 30 26.66 30 27 C20.43 27 10.86 27 1 27 C1 37.23 1 47.46 1 58 C0.67 58 0.34 58 0 58 C0 47.77 0 37.54 0 27 C-9.9 27 -19.8 27 -30 27 C-30 26.67 -30 26.34 -30 26 C-20.1 26 -10.2 26 0 26 C0 17.42 0 8.84 0 0 Z " fill="#60CBFE" transform="translate(157,239)"/>
<path d="M0 0 C0.33 0 0.66 0 1 0 C1 10.56 1 21.12 1 32 C10.24 32 19.48 32 29 32 C29 32.33 29 32.66 29 33 C19.76 33 10.52 33 1 33 C1 41.58 1 50.16 1 59 C0.67 59 0.34 59 0 59 C0 50.42 0 41.84 0 33 C-9.24 33 -18.48 33 -28 33 C-28 32.67 -28 32.34 -28 32 C-18.76 32 -9.52 32 0 32 C0 21.44 0 10.88 0 0 Z " fill="#6DCEFE" transform="translate(157,143)"/>
<path d="M0 0 C0.33 0 0.66 0 1 0 C1 12.54 1 25.08 1 38 C9.91 38 18.82 38 28 38 C28 38.33 28 38.66 28 39 C19.09 39 10.18 39 1 39 C1 45.93 1 52.86 1 60 C0.67 60 0.34 60 0 60 C0 53.07 0 46.14 0 39 C-9.24 39 -18.48 39 -28 39 C-28 38.67 -28 38.34 -28 38 C-18.76 38 -9.52 38 0 38 C0 25.46 0 12.92 0 0 Z " fill="#5FCCFD" transform="translate(157,47)"/>
<path d="M0 0 C1.051875 0.4640625 1.051875 0.4640625 2.125 0.9375 C5.09090132 2.03359397 7.88389122 2.51527197 11 3 C11.66 3.33 12.32 3.66 13 4 C12.67 4.99 12.34 5.98 12 7 C11.34 7 10.68 7 10 7 C9.67 8.65 9.34 10.3 9 12 C7.02 12.33 5.04 12.66 3 13 C3 12.34 3 11.68 3 11 C2.34 11 1.68 11 1 11 C0.67 10.01 0.34 9.02 0 8 C0.33 7.67 0.66 7.34 1 7 C0.01 6.67 -0.98 6.34 -2 6 C-2 4.68 -2 3.36 -2 2 C-1.34 2 -0.68 2 0 2 C0 1.34 0 0.68 0 0 Z " fill="#057BBE" transform="translate(110,140)"/>
<path d="M0 0 C0.66 0 1.32 0 2 0 C2.38218767 1.65614657 2.71395102 3.32457024 3 5 C2.67 5.33 2.34 5.66 2 6 C1.92755947 8.01964199 1.91622812 10.04167124 1.9375 12.0625 C1.95103516 13.71958984 1.95103516 13.71958984 1.96484375 15.41015625 C1.97644531 16.26480469 1.98804687 17.11945313 2 18 C4.31 18 6.62 18 9 18 C9 18.66 9 19.32 9 20 C8.21625 20.12375 7.4325 20.2475 6.625 20.375 C3.85942178 20.79117993 3.85942178 20.79117993 2 23 C1.3574765 25.06874034 1.3574765 25.06874034 1 27 C1.66 27 2.32 27 3 27 C2.67 28.65 2.34 30.3 2 32 C0 31 0 31 -0.703125 28.9453125 C-2.61494693 19.08577371 -1.33875567 9.84500326 0 0 Z " fill="#1D7FB8" transform="translate(118,156)"/>
<path d="M0 0 C6.62177926 0.30656385 11.22125154 1.74288723 17 5 C16.505 5.763125 16.01 6.52625 15.5 7.3125 C13.75631692 9.92363751 13.75631692 9.92363751 14 13 C13.01 13.33 12.02 13.66 11 14 C10.34 13.34 9.68 12.68 9 12 C9.33 11.01 9.66 10.02 10 9 C9.01 8.67 8.02 8.34 7 8 C7 6.02 7 4.04 7 2 C4.69 1.67 2.38 1.34 0 1 C0 0.67 0 0.34 0 0 Z " fill="#2A7CB8" transform="translate(160,37)"/>
<path d="M0 0 C2.35448675 -0.05454409 4.70767875 -0.0939279 7.0625 -0.125 C9.02896484 -0.15980469 9.02896484 -0.15980469 11.03515625 -0.1953125 C15.11824299 0.00582478 18.14999053 0.72834538 22 2 C22 2.66 22 3.32 22 4 C17.71 4 13.42 4 9 4 C9 5.98 9 7.96 9 10 C8.67 10 8.34 10 8 10 C8 8.02 8 6.04 8 4 C3.71 4 -0.58 4 -5 4 C-5 3.67 -5 3.34 -5 3 C-4.14535156 2.93941406 -3.29070313 2.87882812 -2.41015625 2.81640625 C-1.30542969 2.73261719 -0.20070313 2.64882812 0.9375 2.5625 C2.03964844 2.48128906 3.14179687 2.40007812 4.27734375 2.31640625 C6.91109903 2.29581916 6.91109903 2.29581916 8 1 C5.36 1 2.72 1 0 1 C0 0.67 0 0.34 0 0 Z " fill="#1D7EB2" transform="translate(59,82)"/>
<path d="M0 0 C3.63 0 7.26 0 11 0 C9.68 0.33 8.36 0.66 7 1 C7 8.59 7 16.18 7 24 C7.99 24.33 8.98 24.66 10 25 C9.01 25 8.02 25 7 25 C7 30.28 7 35.56 7 41 C8.65 41 10.3 41 12 41 C12 41.33 12 41.66 12 42 C8.04 42 4.08 42 0 42 C0 41.67 0 41.34 0 41 C1.98 41 3.96 41 6 41 C6 35.72 6 30.44 6 25 C4.68 24.67 3.36 24.34 2 24 C3.32 24 4.64 24 6 24 C6 16.41 6 8.82 6 1 C4.02 1 2.04 1 0 1 C0 0.67 0 0.34 0 0 Z " fill="#2899D5" transform="translate(61,151)"/>
<path d="M0 0 C5.58763062 3.89834694 8.78862076 8.50888681 11 15 C10.67 15.99 10.34 16.98 10 18 C9.67 18 9.34 18 9 18 C9 16.35 9 14.7 9 13 C6.77260299 14.06201737 6.77260299 14.06201737 4 16 C4.020625 15.195625 4.04125 14.39125 4.0625 13.5625 C4.29633621 11.06645115 4.29633621 11.06645115 3 10 C0.99226044 7.99226044 0.00607146 6.63126383 -1 4 C-0.625 1.75 -0.625 1.75 0 0 Z " fill="#0D78B0" transform="translate(274,93)"/>
<path d="M0 0 C1.32 0.33 2.64 0.66 4 1 C4 1.66 4 2.32 4 3 C3.34 3 2.68 3 2 3 C2 4.32 2 5.64 2 7 C3.32 7.33 4.64 7.66 6 8 C5.67 9.32 5.34 10.64 5 12 C5.66 12 6.32 12 7 12 C7 12.66 7 13.32 7 14 C8.32 14 9.64 14 11 14 C11.33 14.99 11.66 15.98 12 17 C6.03347646 15.42986223 1.17090975 12.24970218 -4 9 C-2.68 8.34 -1.36 7.68 0 7 C0 4.69 0 2.38 0 0 Z " fill="#1177AF" transform="translate(106,139)"/>
<path d="M0 0 C0.66 0.33 1.32 0.66 2 1 C1.01 2.485 1.01 2.485 0 4 C0.66 4 1.32 4 2 4 C2 4.99 2 5.98 2 7 C4.31 7.33 6.62 7.66 9 8 C5.47894899 11.08091963 2.00433089 13.08602467 -2.23046875 14.97265625 C-4.33052413 16.01797009 -4.33052413 16.01797009 -6 19 C-6 16.69 -6 14.38 -6 12 C-3.69 12 -1.38 12 1 12 C0.484375 10.88625 -0.03125 9.7725 -0.5625 8.625 C-1.036875 7.42875 -1.51125 6.2325 -2 5 C-1.67 4.34 -1.34 3.68 -1 3 C-1.66 2.67 -2.32 2.34 -3 2 C-2.01 1.34 -1.02 0.68 0 0 Z " fill="#0C7AB1" transform="translate(200,141)"/>
<path d="M0 0 C0.99 0.495 0.99 0.495 2 1 C2 1.99 2 2.98 2 4 C5 5.33333333 5 5.33333333 8 4 C9.61737483 8.62107093 10.85248597 13.2460133 12 18 C8.02421995 16.49920886 6.52692946 14.23731209 4.3125 10.6875 C3.71050781 9.74261719 3.10851563 8.79773438 2.48828125 7.82421875 C1.07027342 5.13335349 0.40898217 2.99374946 0 0 Z " fill="#107AB3" transform="translate(29,134)"/>
<path d="M0 0 C0.33 0 0.66 0 1 0 C1 6.6 1 13.2 1 20 C7.90475759 18.84448274 7.90475759 18.84448274 10 15 C10 16.98 10 18.96 10 21 C9.32453125 21.06058594 8.6490625 21.12117188 7.953125 21.18359375 C6.61507812 21.30927734 6.61507812 21.30927734 5.25 21.4375 C4.36828125 21.51871094 3.4865625 21.59992188 2.578125 21.68359375 C0.30649548 21.96238465 -1.79851823 22.38790577 -4 23 C-3.67 22.34 -3.34 21.68 -3 21 C-2.34 21 -1.68 21 -1 21 C-1.01160156 19.73542969 -1.02320312 18.47085938 -1.03515625 17.16796875 C-1.04453566 15.50781398 -1.0536357 13.84765761 -1.0625 12.1875 C-1.07087891 11.35412109 -1.07925781 10.52074219 -1.08789062 9.66210938 C-1.09111328 8.85966797 -1.09433594 8.05722656 -1.09765625 7.23046875 C-1.10289307 6.49207764 -1.10812988 5.75368652 -1.11352539 4.99291992 C-1 3 -1 3 0 0 Z " fill="#1F7AA8" transform="translate(118,65)"/>
<path d="M0 0 C2.97 1.65 5.94 3.3 9 5 C8.01 5.495 8.01 5.495 7 6 C6.34 5.67 5.68 5.34 5 5 C4.855625 5.598125 4.71125 6.19625 4.5625 6.8125 C4.1127561 8.56150404 3.57107659 10.28677023 3 12 C3.66 12.33 4.32 12.66 5 13 C5 13.66 5 14.32 5 15 C0.38486888 13.68139111 -3.09897612 11.78644563 -7 9 C-4.29120665 7.64560332 -1.99066732 7.93498549 1 8 C1.08226668 4.95613276 0.97608217 2.92824652 0 0 Z " fill="#1278AE" transform="translate(205,90)"/>
<path d="M0 0 C-1 1 -1 1 -3.5625 1.0625 C-4.7690625 1.0315625 -4.7690625 1.0315625 -6 1 C-6 1.99 -6 2.98 -6 4 C-6.80824219 4.30292969 -7.61648437 4.60585937 -8.44921875 4.91796875 C-16.67085629 8.11810744 -16.67085629 8.11810744 -23 14 C-23.66 13.67 -24.32 13.34 -25 13 C-19.29035606 6.80860485 -9.32100721 -3.58500277 0 0 Z " fill="#1679AB" transform="translate(150,134)"/>
<path d="M0 0 C0.33 0 0.66 0 1 0 C1.3690205 13.6332574 1.3690205 13.6332574 -1 20 C1.475 20.99 1.475 20.99 4 22 C3.34 22.66 2.68 23.32 2 24 C2 23.34 2 22.68 2 22 C0.35 21.67 -1.3 21.34 -3 21 C-3 18.36 -3 15.72 -3 13 C-2.34 13 -1.68 13 -1 13 C-1.01160156 12.14535156 -1.02320312 11.29070312 -1.03515625 10.41015625 C-1.04417969 9.30542969 -1.05320312 8.20070313 -1.0625 7.0625 C-1.07410156 5.96035156 -1.08570312 4.85820313 -1.09765625 3.72265625 C-1 1 -1 1 0 0 Z " fill="#3E8DBB" transform="translate(106,117)"/>
<path d="M0 0 C0.66 0 1.32 0 2 0 C2 0.66 2 1.32 2 2 C2.99 2 3.98 2 5 2 C4.67 2.99 4.34 3.98 4 5 C3.34 4.67 2.68 4.34 2 4 C-0.45038293 5.24282012 -2.773325 6.52882339 -5.125 7.9375 C-5.78371094 8.32357422 -6.44242187 8.70964844 -7.12109375 9.10742188 C-8.751613 10.06446578 -10.37636184 11.03132815 -12 12 C-12.33 11.34 -12.66 10.68 -13 10 C-12.34 10 -11.68 10 -11 10 C-11.33 8.68 -11.66 7.36 -12 6 C-11.401875 6.20625 -10.80375 6.4125 -10.1875 6.625 C-7.71549154 7.30671915 -7.71549154 7.30671915 -5 5 C-5 4.01 -5 3.02 -5 2 C-2 3 -2 3 -1 4 C-0.67 2.68 -0.34 1.36 0 0 Z " fill="#1379B0" transform="translate(122,193)"/>
<path d="M0 0 C0.33 0 0.66 0 1 0 C1.03758423 0.99181274 1.03758423 0.99181274 1.07592773 2.00366211 C1.19153102 4.98182305 1.31441754 7.9596392 1.4375 10.9375 C1.47681641 11.97841797 1.51613281 13.01933594 1.55664062 14.09179688 C1.59853516 15.08115234 1.64042969 16.07050781 1.68359375 17.08984375 C1.72025146 18.00628662 1.75690918 18.92272949 1.79467773 19.86694336 C1.77003864 21.9820728 1.77003864 21.9820728 3 23 C3.04080783 24.99958364 3.04254356 27.00045254 3 29 C-0.52033247 25.47966753 -1.09484227 20.79437565 -1.23046875 15.95703125 C-1.22654752 14.57545215 -1.21214407 13.19386485 -1.1875 11.8125 C-1.18685547 11.11447266 -1.18621094 10.41644531 -1.18554688 9.69726562 C-1.15672257 6.33122677 -1.03932706 3.21775659 0 0 Z " fill="#1F78A8" transform="translate(208,210)"/>
<path d="M0 0 C0 0.66 0 1.32 0 2 C-2.97 2.99 -5.94 3.98 -9 5 C-9.33 6.65 -9.66 8.3 -10 10 C-11.093125 9.835 -12.18625 9.67 -13.3125 9.5 C-16.87525873 8.93281816 -16.87525873 8.93281816 -20 9 C-14.15028995 4.72680755 -7.55699378 0 0 0 Z " fill="#1378AF" transform="translate(241,182)"/>
<path d="M0 0 C0.33 0 0.66 0 1 0 C1 7.59 1 15.18 1 23 C1.99 23.33 2.98 23.66 4 24 C3.01 24 2.02 24 1 24 C1 29.28 1 34.56 1 40 C0.67 40 0.34 40 0 40 C0 34.72 0 29.44 0 24 C-1.32 23.67 -2.64 23.34 -4 23 C-2.68 23 -1.36 23 0 23 C0 15.41 0 7.82 0 0 Z " fill="#2495D2" transform="translate(247,152)"/>
<path d="M0 0 C0.66 0 1.32 0 2 0 C0.33248852 3.94139078 -2.22710649 6.7892812 -5 10 C-5.66 9.67 -6.32 9.34 -7 9 C-6.67 8.01 -6.34 7.02 -6 6 C-7.32 5.67 -8.64 5.34 -10 5 C-8.8125 3.5 -8.8125 3.5 -7 2 C-5.33382885 1.95936168 -3.66611905 1.957279 -2 2 C-1.34 1.34 -0.68 0.68 0 0 Z " fill="#0F7BB1" transform="translate(189,288)"/>
<path d="M0 0 C6.6739772 7.2807024 5.2147898 17.83563513 5 27 C4.67 27 4.34 27 4 27 C3.67 21.39 3.34 15.78 3 10 C2.01 10.33 1.02 10.66 0 11 C0.33 8.69 0.66 6.38 1 4 C0.34 3.67 -0.32 3.34 -1 3 C-0.67 2.01 -0.34 1.02 0 0 Z " fill="#1C75AA" transform="translate(282,203)"/>
<path d="M0 0 C0.33 0 0.66 0 1 0 C1 3.63 1 7.26 1 11 C1.66 11 2.32 11 3 11 C2.67 9.35 2.34 7.7 2 6 C2.99 6 3.98 6 5 6 C5 8.31 5 10.62 5 13 C3.68 13 2.36 13 1 13 C1 15.31 1 17.62 1 20 C0.67 20 0.34 20 0 20 C0 13.4 0 6.8 0 0 Z " fill="#0D78B2" transform="translate(62,162)"/>
<path d="M0 0 C0.33 0.66 0.66 1.32 1 2 C5.29 2 9.58 2 14 2 C14 2.33 14 2.66 14 3 C9.71 3 5.42 3 1 3 C1 4.98 1 6.96 1 9 C0.67 9 0.34 9 0 9 C0 7.02 0 5.04 0 3 C-4.29 3 -8.58 3 -13 3 C-13 2.67 -13 2.34 -13 2 C-12.14535156 1.93941406 -11.29070313 1.87882812 -10.41015625 1.81640625 C-8.75306641 1.69072266 -8.75306641 1.69072266 -7.0625 1.5625 C-5.96035156 1.48128906 -4.85820313 1.40007812 -3.72265625 1.31640625 C-1.08890097 1.29581916 -1.08890097 1.29581916 0 0 Z " fill="#1B8ECC" transform="translate(67,83)"/>
<path d="M0 0 C3.75055339 1.69142604 6.14655203 3.68616612 9.1875 6.4375 C6.52083333 6.4375 3.85416667 6.4375 1.1875 6.4375 C1.1875 5.4475 1.1875 4.4575 1.1875 3.4375 C0.5275 3.4375 -0.1325 3.4375 -0.8125 3.4375 C-0.8125 2.7775 -0.8125 2.1175 -0.8125 1.4375 C-2.4625 1.4375 -4.1125 1.4375 -5.8125 1.4375 C-2.8125 -0.5625 -2.8125 -0.5625 0 0 Z " fill="#1379AB" transform="translate(264.8125,85.5625)"/>
<path d="M0 0 C1.051875 0.4640625 1.051875 0.4640625 2.125 0.9375 C5.09090132 2.03359397 7.88389122 2.51527197 11 3 C11.66 3.33 12.32 3.66 13 4 C12.67 4.99 12.34 5.98 12 7 C7.2460133 5.85248597 2.62107093 4.61737483 -2 3 C-1.34 2.67 -0.68 2.34 0 2 C0 1.34 0 0.68 0 0 Z " fill="#539CC4" transform="translate(110,140)"/>
<path d="M0 0 C0.33 0.66 0.66 1.32 1 2 C1.886875 2.28875 2.77375 2.5775 3.6875 2.875 C7.27446606 4.09321489 9.92992109 5.80708649 13 8 C9.7169902 9.6415049 6.57454967 8.51888624 3 8 C3.33 6.68 3.66 5.36 4 4 C2.68 3.67 1.36 3.34 0 3 C0 2.01 0 1.02 0 0 Z " fill="#1775AC" transform="translate(103,237)"/>
<path d="M0 0 C1.32022153 2.64044305 1.40974493 4.06349469 1 7 C-1.375 9.8125 -1.375 9.8125 -4 12 C-4.66 12 -5.32 12 -6 12 C-4.68139111 7.38486888 -2.78644563 3.90102388 0 0 Z " fill="#117AB2" transform="translate(125,52)"/>
<path d="M0 0 C0 2 0 2 -1.4375 3.5 C-1.953125 3.995 -2.46875 4.49 -3 5 C-3.33 5.66 -3.66 6.32 -4 7 C-6.31 6.67 -8.62 6.34 -11 6 C-3.8 0 -3.8 0 0 0 Z " fill="#137AB1" transform="translate(203,243)"/>
<path d="M0 0 C0.66 0.33 1.32 0.66 2 1 C2.625 3.0625 2.625 3.0625 3 5 C2.34 5 1.68 5 1 5 C1 5.66 1 6.32 1 7 C-3.15267176 10.11450382 -3.15267176 10.11450382 -6.3125 9.6875 C-6.869375 9.460625 -7.42625 9.23375 -8 9 C-3.25 6 -3.25 6 -1 6 C-1.33 4.68 -1.66 3.36 -2 2 C-1.34 2 -0.68 2 0 2 C0 1.34 0 0.68 0 0 Z " fill="#0D73B4" transform="translate(210,131)"/>
<path d="M0 0 C0.33 0.66 0.66 1.32 1 2 C5.62 2 10.24 2 15 2 C10.91240337 4.04379831 10.01314435 4.18594005 5.75 3.625 C4.85796875 3.51414062 3.9659375 3.40328125 3.046875 3.2890625 C2.37140625 3.19367188 1.6959375 3.09828125 1 3 C1 4.98 1 6.96 1 9 C0.67 9 0.34 9 0 9 C0 7.02 0 5.04 0 3 C-1.32 2.67 -2.64 2.34 -4 2 C-2.68 1.34 -1.36 0.68 0 0 Z " fill="#1B8CCA" transform="translate(247,83)"/>
<path d="M0 0 C-0.33 1.32 -0.66 2.64 -1 4 C-2.32 4.33 -3.64 4.66 -5 5 C-5.33 6.32 -5.66 7.64 -6 9 C-6.99 8.67 -7.98 8.34 -9 8 C-8.67 7.34 -8.34 6.68 -8 6 C-8.66 5.67 -9.32 5.34 -10 5 C-8.71186658 4.16121545 -7.41936744 3.32913217 -6.125 2.5 C-5.40570313 2.0359375 -4.68640625 1.571875 -3.9453125 1.09375 C-2 0 -2 0 0 0 Z " fill="#1178AC" transform="translate(112,191)"/>
<path d="M0 0 C2.97 0 5.94 0 9 0 C4.55595403 3.62107449 0.78565632 5.33060893 -5 5 C-4.67 4.34 -4.34 3.68 -4 3 C-1.9375 2.375 -1.9375 2.375 0 2 C0 1.34 0 0.68 0 0 Z " fill="#1878AB" transform="translate(259,156)"/>
<path d="M0 0 C0.33 1.32 0.66 2.64 1 4 C2.98 4.495 2.98 4.495 5 5 C4.01 6.485 4.01 6.485 3 8 C2.34 8 1.68 8 1 8 C1 8.99 1 9.98 1 11 C1.99 11.33 2.98 11.66 4 12 C2.68 12 1.36 12 0 12 C0 8.04 0 4.08 0 0 Z " fill="#0A82C6" transform="translate(158,226)"/>
<path d="M0 0 C4.92307692 4.30769231 4.92307692 4.30769231 5.3125 7.8125 C5.209375 8.534375 5.10625 9.25625 5 10 C4.01 10 3.02 10 2 10 C1.11064623 6.696686 0.53725895 3.37705625 0 0 Z " fill="#0D78B5" transform="translate(277,196)"/>
<path d="M0 0 C0.99 0 1.98 0 3 0 C3 0.99 3 1.98 3 3 C2.34 3 1.68 3 1 3 C1.17402344 3.56203125 1.34804687 4.1240625 1.52734375 4.703125 C2.05053346 7.24556755 1.90204838 9.18452337 1.5625 11.75 C1.46066406 12.54921875 1.35882813 13.3484375 1.25390625 14.171875 C1.17011719 14.77515625 1.08632812 15.3784375 1 16 C1.99 16.33 2.98 16.66 4 17 C2.68 17 1.36 17 0 17 C0 11.39 0 5.78 0 0 Z " fill="#0D83C2" transform="translate(248,176)"/>
<path d="M0 0 C1.32 0.66 2.64 1.32 4 2 C3.37351563 2.32613281 2.74703125 2.65226563 2.1015625 2.98828125 C1.28429687 3.42527344 0.46703125 3.86226562 -0.375 4.3125 C-1.18710938 4.74175781 -1.99921875 5.17101562 -2.8359375 5.61328125 C-5.26834043 6.96778724 -5.26834043 6.96778724 -7 10 C-7 7.69 -7 5.38 -7 3 C-4.69 3 -2.38 3 0 3 C0 2.01 0 1.02 0 0 Z " fill="#1978A9" transform="translate(201,150)"/>
<path d="M0 0 C-1.74122549 1.03572896 -3.49336595 2.0531252 -5.25 3.0625 C-6.71179688 3.91521484 -6.71179688 3.91521484 -8.203125 4.78515625 C-11 6 -11 6 -13.359375 5.68359375 C-13.90078125 5.45800781 -14.4421875 5.23242188 -15 5 C-14.01 5 -13.02 5 -12 5 C-12 4.34 -12 3.68 -12 3 C-11.2575 2.71125 -10.515 2.4225 -9.75 2.125 C-7.05677524 1.08795324 -7.05677524 1.08795324 -4.875 -0.1875 C-3 -1 -3 -1 0 0 Z " fill="#187BAD" transform="translate(181,300)"/>
<path d="M0 0 C0.66 0 1.32 0 2 0 C2.38218767 1.65614657 2.71395102 3.32457024 3 5 C2.67 5.33 2.34 5.66 2 6 C1.76924918 7.34747084 1.58846937 8.70377565 1.4375 10.0625 C1.2209375 12.0115625 1.2209375 12.0115625 1 14 C0.34 14 -0.32 14 -1 14 C-0.67 9.38 -0.34 4.76 0 0 Z " fill="#1978A9" transform="translate(118,156)"/>
<path d="M0 0 C1.65 0 3.3 0 5 0 C4.0919838 1.13199353 3.17316174 2.25532363 2.25 3.375 C1.73953125 4.00148437 1.2290625 4.62796875 0.703125 5.2734375 C-1.08199481 7.08312318 -2.67949644 8.00117455 -5 9 C-3.99088542 7.2421875 -2.98177083 5.484375 -1.97265625 3.7265625 C-1.28280949 2.50201525 -0.62855462 1.25710923 0 0 Z " fill="#1678AA" transform="translate(94,146)"/>
<path d="M0 0 C5.53455721 2.2948164 9.00415551 5.68496083 13 10 C12.01 10.33 11.02 10.66 10 11 C9.61328125 10.51789063 9.2265625 10.03578125 8.828125 9.5390625 C8.30734375 8.90742188 7.7865625 8.27578125 7.25 7.625 C6.48429688 6.68527344 6.48429688 6.68527344 5.703125 5.7265625 C3.91800519 3.91687682 2.32050356 2.99882545 0 2 C0 1.34 0 0.68 0 0 Z " fill="#1D73A4" transform="translate(176,137)"/>
<path d="M0 0 C2.33944736 0.28730055 4.6739143 0.61936779 7 1 C7.33 2.65 7.66 4.3 8 6 C4.22454612 4.90931332 1.52956528 4.0916909 -1 1 C-0.67 0.67 -0.34 0.34 0 0 Z " fill="#1278AF" transform="translate(191,195)"/>
<path d="M0 0 C1.32 0.66 2.64 1.32 4 2 C2.1875 4.5 2.1875 4.5 0 7 C-0.99 7 -1.98 7 -3 7 C-2.690625 6.401875 -2.38125 5.80375 -2.0625 5.1875 C-0.89790296 2.91043228 -0.89790296 2.91043228 0 0 Z " fill="#007CC2" transform="translate(210,95)"/>
<path d="M0 0 C0.66 0.33 1.32 0.66 2 1 C-0.75134539 3.95514876 -3.39733775 6.1524809 -7 8 C-7.99 8 -8.98 8 -10 8 C-8.89764064 7.03958829 -7.79303376 6.08175593 -6.6875 5.125 C-5.76517578 4.32449219 -5.76517578 4.32449219 -4.82421875 3.5078125 C-3 2 -3 2 0 0 Z " fill="#41B9F2" transform="translate(233,195)"/>
<path d="M0 0 C5.37992836 0.33990833 9.53273547 0.68557793 14 4 C13.67 4.66 13.34 5.32 13 6 C11.02 5.34 9.04 4.68 7 4 C7 3.34 7 2.68 7 2 C4.69 1.67 2.38 1.34 0 1 C0 0.67 0 0.34 0 0 Z " fill="#317AAB" transform="translate(160,37)"/>
<path d="M0 0 C-0.66 1.65 -1.32 3.3 -2 5 C-2.99 5 -3.98 5 -5 5 C-5 4.34 -5 3.68 -5 3 C-6.32 3.33 -7.64 3.66 -9 4 C-8 2 -8 2 -5.625 0.875 C-3 0 -3 0 0 0 Z " fill="#117AB0" transform="translate(145,39)"/>
<path d="M0 0 C0.66 0.33 1.32 0.66 2 1 C1.01 1.33 0.02 1.66 -1 2 C-1.33 2.99 -1.66 3.98 -2 5 C-4.31 5.33 -6.62 5.66 -9 6 C-3.30379747 1.25316456 -3.30379747 1.25316456 0 0 Z " fill="#1879A9" transform="translate(112,88)"/>
<path d="M0 0 C0.33 0 0.66 0 1 0 C1 1.98 1 3.96 1 6 C-1.64 6 -4.28 6 -7 6 C-6.67 5.34 -6.34 4.68 -6 4 C-3.4375 3.375 -3.4375 3.375 -1 3 C-0.67 2.01 -0.34 1.02 0 0 Z " fill="#1888C7" transform="translate(127,80)"/>
<path d="M0 0 C2.31 1.98 4.62 3.96 7 6 C6.67 6.66 6.34 7.32 6 8 C4.02 7.01 2.04 6.02 0 5 C0 3.35 0 1.7 0 0 Z " fill="#6297C0" transform="translate(185,48)"/>
<path d="M0 0 C2.64 0 5.28 0 8 0 C8.33 1.65 8.66 3.3 9 5 C5.54074837 3.7508258 2.85306797 2.32472205 0 0 Z " fill="#177AAC" transform="translate(103,250)"/>
<path d="M0 0 C-0.3125 1.9375 -0.3125 1.9375 -1 4 C-1.99 4.33 -2.98 4.66 -4 5 C-4.99 4.34 -5.98 3.68 -7 3 C-2.25 0 -2.25 0 0 0 Z " fill="#1178AE" transform="translate(210,239)"/>
<path d="M0 0 C0.66 0 1.32 0 2 0 C2 0.99 2 1.98 2 3 C4.475 3.99 4.475 3.99 7 5 C6.34 5.66 5.68 6.32 5 7 C5 6.34 5 5.68 5 5 C3.35 4.67 1.7 4.34 0 4 C0 2.68 0 1.36 0 0 Z " fill="#60A3CA" transform="translate(103,134)"/>
<path d="M0 0 C0.33 0.66 0.66 1.32 1 2 C0.06553465 4.03144641 -0.93224776 6.03533587 -2 8 C-2.66 8 -3.32 8 -4 8 C-2.25 2.25 -2.25 2.25 0 0 Z " fill="#1579AE" transform="translate(35,197)"/>
<path d="" fill="#AAFFFF" transform="translate(0,0)"/>
</svg>
