<?xml version="1.0" encoding="UTF-8"?>
<svg version="1.1" xmlns="http://www.w3.org/2000/svg" width="512" height="512">
<path d="M0 0 C0.98129379 -0.00953201 1.96258759 -0.01906403 2.97361755 -0.02888489 C4.02267776 -0.02797348 5.07173798 -0.02706207 6.15258789 -0.02612305 C7.24108536 -0.03040817 8.32958282 -0.0346933 9.45106506 -0.03910828 C11.74992173 -0.04484371 14.04879653 -0.04535765 16.34765625 -0.04101562 C19.85912112 -0.0378563 23.36974278 -0.06132336 26.88110352 -0.08666992 C29.11743058 -0.08894309 31.3537599 -0.08964633 33.59008789 -0.08862305 C34.63712387 -0.09783279 35.68415985 -0.10704254 36.76292419 -0.11653137 C42.21013949 -0.08206573 46.27803927 0.10195947 50.93774414 3.2746582 C52.49751478 6.39419948 52.0587854 9.70425204 52.03540039 13.1262207 C52.03327797 14.28726822 52.03327797 14.28726822 52.03111267 15.47177124 C52.02550817 17.94777262 52.01295497 20.42368408 52.00024414 22.8996582 C51.99522972 24.57674023 51.99066671 26.25382368 51.98657227 27.9309082 C51.97553729 32.04552626 51.95826968 36.16007698 51.93774414 40.2746582 C53.01733398 40.41564941 54.09692383 40.55664062 55.20922852 40.7019043 C59.17976565 41.31183621 62.71423504 42.45545 66.43774414 43.8996582 C67.45964844 44.28855225 67.45964844 44.28855225 68.50219727 44.68530273 C75.81779268 47.52371337 82.87223608 50.86873281 89.93774414 54.2746582 C90.59371582 53.61344971 91.2496875 52.95224121 91.92553711 52.27099609 C94.3574545 49.82204968 96.79159779 47.37536067 99.22729492 44.93017578 C100.28158444 43.87085347 101.33497523 42.81063591 102.38745117 41.74951172 C103.89926271 40.22558859 105.41426316 38.70490037 106.92993164 37.18481445 C108.29674072 35.81015015 108.29674072 35.81015015 109.69116211 34.40771484 C112.38590384 31.84914513 113.38603834 31.36293113 117.06274414 30.7746582 C121.17070981 31.30471829 121.82854193 31.70323807 124.72314453 34.35742188 C125.42142365 34.99481293 126.11970276 35.63220398 126.83914185 36.28890991 C130.02046515 39.29915503 133.15449581 42.34836732 136.24633789 45.45043945 C137.22462303 46.42728951 137.22462303 46.42728951 138.22267151 47.4238739 C139.5842455 48.78477356 140.94458238 50.146912 142.30371094 51.51025391 C144.39086688 53.60282145 146.48338046 55.68992645 148.57641602 57.77661133 C149.90421119 59.10506639 151.23169662 60.43383114 152.55883789 61.76293945 C153.18479355 62.38687088 153.81074921 63.01080231 154.45567322 63.65364075 C159.72630814 68.95318319 159.72630814 68.95318319 160.43774414 73.3996582 C159.91126481 77.47987301 159.55790115 78.11614324 156.93383789 80.9855957 C156.29881348 81.68152832 155.66378906 82.37746094 155.00952148 83.09448242 C151.56702758 86.71709267 148.05489204 90.26228882 144.50024414 93.7746582 C143.76870117 94.50168945 143.0371582 95.2287207 142.28344727 95.9777832 C140.5038459 97.74575319 138.72193496 99.51132198 136.93774414 101.2746582 C137.18419678 101.77167236 137.43064941 102.26868652 137.68457031 102.78076172 C150.93774414 129.67372471 150.93774414 129.67372471 150.93774414 139.2746582 C151.97705078 139.25371094 153.01635742 139.23276367 154.0871582 139.21118164 C157.94850856 139.13870146 161.80979897 139.09282989 165.67163086 139.05493164 C167.34198116 139.03483428 169.01226127 139.00755137 170.68237305 138.97290039 C173.08538134 138.92429701 175.48745848 138.90167165 177.89086914 138.8840332 C178.63580627 138.86338806 179.38074341 138.84274292 180.14825439 138.82147217 C183.62967454 138.81997048 185.5587911 138.98941984 188.37817383 141.11157227 C190.78465566 144.44930379 191.06542422 147.12861272 191.08300781 151.12573242 C191.09257759 152.60274124 191.09257759 152.60274124 191.1023407 154.10958862 C191.10400993 155.70336838 191.10400993 155.70336838 191.10571289 157.3293457 C191.10904129 158.42304474 191.11236969 159.51674377 191.11579895 160.64358521 C191.12086437 162.95859354 191.12320739 165.27360918 191.12304688 167.58862305 C191.12523116 171.128622 191.14338513 174.66830825 191.16235352 178.20825195 C191.16528795 180.4569488 191.16727241 182.70564713 191.16821289 184.9543457 C191.17539841 186.01281708 191.18258392 187.07128845 191.18998718 188.16183472 C191.18691055 189.15281158 191.18383392 190.14378845 191.18066406 191.16479492 C191.18208908 192.03288788 191.1835141 192.90098083 191.1849823 193.79537964 C190.78917834 197.76446057 189.87588954 200.4893261 186.79443359 203.06884766 C183.21548618 204.57952378 180.04433377 204.65246482 176.23071289 204.56762695 C175.50531815 204.56338211 174.7799234 204.55913727 174.032547 204.55476379 C171.72972523 204.53805363 169.42779861 204.50041781 167.12524414 204.4621582 C165.55819954 204.44710136 163.99114114 204.43341471 162.42407227 204.42114258 C158.59495457 204.38817552 154.7665008 204.33644812 150.93774414 204.2746582 C150.82527344 204.91024658 150.71280273 205.54583496 150.59692383 206.20068359 C149.57845768 211.65376359 148.28039966 216.57615151 146.18774414 221.7121582 C145.93186523 222.34613525 145.67598633 222.9801123 145.41235352 223.63330078 C143.31906152 228.68763325 140.75105806 233.36664996 137.84399414 238.00512695 C136.67949203 240.19486065 136.67949203 240.19486065 137.59765625 242.12304688 C139.26148559 244.79444931 141.22389528 246.76708885 143.47290039 248.9699707 C144.36428711 249.85040039 145.25567383 250.73083008 146.17407227 251.63793945 C147.10670898 252.54930664 148.0393457 253.46067383 149.00024414 254.3996582 C150.84746581 256.21255435 152.69262835 258.02755179 154.53540039 259.8449707 C155.35532471 260.64692871 156.17524902 261.44888672 157.02001953 262.27514648 C159.24298792 264.59292002 159.83837752 265.75298346 160.43774414 268.8996582 C159.88863067 272.60617416 159.29236595 273.33926694 156.85327148 276.01293945 C156.21572937 276.71580078 155.57818726 277.41866211 154.92132568 278.14282227 C154.26674377 278.84632813 153.61216187 279.54983398 152.93774414 280.2746582 C152.3551886 280.90339844 151.77263306 281.53213867 151.17242432 282.17993164 C147.39108669 286.21534808 143.53007144 290.17321786 139.65942383 294.12280273 C138.25619482 295.56295882 136.86200539 297.01197578 135.47680664 298.46948242 C133.4565018 300.59318493 131.40818072 302.68593469 129.35180664 304.7746582 C128.74213043 305.42764893 128.13245422 306.08063965 127.50430298 306.75341797 C124.27822839 309.96573264 121.95509165 311.70678825 117.3190918 311.98388672 C112.69865007 311.61518313 110.55024374 309.87182673 107.42211914 306.42700195 C106.95839905 305.93631729 106.49467896 305.44563263 106.01690674 304.94007874 C104.55037435 303.3841044 103.11750184 301.80193099 101.68774414 300.2121582 C100.24115622 298.62192208 98.78855863 297.03951144 97.31573486 295.473526 C95.98711505 294.05871435 94.68386262 292.62020733 93.38208008 291.18066406 C91.1079442 288.98203396 91.1079442 288.98203396 88.30859375 289.39135742 C85.30137541 290.51174831 82.57327902 291.93427911 79.75024414 293.4621582 C71.90673143 297.56704409 60.90095028 303.2746582 51.93774414 303.2746582 C51.96392822 304.27843506 51.9901123 305.28221191 52.01708984 306.31640625 C52.10782582 310.05283172 52.16507676 313.78916055 52.21240234 317.52636719 C52.23749373 319.14144281 52.2715754 320.75640547 52.31494141 322.37109375 C52.375837 324.69730527 52.40400538 327.02201179 52.42602539 329.34887695 C52.45183182 330.06677902 52.47763824 330.78468109 52.50422668 331.52433777 C52.50619039 335.06185711 51.98807869 337.19049429 50.16723633 340.23510742 C45.19758153 343.37363903 40.538232 342.93170823 34.77758789 342.83325195 C33.5955629 342.83092056 32.4135379 342.82858917 31.19569397 342.82618713 C28.70005056 342.81645434 26.20442911 342.79467836 23.70898438 342.76171875 C19.88581702 342.71229488 16.06393656 342.70023644 12.24047852 342.69458008 C9.8153346 342.68049455 7.39020186 342.66429032 4.96508789 342.64575195 C3.82023422 342.64038925 2.67538055 342.63502655 1.49583435 342.62950134 C0.43115433 342.61351395 -0.6335257 342.59752655 -1.73046875 342.58105469 C-2.66580948 342.57041489 -3.60115021 342.55977509 -4.56483459 342.54881287 C-7.19603211 342.2599729 -8.82536765 341.66552035 -11.06225586 340.2746582 C-13.64277991 336.7975899 -13.40772423 332.82913233 -13.47631836 328.6652832 C-13.50536758 327.57506866 -13.50536758 327.57506866 -13.53500366 326.46282959 C-13.59459857 324.15022372 -13.64110344 321.83756753 -13.68725586 319.5246582 C-13.72545422 317.95302238 -13.76450703 316.38140707 -13.80444336 314.80981445 C-13.90028329 310.96492978 -13.98438781 307.11994713 -14.06225586 303.2746582 C-14.63032959 303.09926514 -15.19840332 302.92387207 -15.78369141 302.74316406 C-26.28134005 299.46749022 -36.15865535 296.25908136 -45.56616211 290.4621582 C-47.88422457 289.10427603 -47.88422457 289.10427603 -49.92480469 289.4230957 C-52.8932763 290.6057375 -54.5329623 292.42648802 -56.75756836 294.7121582 C-57.63799805 295.60676758 -58.51842773 296.50137695 -59.42553711 297.4230957 C-60.3369043 298.36411133 -61.24827148 299.30512695 -62.18725586 300.2746582 C-64.00025434 302.13088386 -65.81525683 303.98515497 -67.63256836 305.8371582 C-68.83550537 307.0765918 -68.83550537 307.0765918 -70.06274414 308.34106445 C-72.79819378 310.98633443 -73.8202487 311.24127791 -77.68725586 311.7746582 C-87.29137736 311.53117942 -96.56942589 297.91852161 -103.00097656 291.46630859 C-105.01570357 289.44616763 -107.03578971 287.43149437 -109.05639648 285.41723633 C-110.33861876 284.13435419 -111.62053131 282.85116239 -112.90209961 281.56762695 C-113.80822243 280.66454048 -113.80822243 280.66454048 -114.73265076 279.74320984 C-119.88470874 274.56187481 -119.88470874 274.56187481 -120.56225586 269.6496582 C-120.40691214 263.83980322 -117.04257468 261.16368531 -113.06225586 257.2746582 C-111.79245792 255.99626661 -110.5243851 254.71616032 -109.25756836 253.43481445 C-105.54734827 249.69281896 -101.81180891 245.97720625 -98.06225586 242.2746582 C-99.45873702 237.74813306 -101.28019503 233.64451097 -103.37475586 229.3996582 C-107.14528464 221.58241857 -109.64428912 213.59897994 -112.06225586 205.2746582 C-113.04097656 205.25483887 -114.01969727 205.23501953 -115.02807617 205.21459961 C-118.66619183 205.13841196 -122.30391438 205.04971526 -125.94165039 204.95727539 C-127.51481351 204.91903991 -129.08806244 204.88417755 -130.66137695 204.8527832 C-132.92552309 204.80701398 -135.18908133 204.74904059 -137.45288086 204.6887207 C-138.15407043 204.67716949 -138.85526001 204.66561829 -139.57769775 204.65371704 C-143.19417675 204.5449039 -146.05765702 204.39068563 -149.06225586 202.2746582 C-151.27967123 198.94853515 -151.32541123 197.84713182 -151.36865234 193.96459961 C-151.39263344 192.33743515 -151.39263344 192.33743515 -151.417099 190.67739868 C-151.4224617 189.50550995 -151.4278244 188.33362122 -151.43334961 187.1262207 C-151.44237808 185.92154144 -151.45140656 184.71686218 -151.46070862 183.47567749 C-151.4752272 180.92529797 -151.48410183 178.37488107 -151.48779297 175.82446289 C-151.49968835 171.92180639 -151.54886169 168.02073083 -151.59936523 164.1184082 C-151.6088292 161.64185343 -151.61606436 159.16528893 -151.62084961 156.6887207 C-151.64038193 155.52088043 -151.65991425 154.35304016 -151.68003845 153.14981079 C-151.63568319 145.18710367 -151.63568319 145.18710367 -149.02270508 141.02929688 C-145.31445688 138.8314427 -142.32340036 138.63586953 -138.13647461 138.78637695 C-137.01508842 138.79698906 -137.01508842 138.79698906 -135.87104797 138.80781555 C-133.49624184 138.83568176 -131.12384235 138.89839689 -128.74975586 138.9621582 C-127.13455568 138.98725152 -125.51931832 139.01006289 -123.90405273 139.03051758 C-119.95586766 139.08548173 -116.00946897 139.17169294 -112.06225586 139.2746582 C-111.89209961 138.52369873 -111.72194336 137.77273926 -111.54663086 136.99902344 C-109.92435281 130.14371217 -107.88546482 123.78490048 -105.06225586 117.3371582 C-104.71936523 116.52698242 -104.37647461 115.71680664 -104.02319336 114.88208008 C-102.59823435 111.56170804 -101.2096209 108.5036457 -99.24975586 105.45825195 C-97.88529639 103.41706644 -97.88529639 103.41706644 -98.19482422 101.42993164 C-99.41912336 98.38796349 -101.34247827 96.81662662 -103.75366211 94.60668945 C-104.69790039 93.71272461 -105.64213867 92.81875977 -106.61499023 91.89770508 C-108.11568189 90.48965778 -109.62186056 89.08978847 -111.14501953 87.70605469 C-112.61785181 86.36112816 -114.06116992 84.98410681 -115.50366211 83.60668945 C-116.37708252 82.79949463 -117.25050293 81.9922998 -118.15039062 81.16064453 C-120.40316214 77.76005559 -120.94415214 75.68171783 -120.71488953 71.64530945 C-119.37427506 66.77561071 -115.61129718 63.7169478 -112.03881836 60.3371582 C-111.22230804 59.53101074 -110.40579773 58.72486328 -109.56454468 57.89428711 C-106.95917617 55.33254508 -104.32395492 52.80410008 -101.68725586 50.2746582 C-99.9196355 48.54362047 -98.15398605 46.81056772 -96.39038086 45.07543945 C-93.16709979 41.91877432 -89.9389494 38.76773716 -86.68579102 35.6418457 C-86.03293121 35.01391113 -85.38007141 34.38597656 -84.70742798 33.73901367 C-82.58770667 31.8522655 -81.24182882 31.30886258 -78.43725586 30.7746582 C-70.56085456 31.94153247 -63.97953388 41.22967221 -58.56225586 46.7121582 C-57.83522461 47.44370117 -57.10819336 48.17524414 -56.35913086 48.92895508 C-54.59116087 50.70855645 -52.82559208 52.49046738 -51.06225586 54.2746582 C-48.07139179 53.14140111 -45.18382371 51.8727316 -42.31225586 50.4699707 C-21.43543821 40.2746582 -21.43543821 40.2746582 -13.06225586 40.2746582 C-13.08582153 38.81443237 -13.08582153 38.81443237 -13.10986328 37.32470703 C-13.16431825 33.69995454 -13.19866212 30.07523795 -13.22705078 26.45019531 C-13.24210208 24.88372713 -13.26254793 23.31730084 -13.28857422 21.75097656 C-13.32512019 19.49444214 -13.34201847 17.23846667 -13.35522461 14.98168945 C-13.37070847 14.28566116 -13.38619232 13.58963287 -13.40214539 12.87251282 C-13.40364681 8.49727065 -12.89693128 5.66091695 -10.06225586 2.2746582 C-6.6118452 0.59616806 -3.81770698 0.02047586 0 0 Z M3.93774414 17.2746582 C3.91196289 19.61043945 3.88618164 21.9462207 3.85961914 24.3527832 C3.82118393 26.61999459 3.77602884 28.88697967 3.73022461 31.15405273 C3.7020346 32.72718464 3.68081016 34.30045767 3.66674805 35.8737793 C3.64528972 38.13834776 3.59863066 40.40122325 3.54711914 42.6652832 C3.5458905 43.36647278 3.54466187 44.06766235 3.543396 44.7901001 C3.44425867 48.11023837 3.15614701 49.98189464 1.14868164 52.67285156 C-1.02659699 54.24882364 -2.44694783 54.95697565 -5.04663086 55.51293945 C-5.80911133 55.68937988 -6.5715918 55.86582031 -7.35717773 56.04760742 C-8.16735352 56.22565918 -8.9775293 56.40371094 -9.81225586 56.5871582 C-22.43389788 59.64585114 -33.92426888 64.07802369 -44.33959961 71.98950195 C-48.47293162 73.94052954 -51.61240004 74.62266855 -56.06225586 73.2746582 C-60.21145107 70.22137741 -63.64112038 66.54573429 -67.12475586 62.7746582 C-68.09332306 61.76089444 -69.06401029 60.74915171 -70.03686523 59.73950195 C-72.40025874 57.27028485 -74.74011664 54.78260667 -77.06225586 52.2746582 C-80.62989871 53.78841902 -82.89931873 55.87978949 -85.60913086 58.6262207 C-86.4534668 59.47700195 -87.29780273 60.3277832 -88.16772461 61.2043457 C-89.04041992 62.09379883 -89.91311523 62.98325195 -90.81225586 63.8996582 C-91.70041992 64.7968457 -92.58858398 65.6940332 -93.50366211 66.6184082 C-95.69442555 68.83272824 -97.88038349 71.05158255 -100.06225586 73.2746582 C-95.70580055 78.49833945 -91.10465361 83.32699016 -86.24975586 88.0871582 C-84.90762724 89.40384363 -83.56766909 90.7227463 -82.23022461 92.04418945 C-81.64523193 92.61758057 -81.06023926 93.19097168 -80.45751953 93.78173828 C-78.54288244 95.83038322 -78.08872148 97.07881259 -77.71069336 99.8762207 C-78.19622998 104.56974139 -80.26828847 107.66820814 -82.68725586 111.6496582 C-89.5023978 123.38698056 -93.76660103 135.38464046 -97.20288086 148.48168945 C-98.06225586 151.2746582 -98.06225586 151.2746582 -100.06225586 154.2746582 C-103.55433767 155.43868547 -106.45373358 155.48584328 -110.13647461 155.59106445 C-111.38775146 155.62917236 -112.63902832 155.66728027 -113.92822266 155.70654297 C-115.51932861 155.749646 -117.11043457 155.79274902 -118.74975586 155.8371582 C-123.80288086 155.9815332 -128.85600586 156.1259082 -134.06225586 156.2746582 C-134.06225586 166.5046582 -134.06225586 176.7346582 -134.06225586 187.2746582 C-130.54118164 187.33073242 -130.54118164 187.33073242 -126.94897461 187.38793945 C-124.67519824 187.434153 -122.40158662 187.48538705 -120.12792969 187.53710938 C-118.54795343 187.57036008 -116.96785834 187.59839167 -115.38769531 187.62109375 C-113.11594007 187.65463836 -110.84527383 187.70695048 -108.57397461 187.76293945 C-107.86762375 187.76932938 -107.16127289 187.7757193 -106.43351746 187.78230286 C-103.608002 187.86698452 -101.55258657 187.9446693 -99.17114258 189.54736328 C-97.90817345 191.51466988 -97.34434097 193.14707805 -96.80834961 195.4230957 C-96.59871582 196.25381592 -96.38908203 197.08453613 -96.1730957 197.94042969 C-95.95089355 198.8344751 -95.72869141 199.72852051 -95.49975586 200.6496582 C-93.35248984 208.72622643 -90.57298152 216.18678742 -86.93725586 223.7121582 C-86.51758545 224.5808252 -86.09791504 225.44949219 -85.66552734 226.34448242 C-83.88670125 229.92602562 -82.07609583 233.36942575 -79.80053711 236.66137695 C-77.41489716 240.24787836 -77.25945661 242.0417167 -78.06225586 246.2746582 C-79.97925314 249.34046974 -82.50206198 251.73857918 -85.06225586 254.2746582 C-86.25696576 255.48099711 -87.45091211 256.68809247 -88.64428711 257.89575195 C-92.09640105 261.37643572 -95.57413534 264.83007872 -99.06225586 268.2746582 C-97.5757208 271.74095655 -95.60503235 273.96487857 -92.92944336 276.6027832 C-92.1237793 277.40200195 -91.31811523 278.2012207 -90.48803711 279.0246582 C-89.6462793 279.8496582 -88.80452148 280.6746582 -87.93725586 281.5246582 C-87.08776367 282.36512695 -86.23827148 283.2055957 -85.36303711 284.0715332 C-83.26720662 286.14381503 -81.16684873 288.21128213 -79.06225586 290.2746582 C-75.61331742 288.79494609 -73.41743132 286.85106289 -70.80444336 284.17700195 C-70.01424805 283.37584961 -69.22405273 282.57469727 -68.40991211 281.74926758 C-67.59393555 280.91202148 -66.77795898 280.07477539 -65.93725586 279.2121582 C-64.3118688 277.55243198 -62.68436959 275.89477073 -61.05444336 274.23950195 C-60.33627441 273.5033667 -59.61810547 272.76723145 -58.87817383 272.00878906 C-56.37035503 269.61391989 -55.35967165 269.30097499 -51.83959961 268.98950195 C-47.44425566 269.32131179 -45.3284977 270.49397459 -41.62475586 272.8371582 C-30.3188751 279.67096887 -18.76549209 284.48141443 -5.9128418 287.58984375 C0.88591429 289.28496985 0.88591429 289.28496985 2.93774414 292.2746582 C3.26853752 294.85282931 3.42610044 297.20385987 3.44946289 299.78637695 C3.46741409 300.51460159 3.4853653 301.24282623 3.50386047 301.99311829 C3.55798627 304.31607291 3.59186494 306.63882186 3.62524414 308.9621582 C3.65841539 310.53835872 3.69290487 312.11453208 3.72875977 313.69067383 C3.81619441 317.55203186 3.87623728 321.41245175 3.93774414 325.2746582 C14.16774414 325.2746582 24.39774414 325.2746582 34.93774414 325.2746582 C35.14750126 315.29801685 35.14750126 315.29801685 35.32568359 305.32080078 C35.35879639 304.07451904 35.39190918 302.8282373 35.42602539 301.54418945 C35.45220947 300.27164307 35.47839355 298.99909668 35.50537109 297.68798828 C35.96810516 294.03497588 36.62672903 292.12350365 38.93774414 289.2746582 C40.95214844 288.26733398 40.95214844 288.26733398 43.26196289 287.7199707 C44.11798096 287.50155518 44.97399902 287.28313965 45.85595703 287.05810547 C46.76982178 286.84081787 47.68368652 286.62353027 48.62524414 286.3996582 C61.93574336 282.91322207 73.72835739 278.09596332 85.28930664 270.55981445 C88.45773721 269.02233118 90.45542136 268.84940847 93.93774414 269.2746582 C95.74633789 270.27856445 95.74633789 270.27856445 97.37524414 271.8371582 C98.36331055 272.76915039 98.36331055 272.76915039 99.37133789 273.7199707 C100.21825195 274.56301758 101.06516602 275.40606445 101.93774414 276.2746582 C102.53989746 276.86988281 103.14205078 277.46510742 103.76245117 278.07836914 C108.18192781 282.44984278 112.57003349 286.8514981 116.93774414 291.2746582 C122.1894934 286.89023294 127.06996887 282.26623728 131.87524414 277.3996582 C132.90101563 276.36711914 132.90101563 276.36711914 133.94750977 275.3137207 C135.61325878 273.63632309 137.27660634 271.9566203 138.93774414 270.2746582 C137.44449517 266.71479672 135.42072373 264.63423411 132.58618164 262.04418945 C131.73540039 261.24045898 130.88461914 260.43672852 130.00805664 259.60864258 C128.21670214 257.93281746 126.41197993 256.27116419 124.59399414 254.62426758 C117.346136 247.70135141 117.346136 247.70135141 117.09399414 242.6027832 C117.61894544 238.08533507 119.49132865 234.87729331 122.06274414 231.2121582 C129.16524206 220.2353173 132.92636781 208.27275058 136.20239258 195.68139648 C137.61612653 190.48906994 137.61612653 190.48906994 140.93774414 188.2746582 C143.47361262 188.03472165 145.90990445 187.90212601 148.44946289 187.8605957 C149.54179985 187.83154648 149.54179985 187.83154648 150.65620422 187.8019104 C152.97909889 187.74219444 155.30204333 187.69576203 157.62524414 187.6496582 C159.20143746 187.61147099 160.77761009 187.57241882 162.35375977 187.5324707 C166.21497934 187.43487274 170.075982 187.35524412 173.93774414 187.2746582 C173.93774414 177.0446582 173.93774414 166.8146582 173.93774414 156.2746582 C163.96110279 156.06490108 163.96110279 156.06490108 153.98388672 155.88671875 C152.73760498 155.85360596 151.49132324 155.82049316 150.20727539 155.78637695 C148.934729 155.76019287 147.66218262 155.73400879 146.35107422 155.70703125 C142.68655946 155.24284016 140.78633125 154.60640624 137.93774414 152.2746582 C136.85449219 150.0925293 136.85449219 150.0925293 136.19946289 147.5480957 C135.94084473 146.60651611 135.68222656 145.66493652 135.41577148 144.69482422 C135.02446045 143.18746704 135.02446045 143.18746704 134.62524414 141.6496582 C131.24067148 129.6113272 127.0419576 118.1075892 119.93774414 107.7121582 C117.90838324 104.22419415 117.0297045 102.22381373 117.35180664 98.2512207 C118.61551465 93.98831234 121.83018136 91.30904446 124.93774414 88.2746582 C126.13334206 87.07050318 127.32720603 85.86462522 128.51977539 84.6574707 C131.97103617 81.17457117 135.44893127 77.7199214 138.93774414 74.2746582 C134.55331888 69.02290894 129.92932321 64.14243347 125.06274414 59.3371582 C124.03020508 58.31138672 124.03020508 58.31138672 122.97680664 57.26489258 C121.29940903 55.59914356 119.61970623 53.935796 117.93774414 52.2746582 C112.89944096 56.48510155 108.21667492 60.89709303 103.62524414 65.5871582 C102.40231428 66.83553926 101.17715997 68.08174632 99.94946289 69.32543945 C99.15221802 70.14008667 99.15221802 70.14008667 98.33886719 70.97119141 C95.53690976 73.57785645 92.86477467 73.61703 89.11791992 73.56469727 C85.34173345 73.06233338 82.54304894 71.16367979 79.37524414 69.1496582 C68.35375906 62.57774497 56.92004055 58.2102816 44.48291016 55.09790039 C41.64194737 54.33995131 39.40153481 53.71970918 37.25195312 51.65698242 C35.42302544 48.34160507 35.50090938 45.65818648 35.42602539 41.8840332 C35.40807419 41.17941956 35.39012299 40.47480591 35.37162781 39.74884033 C35.31762557 37.50750641 35.28366326 35.26638416 35.25024414 33.0246582 C35.21706196 31.50119131 35.18257145 29.97775232 35.14672852 28.4543457 C35.05944996 24.72775451 34.99930241 21.00211751 34.93774414 17.2746582 C24.70774414 17.2746582 14.47774414 17.2746582 3.93774414 17.2746582 Z " fill="#FE9E00" transform="translate(225.062255859375,88.725341796875)"/>
<path d="M0 0 C0.82757813 0.66386719 1.65515625 1.32773438 2.5078125 2.01171875 C22.34801788 18.83546658 34.54514041 44.18772107 37 70 C38.95408016 100.23137772 31.92925643 126.63333306 12 150 C11.09507812 151.12341797 11.09507812 151.12341797 10.171875 152.26953125 C-5.68108873 171.28642681 -30.31394655 182.58010005 -54.578125 185.71875 C-84.217745 188.15488315 -112.57141549 180.69984422 -135.484375 161.31640625 C-155.88340139 143.59869519 -169.74883707 118.13901972 -172 91 C-173.62104444 61.70541123 -165.17209969 32.53595006 -145.55859375 10.37109375 C-108.71955029 -30.23664981 -42.42539048 -34.56149411 0 0 Z M-135 25 C-149.40406291 42.43337099 -156.24318442 64.5338816 -155 87 C-152.82720298 106.53706655 -146.37214319 125.29548747 -133 140 C-131.83984375 141.28197266 -131.83984375 141.28197266 -130.65625 142.58984375 C-125.01243538 148.52835122 -119.13831425 153.00372228 -112 157 C-111.05253906 157.53496094 -110.10507813 158.06992187 -109.12890625 158.62109375 C-88.99176199 169.34485849 -63.30061421 171.75372904 -41.40625 165.19921875 C-17.97491521 156.94988414 1.03393373 142.74327827 12 120 C20.92994695 98.55156482 23.55989411 75.25692509 16 53 C15.649375 51.95972656 15.29875 50.91945312 14.9375 49.84765625 C6.46345368 27.45616581 -10.5754133 10.80035879 -32.01953125 0.7265625 C-68.4320798 -15.56860468 -109.03311917 -4.13910013 -135 25 Z " fill="#FE9E00" transform="translate(312,179)"/>
<path d="M0 0 C5.30993435 3.98245076 9.0993885 9.37216668 10.4453125 15.92578125 C11.45682528 23.57669178 10.70686428 30.08044455 6.52734375 36.6796875 C1.693147 42.78243233 -4.28867217 46.74889191 -12.0546875 47.89453125 C-19.44515564 48.18601282 -26.25107995 46.86387816 -31.89257812 41.81542969 C-33.95540908 40.2141326 -33.95540908 40.2141326 -36.30664062 40.66040039 C-42.26524094 42.70550299 -47.94170874 45.04228931 -53.5625 47.890625 C-54.41763184 48.32165527 -55.27276367 48.75268555 -56.15380859 49.19677734 C-68.98655842 55.82707082 -81.12897117 64.0070197 -92.0625 73.453125 C-92.85398437 74.13503906 -93.64546875 74.81695312 -94.4609375 75.51953125 C-127.89834765 105.00141181 -148.97974959 142.03923862 -159.0625 185.453125 C-159.24184082 186.20158691 -159.42118164 186.95004883 -159.60595703 187.72119141 C-165.4154134 213.21472437 -164.34122063 244.22254672 -158.0625 269.453125 C-157.81580566 270.45182617 -157.56911133 271.45052734 -157.31494141 272.47949219 C-153.85235858 286.07050176 -149.32074757 298.90502255 -143.0625 311.453125 C-142.69866211 312.18644043 -142.33482422 312.91975586 -141.95996094 313.67529297 C-132.99916234 331.5540714 -121.83424598 347.9293675 -107.7421875 362.171875 C-105.67975931 364.97294026 -105.27223667 367.00412199 -105.0625 370.453125 C-106.4364373 373.33185077 -107.81239437 375.20301937 -110.0625 377.453125 C-113.45322407 378.06345533 -115.88753161 378.1571145 -118.9140625 376.34375 C-135.76425094 362.33659747 -148.14360231 341.6661753 -158.0625 322.453125 C-158.41795898 321.7734668 -158.77341797 321.09380859 -159.13964844 320.39355469 C-184.35791389 271.63824147 -187.20413084 213.36474688 -171.10644531 161.35424805 C-160.17037277 127.73764907 -142.4509974 98.82972421 -118.0625 73.453125 C-117.54429688 72.90769043 -117.02609375 72.36225586 -116.4921875 71.80029297 C-108.59151626 63.51285858 -100.2460469 56.27987782 -91.0625 49.453125 C-90.50481934 49.0293457 -89.94713867 48.60556641 -89.37255859 48.16894531 C-78.50825139 39.92006076 -66.80788961 32.65650327 -54.20703125 27.36328125 C-53.42755127 27.02893066 -52.64807129 26.69458008 -51.8449707 26.35009766 C-50.36555963 25.72820382 -48.87322228 25.1358936 -47.36791992 24.57958984 C-45.03043724 23.68155431 -45.03043724 23.68155431 -42.0625 21.453125 C-41.155242 19.15333148 -40.73873156 17.02477324 -40.37841797 14.58178711 C-39.48111737 8.53575624 -34.71801308 3.38801763 -30.06640625 -0.2890625 C-20.55412569 -6.25973373 -9.41509382 -5.8508083 0 0 Z M-21.4375 15.015625 C-23.61476285 18.28151928 -24.0625 20.53296366 -24.0625 24.453125 C-22.29608828 27.25501946 -21.03200178 28.96837411 -18.0625 30.453125 C-15.18943772 30.95407523 -15.18943772 30.95407523 -12.0625 30.453125 C-9.41993684 28.33907448 -7.61715853 26.5277759 -6.0625 23.515625 C-6.0625 20.27757182 -7.40458288 18.17684599 -9.0625 15.453125 C-13.27106506 12.64741496 -17.08583996 12.15269077 -21.4375 15.015625 Z " fill="#FEC900" transform="translate(212.0625,37.546875)"/>
<path d="M0 0 C2.9375 2.0625 2.9375 2.0625 5 5 C5.5594973 10.78864516 4.22766105 15.19479248 2.1875 20.5 C1.8783667 21.31533203 1.5692334 22.13066406 1.25073242 22.97070312 C-10.38117792 52.86282616 -26.9864725 77.84661347 -49 101 C-49.61101562 101.65226562 -50.22203125 102.30453125 -50.8515625 102.9765625 C-68.15504733 120.93610363 -90.52337097 134.5506721 -113 145 C-113.64598145 145.30147949 -114.29196289 145.60295898 -114.95751953 145.91357422 C-164.16377066 168.4679774 -224.95930735 169.84044248 -275.58300781 151.04077148 C-276.77361816 150.59906616 -276.77361816 150.59906616 -277.98828125 150.1484375 C-278.67833252 149.87563965 -279.36838379 149.6028418 -280.0793457 149.32177734 C-282.06306633 148.80092366 -282.06306633 148.80092366 -283.95678711 149.93066406 C-285.10967007 150.79924909 -286.23252269 151.70863185 -287.328125 152.6484375 C-292.19122943 156.57982566 -299.03827066 156.62122222 -305 156 C-312.81853146 154.53485782 -318.65884145 150.56753755 -323.3515625 144.15234375 C-327.26681293 137.29361368 -327.87875161 129.40919128 -326 121.8125 C-323.46318704 114.645719 -318.90668981 109.79156628 -312.375 106 C-305.51219879 102.93364201 -298.37788597 102.67078114 -291.1953125 104.8515625 C-284.38442247 107.89472613 -279.1410095 112.66835496 -275.8203125 119.38671875 C-274.89442443 122.33633359 -274.80069219 124.7287259 -274.875 127.8125 C-274.89304687 128.78832031 -274.91109375 129.76414062 -274.9296875 130.76953125 C-274.95289063 131.50558594 -274.97609375 132.24164063 -275 133 C-274.45472656 133.11102051 -273.90945313 133.22204102 -273.34765625 133.33642578 C-268.58526929 134.3448714 -263.99655768 135.58789894 -259.3737793 137.10693359 C-227.4791667 147.42684013 -190.64492291 148.95243395 -158 141 C-157.10764648 140.78569336 -156.21529297 140.57138672 -155.29589844 140.35058594 C-103.44661107 127.51438398 -59.73362006 95.23468896 -31.828125 49.77734375 C-24.96946597 38.35313157 -19.78450194 26.40980191 -15 14 C-14.11509388 11.72488626 -13.22005076 9.45367586 -12.3125 7.1875 C-11.93738281 6.23230469 -11.56226563 5.27710938 -11.17578125 4.29296875 C-8.65940795 -0.61437719 -5.01549856 -0.60531879 0 0 Z M-308 125 C-309.42662219 127.85324437 -309.31033868 129.83454549 -309 133 C-306.92170296 136.74093467 -305.67458281 137.79149259 -301.5625 139.0625 C-297.26668421 138.98713481 -295.94780329 138.03450339 -293 135 C-291.57337781 132.14675563 -291.68966132 130.16545451 -292 127 C-294.07829704 123.25906533 -295.32541719 122.20850741 -299.4375 120.9375 C-303.73331579 121.01286519 -305.05219671 121.96549661 -308 125 Z " fill="#FD9200" transform="translate(449,315)"/>
<path d="M0 0 C25.59785917 8.73702065 49.35517632 22.26208359 69.79248047 39.953125 C70.59685547 40.64664063 71.40123047 41.34015625 72.22998047 42.0546875 C83.94575853 52.38109445 94.63245041 63.28788259 103.79248047 75.953125 C104.27040039 76.61376953 104.74832031 77.27441406 105.24072266 77.95507812 C124.1909707 104.51290762 138.97779516 135.97963789 142.76147461 168.66040039 C143.39715905 175.53178277 143.39715905 175.53178277 147.01904297 181.18359375 C149.62490815 182.74190986 149.62490815 182.74190986 152.35107422 183.87890625 C157.04808298 185.94559011 159.00163007 189.64413124 161.60498047 193.953125 C164.01630393 200.17544819 163.90390896 208.11690407 162.06591797 214.4609375 C159.03016139 220.95202678 153.96784753 225.44164177 147.79248047 228.953125 C140.19702663 231.61153384 132.87634952 231.62969145 125.47998047 228.203125 C119.05547041 224.60953588 114.13086105 218.96826675 111.79248047 211.953125 C110.97098652 202.92842715 111.2916972 195.41065456 116.79248047 187.953125 C119.50310607 185.10871316 122.26993688 182.71439679 125.79248047 180.953125 C126.04932655 175.03763871 125.12493303 169.77012542 123.79248047 164.015625 C123.57245361 163.06413574 123.35242676 162.11264648 123.12573242 161.13232422 C119.17937675 144.7125941 114.00897848 128.63938922 105.82226562 113.82421875 C104.75820971 111.8908559 103.73340276 109.93975521 102.71044922 107.984375 C95.50771407 94.44972719 86.44658605 82.44392378 75.96435547 71.27734375 C74.11892369 69.30246622 72.38178054 67.29070008 70.66748047 65.203125 C67.38379096 61.35858494 63.68139597 58.17258713 59.79248047 54.953125 C59.28604004 54.52370605 58.77959961 54.09428711 58.2578125 53.65185547 C43.82134915 41.43896828 27.96189091 31.83596259 10.79248047 23.953125 C9.80610596 23.49728027 9.80610596 23.49728027 8.79980469 23.03222656 C-9.94241576 14.50517604 -30.22064212 9.45433916 -50.70361328 7.5078125 C-51.4295166 7.43401367 -52.15541992 7.36021484 -52.90332031 7.28417969 C-54.88416198 7.09135035 -56.86810687 6.93118228 -58.85205078 6.7734375 C-62.98043981 5.76416894 -64.58442284 4.24427628 -67.20751953 0.953125 C-67.95215193 -3.01824781 -67.58018831 -4.48787183 -65.33251953 -7.859375 C-53.99291892 -19.53249327 -13.09384673 -4.27054115 0 0 Z M129.79248047 199.953125 C128.34817192 202.84174209 128.41559541 204.74960201 128.79248047 207.953125 C131.05021768 210.85592999 132.85583153 212.54484213 136.22998047 214.015625 C139.97567977 213.92426648 141.91649665 212.2408394 144.79248047 209.953125 C146.36183641 206.81441312 146.1444915 204.41456678 145.79248047 200.953125 C143.342476 197.56635411 141.928556 196.16613916 137.79248047 195.390625 C134.13340543 196.07670157 132.44080371 197.38046814 129.79248047 199.953125 Z " fill="#FD7100" transform="translate(317.20751953125,58.046875)"/>
<path d="M0 0 C2.59618809 2.18992099 3.84629509 3.95080699 4.34362793 7.34561157 C4.46393436 10.30777528 4.44912663 13.24298199 4.390625 16.20703125 C4.38496521 17.28756271 4.37930542 18.36809418 4.37347412 19.48136902 C4.35112043 22.92553389 4.30092391 26.36865065 4.25 29.8125 C4.22993379 32.15037558 4.21168323 34.4882675 4.1953125 36.82617188 C4.15125895 42.55113761 4.08435621 48.27549392 4 54 C4.77214844 54.29519531 5.54429687 54.59039062 6.33984375 54.89453125 C12.46908181 57.44163018 15.13505351 61.27010702 18 67 C20.15727875 74.17188035 19.38524528 80.8177848 16.40234375 87.6328125 C13.10626191 93.1966721 8.14271537 97.05541259 2 99 C-5.57894599 99.83455743 -12.82823573 99.88879358 -19 95 C-22.06848412 91.97338604 -25.06082387 88.87835226 -27 85 C-27.94842773 84.9906543 -28.89685547 84.98130859 -29.87402344 84.97167969 C-33.40064758 84.92760769 -36.92606203 84.86597217 -40.45214844 84.79248047 C-41.97677431 84.76429465 -43.50154566 84.74306811 -45.02636719 84.72900391 C-47.22145936 84.70753951 -49.41480711 84.66087831 -51.609375 84.609375 C-52.92905273 84.58842773 -54.24873047 84.56748047 -55.60839844 84.54589844 C-59.4953085 83.92027715 -60.67971648 83.11783663 -63 80 C-64.14695938 76.40619396 -64.316323 74.73253748 -62.8125 71.25 C-60.84251883 68.80450614 -59.90706066 68.08513243 -57 67 C-53.70019531 66.77294922 -53.70019531 66.77294922 -49.828125 66.8046875 C-48.8044986 66.80893234 -48.8044986 66.80893234 -47.76019287 66.81326294 C-45.58994693 66.82441902 -43.42012029 66.84951443 -41.25 66.875 C-39.77474556 66.88503574 -38.29948463 66.89416056 -36.82421875 66.90234375 C-33.21601058 66.92434313 -29.60804625 66.95884117 -26 67 C-25.85973389 66.37818848 -25.71946777 65.75637695 -25.57495117 65.11572266 C-24.90645128 62.65575662 -23.9455116 61.32089834 -22.3125 59.375 C-21.83425781 58.78460938 -21.35601562 58.19421875 -20.86328125 57.5859375 C-18.45370288 55.53501755 -15.99588622 54.93597664 -13 54 C-13.00666183 53.38247864 -13.01332367 52.76495728 -13.02018738 52.12872314 C-13.08652731 45.70500898 -13.13179508 39.28139205 -13.16479492 32.85742188 C-13.17988682 30.45959521 -13.2003625 28.06179617 -13.22631836 25.6640625 C-13.26268311 22.21868067 -13.27972248 18.77366363 -13.29296875 15.328125 C-13.30845261 14.25508118 -13.32393646 13.18203735 -13.33988953 12.07647705 C-13.34011612 11.07574158 -13.34034271 10.0750061 -13.34057617 9.04394531 C-13.34723801 8.16458313 -13.35389984 7.28522095 -13.36076355 6.37921143 C-12.91891744 3.46526594 -12.02174237 2.12007359 -10 0 C-6.16652698 -1.27782434 -3.91272241 -0.96101954 0 0 Z M-9.3125 70.5625 C-11.36113011 73.00322397 -11.36113011 73.00322397 -10.875 76.625 C-10.29259286 80.04542055 -10.29259286 80.04542055 -8 82 C-3.87169954 82.44462008 -3.87169954 82.44462008 -0.1875 80.8125 C1.40882057 78.37601071 2 76.94138968 2 74 C-0.08333333 71.08333333 -0.08333333 71.08333333 -3 69 C-6.91275555 68.62676173 -6.91275555 68.62676173 -9.3125 70.5625 Z " fill="#FEA000" transform="translate(252,187)"/>
</svg>
