<?xml version="1.0" encoding="UTF-8"?>
<svg version="1.1" xmlns="http://www.w3.org/2000/svg" width="1000" height="913">
<path d="M0 0 C330 0 660 0 1000 0 C1000 301.29 1000 602.58 1000 913 C670 913 340 913 0 913 C0 611.71 0 310.42 0 0 Z " fill="#31EFB8" transform="translate(0,0)"/>
<path d="M0 0 C4.30743601 4.02979281 7.65945303 8.44427266 11.0625 13.25 C11.62831787 14.04140381 12.19413574 14.83280762 12.77709961 15.64819336 C14.52367771 18.09486123 16.26292423 20.54657877 18 23 C18.78117187 24.10142334 18.78117187 24.10142334 19.578125 25.22509766 C23.55935045 30.8416525 27.52012417 36.47251986 31.47949219 42.10449219 C32.96459128 44.21613276 34.45067909 46.32707143 35.9375 48.4375 C36.43072754 49.13770264 36.92395508 49.83790527 37.43212891 50.55932617 C40.52612911 54.94140593 43.65632368 59.29533453 46.80981445 63.63476562 C52.04609416 70.84162067 57.20028614 78.09844254 62.25 85.4375 C62.81130615 86.24880371 63.3726123 87.06010742 63.95092773 87.89599609 C64.72545288 89.02835693 64.72545288 89.02835693 65.515625 90.18359375 C65.97227539 90.84931396 66.42892578 91.51503418 66.89941406 92.20092773 C68 94 68 94 69 97 C69.66 97 70.32 97 71 97 C71.23074219 96.48695313 71.46148437 95.97390625 71.69921875 95.4453125 C73.48752249 92.08351628 75.64603487 88.9994674 77.8125 85.875 C78.29678467 85.17342773 78.78106934 84.47185547 79.2800293 83.74902344 C83.42127648 77.77697159 87.67147698 71.88679912 91.94165039 66.0065918 C101.50282407 52.81998118 110.75187871 39.40732927 120 26 C123.98216395 29.73327871 126.98800975 33.64960666 130 38.1875 C134.00484921 44.11766521 138.10118528 49.96463057 142.3125 55.75 C147.65752502 63.10331775 152.89042064 70.52933836 158.08959961 77.98632812 C162.31933312 84.04648317 166.6093748 90.05492985 171 96 C175.15238525 92.11137788 178.34256724 87.92744934 181.5625 83.25 C182.62750897 81.72258987 183.69261585 80.195248 184.7578125 78.66796875 C185.29696289 77.89114746 185.83611328 77.11432617 186.39160156 76.31396484 C188.8906384 72.71865957 191.41277159 69.13979124 193.9375 65.5625 C194.43080811 64.86261963 194.92411621 64.16273926 195.43237305 63.44165039 C199.04240355 58.32943602 202.70073405 53.25367608 206.375 48.1875 C210.98124132 41.83570658 215.5125498 35.43621822 220 29 C222.33088414 25.66494736 224.66454207 22.33185114 227 19 C227.90758057 17.70376709 227.90758057 17.70376709 228.83349609 16.38134766 C230.60979514 13.85235548 232.396947 11.33141354 234.1875 8.8125 C234.72826172 8.03970703 235.26902344 7.26691406 235.82617188 6.47070312 C236.33083984 5.76494141 236.83550781 5.05917969 237.35546875 4.33203125 C237.79528076 3.71046143 238.23509277 3.0888916 238.68823242 2.44848633 C240 1 240 1 243 0 C243.96486328 1.41925781 243.96486328 1.41925781 244.94921875 2.8671875 C250.54583901 11.06933024 256.25600961 19.17604689 262.08837891 27.2121582 C268.30480035 35.78245048 274.39059707 44.44339056 280.47949219 53.10449219 C287.18889275 62.64449022 293.95672585 72.13917572 300.796875 81.5859375 C301.27095291 82.25565582 301.74503082 82.92537415 302.23347473 83.61538696 C303.98633645 86.0428462 303.98633645 86.0428462 306.03533936 88.3611908 C312.10798476 95.73164542 313.10708382 101.15208043 312.78125 110.54296875 C312.76993042 111.79257889 312.75861084 113.04218903 312.74694824 114.32966614 C312.71003199 117.61401708 312.63849301 120.89507908 312.54931641 124.17834473 C312.46671284 127.54362231 312.43078041 130.90938633 312.390625 134.27539062 C312.30287066 140.8515205 312.16934884 147.42549206 312 154 C312.84498047 154.26103516 313.68996094 154.52207031 314.56054688 154.79101562 C318.19035378 156.06691027 321.59123858 157.63834044 325.03125 159.34375 C325.70305298 159.67234009 326.37485596 160.00093018 327.0670166 160.33947754 C329.21310535 161.38943837 331.35679486 162.44416699 333.5 163.5 C346.55827847 169.9290699 359.73959944 175.9725452 373 182 C373 302.12 373 422.24 373 546 C337.24380693 563.33633603 337.24380693 563.33633603 319.59765625 571.46875 C310.49000623 575.67916483 301.43464893 580.00005789 292.375 584.3125 C279.92943815 590.23582484 267.47590237 596.14083507 255 602 C242.73546132 607.76122057 230.48788449 613.55737766 218.25 619.375 C217.4131366 619.7728067 216.57627319 620.1706134 215.71405029 620.58047485 C212.33001181 622.18912053 208.94598433 623.79778936 205.5619812 625.4065094 C192.70761856 631.51660106 179.84654473 637.61251757 166.98022461 643.6973877 C162.21730625 645.95005136 157.45609333 648.20627613 152.69589233 650.4646759 C149.54787672 651.95730541 146.39847989 653.44700262 143.24871826 654.9359436 C141.76739977 655.63687908 140.28663143 656.3389786 138.80645752 657.04232788 C136.76829805 658.01057807 134.72815998 658.97453346 132.6875 659.9375 C130.96080078 660.75541016 130.96080078 660.75541016 129.19921875 661.58984375 C120.89455958 665.25038338 120.89455958 665.25038338 117.28466797 664.23999023 C115.90239014 663.53144897 115.90239014 663.53144897 114.4921875 662.80859375 C112.91099121 662.0199292 112.91099121 662.0199292 111.29785156 661.21533203 C109.60354004 660.33530518 109.60354004 660.33530518 107.875 659.4375 C106.05686216 658.52197012 104.23518815 657.61372862 102.41345215 656.7053833 C101.15519687 656.07715705 99.89812857 655.44654823 98.64221191 654.81365967 C92.2490169 651.59610356 85.75661961 648.60553836 79.25 645.625 C69.27723534 641.02729404 59.37392595 636.30512166 49.5 631.5 C38.77660459 626.28278339 28.0071361 621.18445735 17.17822266 616.1887207 C6.87587444 611.42734194 -3.37729108 606.56522092 -13.625 601.6875 C-26.79826236 595.41814812 -39.98149524 589.17141045 -53.18652344 582.96923828 C-61.37115641 579.1248236 -69.55022071 575.26915885 -77.71875 571.390625 C-78.53808517 571.00165039 -79.35742035 570.61267578 -80.20158386 570.21191406 C-87.12315112 566.92581909 -87.12315112 566.92581909 -90.0531311 565.53442383 C-101.09857561 560.29144076 -112.16925977 555.11421603 -123.31298828 550.08276367 C-124.6372583 549.48298706 -124.6372583 549.48298706 -125.98828125 548.87109375 C-126.74665283 548.53005615 -127.50502441 548.18901855 -128.28637695 547.83764648 C-130 547 -130 547 -131 546 C-131.09770914 544.06610876 -131.12371302 542.12858718 -131.12304783 540.19222927 C-131.12503888 538.92228223 -131.12702993 537.65233519 -131.12908131 536.34390491 C-131.12622771 534.9162357 -131.1232821 533.48856668 -131.12025452 532.06089783 C-131.12069009 530.55860725 -131.12156473 529.05631675 -131.12284368 527.55402666 C-131.12509145 523.40610354 -131.12106354 519.25820598 -131.11606562 515.11028612 C-131.11176532 510.64468596 -131.11320724 506.17908736 -131.1139679 501.71348572 C-131.1144934 493.96997165 -131.11134386 486.22646598 -131.10573006 478.48295403 C-131.09761861 467.28700083 -131.0950002 456.09105171 -131.09374207 444.89509589 C-131.09155099 426.7323891 -131.08488939 408.56968678 -131.07543945 390.40698242 C-131.06626678 372.75887067 -131.05918524 355.11076014 -131.05493164 337.46264648 C-131.05466892 336.37564282 -131.05440619 335.28863915 -131.05413551 334.16869598 C-131.05283051 328.71576468 -131.0515668 323.26283338 -131.05032361 317.80990207 C-131.03994925 272.53993161 -131.02232942 227.26996604 -131 182 C-130.20126024 181.63002301 -129.40252048 181.26004602 -128.57957649 180.87885761 C-125.5714385 179.48506853 -122.56360154 178.09063365 -119.55595589 176.69578266 C-118.26256767 176.09610497 -116.96906539 175.4966732 -115.67543983 174.89750767 C-105.00655252 169.95571174 -94.40683791 164.88631229 -83.85742188 159.69458008 C-81.90392726 158.73451926 -79.94820829 157.77911939 -77.9921875 156.82421875 C-76.88214355 156.27854248 -75.77209961 155.73286621 -74.62841797 155.1706543 C-72 154 -72 154 -70 154 C-70.02220612 153.31476761 -70.04441223 152.62953522 -70.06729126 151.92353821 C-70.26915967 145.40885032 -70.42064678 138.89505658 -70.51812172 132.37792683 C-70.56993569 129.02797698 -70.64548505 125.68260396 -70.75439453 122.33374023 C-71.57201662 96.53054909 -71.57201662 96.53054909 -65.35546875 89.2421875 C-63.6045817 87.46045532 -61.822238 85.70869065 -60 84 C-58.83101541 82.43704392 -57.7043076 80.8409256 -56.63671875 79.20703125 C-56.14945312 78.48443115 -55.6621875 77.76183105 -55.16015625 77.01733398 C-54.67417969 76.28973877 -54.18820312 75.56214355 -53.6875 74.8125 C-46.80361355 64.63520656 -39.61131998 54.69870403 -32.375 44.77050781 C-30.74782454 42.53607516 -29.12300771 40.29996169 -27.5 38.0625 C-26.96737549 37.32829834 -26.43475098 36.59409668 -25.88598633 35.83764648 C-21.88452299 30.29264933 -18.02154164 24.66165905 -14.1875 19 C-9.72883148 12.41615928 -5.15795922 6.06177081 0 0 Z " fill="#FCFEFE" transform="translate(380,130)"/>
<path d="M0 0 C0 99 0 198 0 300 C-20.03320995 309.48941524 -40.05561026 318.96842862 -60.1484375 328.32421875 C-73.58070804 334.58993994 -86.95120955 340.98763886 -100.33538818 347.35519409 C-109.34467528 351.6408968 -118.35888684 355.91617909 -127.375 360.1875 C-128.54740738 360.74301544 -128.54740738 360.74301544 -129.74349976 361.30975342 C-138.17659158 365.30497881 -146.61329319 369.29235908 -155.05859375 373.26171875 C-156.15883125 373.7788871 -156.15883125 373.7788871 -157.28129578 374.3065033 C-160.8600421 375.98837937 -164.43934476 377.66905999 -168.01928711 379.34838867 C-174.55448562 382.41687997 -181.07695168 385.50787636 -187.5703125 388.6640625 C-189.3186438 389.51218506 -189.3186438 389.51218506 -191.10229492 390.37744141 C-193.26392133 391.42906055 -195.42310636 392.48571882 -197.5793457 393.54833984 C-198.99219849 394.23597412 -198.99219849 394.23597412 -200.43359375 394.9375 C-201.24884521 395.33839844 -202.06409668 395.73929688 -202.90405273 396.15234375 C-205 397 -205 397 -208 397 C-208 298.33 -208 199.66 -208 98 C-168.0978195 78.58812841 -168.0978195 78.58812841 -149.6171875 70.07421875 C-142.87485131 66.95770366 -136.18467463 63.73797986 -129.5 60.5 C-120.41424716 56.0996245 -111.29137044 51.79234469 -102.125 47.5625 C-92.53592558 43.13677335 -82.99993203 38.61296996 -73.5 34 C-60.63406031 27.75492718 -47.6816506 21.7082586 -34.69726562 15.71337891 C-30.66199817 13.84639407 -26.63542588 11.96097805 -22.609375 10.07421875 C-21.91375961 9.74845856 -21.21814423 9.42269836 -20.50144958 9.08706665 C-16.39664173 7.16468107 -16.39664173 7.16468107 -12.29348755 5.23876953 C-10.42169465 4.35933617 -8.54884856 3.48218373 -6.67578125 2.60546875 C-5.60239502 2.10168701 -4.52900879 1.59790527 -3.4230957 1.07885742 C-1 0 -1 0 0 0 Z " fill="#31EFB8" transform="translate(724,358)"/>
<path d="M0 0 C23.06839393 10.38077727 23.06839393 10.38077727 34.04833984 15.6315918 C37.38885521 17.22752256 40.73015824 18.82176004 44.07275391 20.41333008 C47.63085309 22.10756672 51.18858827 23.802564 54.74609375 25.49804688 C62.9500696 29.40646634 71.16222126 33.29762116 79.375 37.1875 C80.15636322 37.55772278 80.93772644 37.92794556 81.74276733 38.30938721 C90.15234005 42.29372128 98.5655777 46.2700534 106.98828125 50.2265625 C107.71518158 50.56802307 108.44208191 50.90948364 109.19100952 51.2612915 C112.06754432 52.61239666 114.94411034 53.96343525 117.82080078 55.31420898 C128.29607697 60.23470791 138.73165346 65.23112789 149.1496582 70.27197266 C158.24751042 74.66300441 167.3984261 78.93459025 176.57373047 83.16088867 C187.09655989 88.01442933 197.53362718 93.01601294 208 98 C208 196.67 208 295.34 208 397 C203.56661685 396.11332337 200.70366692 395.04801573 196.71484375 393.078125 C196.11021805 392.78205353 195.50559235 392.48598206 194.88264465 392.18093872 C193.57947661 391.54236288 192.27752613 390.90129747 190.97668457 390.25799561 C187.48419501 388.53161234 183.98214527 386.82483979 180.48046875 385.1171875 C179.76702301 384.76882843 179.05357727 384.42046936 178.31851196 384.06155396 C171.50373184 380.74179093 164.63550003 377.54562582 157.75 374.375 C148.62459637 370.1673285 139.54388172 365.880179 130.5 361.5 C121.37232016 357.07956849 112.20768019 352.75127077 103 348.5 C93.79231487 344.24872695 84.62779996 339.92018907 75.5 335.5 C66.51405571 331.15053482 57.4963799 326.8832462 48.4375 322.6875 C32.25960097 315.19384114 16.13216741 307.59160819 0 300 C0 201 0 102 0 0 Z " fill="#31EFB8" transform="translate(278,358)"/>
<path d="M0 0 C12.54 0 25.08 0 38 0 C38 45.54 38 91.08 38 138 C18.62735849 147.68632075 18.62735849 147.68632075 11.6875 151 C10.87861328 151.39316406 10.06972656 151.78632813 9.23632812 152.19140625 C8.07327148 152.74634766 8.07327148 152.74634766 6.88671875 153.3125 C6.20826904 153.63863281 5.52981934 153.96476563 4.83081055 154.30078125 C3 155 3 155 0 155 C0 103.85 0 52.7 0 0 Z " fill="#35EFB9" transform="translate(510,271)"/>
<path d="M0 0 C12.21 0 24.42 0 37 0 C37 51.15 37 102.3 37 155 C31.34294295 153.11431432 26.50227819 151.4452584 21.25 148.8984375 C20.06535156 148.32609375 18.88070313 147.75375 17.66015625 147.1640625 C16.75934326 146.72368652 16.75934326 146.72368652 15.84033203 146.27441406 C13.97842995 145.3644582 12.11263997 144.46288565 10.24609375 143.5625 C1.14853745 139.14853745 1.14853745 139.14853745 0 138 C-0.09636838 136.21572813 -0.12187453 134.42760347 -0.12025452 132.64073181 C-0.12162918 131.47820389 -0.12300385 130.31567596 -0.12442017 129.11791992 C-0.12082489 127.83111328 -0.11722961 126.54430664 -0.11352539 125.21850586 C-0.11324352 123.85876976 -0.11340125 122.4990335 -0.1139679 121.13929749 C-0.11425587 117.43698222 -0.10835912 113.73469908 -0.10139394 110.03239131 C-0.09516043 106.16731219 -0.0945566 102.30223242 -0.09336853 98.43714905 C-0.09025521 91.11315318 -0.0820418 83.78917216 -0.07201904 76.46518284 C-0.06085794 68.12916552 -0.05534746 59.79314751 -0.05032361 51.45712459 C-0.03985919 34.30473965 -0.0215137 17.15237518 0 0 Z " fill="#31EFB8" transform="translate(454,271)"/>
<path d="M0 0 C12.21 0 24.42 0 37 0 C37 50.16 37 100.32 37 152 C32.4402647 150.48008823 28.2107585 148.81229922 23.88671875 146.77734375 C23.23169876 146.47180069 22.57667877 146.16625763 21.90180969 145.85145569 C20.52877217 145.2100845 19.156482 144.56711117 17.78491211 143.92260742 C15.6782079 142.93313571 13.56879961 141.94961485 11.45898438 140.96679688 C10.12223294 140.34149394 8.78563865 139.71585494 7.44921875 139.08984375 C6.81698898 138.79504623 6.18475922 138.50024872 5.53337097 138.19651794 C1.1155429 136.1155429 1.1155429 136.1155429 0 135 C-0.09629597 133.25373476 -0.12187539 131.50354095 -0.12025452 129.75462341 C-0.12162918 128.61733795 -0.12300385 127.48005249 -0.12442017 126.30830383 C-0.12082489 125.04954941 -0.11722961 123.79079498 -0.11352539 122.49389648 C-0.11367142 121.17701843 -0.11381744 119.86014038 -0.1139679 118.50335693 C-0.11425587 114.88161732 -0.10835924 111.25991054 -0.10139394 107.63817859 C-0.0951603 103.85718116 -0.09455659 100.07618305 -0.09336853 96.29518127 C-0.09025524 89.1305571 -0.08204189 81.9659481 -0.07201904 74.80133063 C-0.06085782 66.64668838 -0.05534743 58.49204543 -0.05032361 50.33739746 C-0.03985928 33.55825467 -0.02151383 16.77913281 0 0 Z " fill="#32EFB8" transform="translate(390,244)"/>
<path d="M0 0 C12.21 0 24.42 0 37 0 C37 44.55 37 89.1 37 135 C2 152 2 152 0 152 C0 101.84 0 51.68 0 0 Z " fill="#31EFB8" transform="translate(575,244)"/>
<path d="M0 0 C12.54 0 25.08 0 38 0 C38 35.97 38 71.94 38 109 C34.7 110.32 31.4 111.64 28 113 C25.87390104 113.97780603 23.75854316 114.97968397 21.66015625 116.015625 C20.0369043 116.80839844 20.0369043 116.80839844 18.38085938 117.6171875 C16.14041558 118.71960717 13.90085233 119.82381792 11.66210938 120.9296875 C10.05239258 121.71472656 10.05239258 121.71472656 8.41015625 122.515625 C7.44215088 122.99290039 6.47414551 123.47017578 5.47680664 123.96191406 C3 125 3 125 0 125 C0 83.75 0 42.5 0 0 Z " fill="#35EFB9" transform="translate(631,244)"/>
<path d="M0 0 C12.21 0 24.42 0 37 0 C37 41.58 37 83.16 37 126 C24.62262737 120.43018232 12.28096736 114.77927876 0 109 C0 73.03 0 37.06 0 0 Z " fill="#31EFB8" transform="translate(334,244)"/>
<path d="M0 0 C5.81336054 1.76273074 8.30435236 5.46390347 11.19628906 10.57080078 C12.03965179 12.17384885 12.86517907 13.78639021 13.67382812 15.40722656 C16.088166 19.8722763 19.22721738 23.81617259 22.28222656 27.85693359 C23.39835371 29.36106121 24.50832113 30.86979108 25.61035156 32.38427734 C26.07860352 33.01970459 26.54685547 33.65513184 27.02929688 34.30981445 C28.03222656 35.91943359 28.03222656 35.91943359 28.03222656 37.91943359 C2.62222656 37.91943359 -22.78777344 37.91943359 -48.96777344 37.91943359 C-44.47339627 30.05427356 -44.47339627 30.05427356 -42.01464844 26.72021484 C-41.48339355 25.99108887 -40.95213867 25.26196289 -40.40478516 24.51074219 C-39.25270581 22.95451808 -38.09248781 21.40429457 -36.92529297 19.859375 C-33.11215519 14.75633019 -33.11215519 14.75633019 -30.28808594 9.07958984 C-25.03127695 -2.8689949 -11.35489046 -1.84955616 0 0 Z " fill="#32EFB8" transform="translate(510.9677734375,213.08056640625)"/>
<path d="M0 0 C10.02532522 0.31163969 10.02532522 0.31163969 14.00317383 4.36083984 C16.67113548 7.89175175 18.69492058 11.75228838 20.69116211 15.69238281 C23.12813461 20.14645867 26.26186056 24.0980173 29.31567383 28.14208984 C30.43170008 29.64629233 31.54165752 31.15502801 32.64379883 32.66943359 C33.11205078 33.30486084 33.58030273 33.94028809 34.06274414 34.5949707 C35.06567383 36.20458984 35.06567383 36.20458984 35.06567383 38.20458984 C9.65567383 38.20458984 -15.75432617 38.20458984 -41.93432617 38.20458984 C-37.43455009 30.32998169 -37.43455009 30.32998169 -34.98120117 26.97021484 C-34.18117676 25.86891235 -34.18117676 25.86891235 -33.36499023 24.74536133 C-32.53306152 23.61142944 -32.53306152 23.61142944 -31.68432617 22.45458984 C-31.11166016 21.66834229 -30.53899414 20.88209473 -29.94897461 20.07202148 C-28.8074991 18.50530615 -27.66463025 16.93960488 -26.52026367 15.375 C-25.12183806 13.46120633 -23.72917346 11.54348836 -22.34057617 9.62255859 C-15.48052795 0.14028179 -11.83330874 0.26003766 0 0 Z " fill="#32EFB8" transform="translate(624.934326171875,185.79541015625)"/>
<path d="M0 0 C7.9288587 2.74894126 11.18681292 10.40979929 14.69873047 17.49755859 C16.82000973 21.50128244 19.53525887 24.98886363 22.30615234 28.55957031 C26.91215706 34.62758445 26.91215706 34.62758445 28.05615234 38.05957031 C2.64615234 38.05957031 -22.76384766 38.05957031 -48.94384766 38.05957031 C-47.48098759 35.13385018 -46.08492057 32.67071668 -44.25634766 30.00488281 C-43.72895996 29.23120361 -43.20157227 28.45752441 -42.65820312 27.66040039 C-41.49551717 25.98127788 -40.3222841 24.30941892 -39.13964844 22.64428711 C-36.39357009 18.75887838 -33.82006997 15.01781708 -31.81103516 10.69628906 C-25.53630086 -1.95461143 -12.99773918 -2.41309802 0 0 Z " fill="#32EFB8" transform="translate(390.94384765625,185.9404296875)"/>
<path d="M0 0 C2.31 0 4.62 0 7 0 C6.72285156 0.88042969 6.44570312 1.76085938 6.16015625 2.66796875 C5.79792969 3.82941406 5.43570312 4.99085938 5.0625 6.1875 C4.70285156 7.33605469 4.34320312 8.48460937 3.97265625 9.66796875 C2.51359338 14.66628452 1.87497127 19.07651903 1.87465084 24.2916944 C1.87214732 25.57063248 1.8696438 26.84957056 1.86706442 28.16726434 C1.86934119 29.58720627 1.87170939 31.00714805 1.87415886 32.42708969 C1.87311591 33.94120311 1.8716348 35.45531628 1.86975449 36.9694289 C1.86584502 41.15017912 1.8681985 45.33090637 1.87153245 49.51165624 C1.8740608 54.05247862 1.87081254 58.59329739 1.86828911 63.13411927 C1.86466996 71.09925438 1.86479157 79.06438271 1.86733627 87.02951813 C1.87111009 98.87393635 1.86918951 110.71834884 1.86612797 122.56276703 C1.86085437 143.71484996 1.86132179 164.86692988 1.86420688 186.0190131 C1.86671965 204.53174158 1.86738044 223.04446896 1.86618423 241.55719757 C1.86610785 242.783851 1.86603146 244.01050442 1.86595276 245.27432916 C1.86564144 250.25340675 1.86532304 255.23248434 1.864993 260.21156192 C1.86197552 306.28282536 1.86455444 352.35408697 1.86985949 398.42535012 C1.87471476 440.63545583 1.87449159 482.84555837 1.86962891 525.05566406 C1.86427256 571.70156217 1.86215005 618.34745857 1.86524117 664.99335694 C1.8655619 669.96475108 1.86587474 674.93614523 1.86618423 679.90753937 C1.86626331 681.13167138 1.86634239 682.3558034 1.86642386 683.61703033 C1.86756219 702.1172434 1.86622944 720.61745525 1.86370468 739.11766815 C1.86084836 760.15260962 1.86155393 781.18754758 1.86698543 802.22248861 C1.8699262 814.00052827 1.87010692 825.77856037 1.86633925 837.55659984 C1.86410125 845.41882094 1.86548451 853.28103597 1.86984402 861.14325617 C1.87222839 865.62633275 1.87302452 870.10939427 1.86943804 874.59247038 C1.86620856 878.67080335 1.86757904 882.74910791 1.8726187 886.82743882 C1.87362589 888.29367475 1.87295966 889.75991303 1.87041276 891.2261471 C1.85856498 898.56778505 1.99587184 905.72237975 3 913 C2.01 913 1.02 913 0 913 C0 611.71 0 310.42 0 0 Z " fill="#FEFEFE" transform="translate(0,0)"/>
<path d="M0 0 C0 9.24 0 18.48 0 28 C-10.86711929 23.34266316 -21.47738059 18.38724531 -32 13 C-28.37965297 9.37965297 -23.17377945 8.04431562 -18.47827148 6.14941406 C-16.57018139 5.37810505 -14.66682283 4.59590435 -12.76367188 3.8125 C-11.56419922 3.32523437 -10.36472656 2.83796875 -9.12890625 2.3359375 C-7.47483765 1.66377197 -7.47483765 1.66377197 -5.78735352 0.97802734 C-3 0 -3 0 0 0 Z " fill="#35EFB9" transform="translate(310,313)"/>
<path d="M0 0 C11.25 3.375 11.25 3.375 15.7890625 5.26171875 C16.74941406 5.65810547 17.70976563 6.05449219 18.69921875 6.46289062 C19.66472656 6.86701172 20.63023437 7.27113281 21.625 7.6875 C22.62917969 8.10322266 23.63335938 8.51894531 24.66796875 8.94726562 C27.11380576 9.96054096 29.5577285 10.97816796 32 12 C28.79110719 14.60110737 25.45825833 16.3542467 21.73828125 18.13671875 C21.1470195 18.42102249 20.55575775 18.70532623 19.94657898 18.99824524 C18.70455171 19.5944015 17.46151488 20.18845854 16.2175293 20.78051758 C14.30604325 21.69057405 12.39793547 22.60743043 10.49023438 23.52539062 C1.15129083 28 1.15129083 28 0 28 C0 18.76 0 9.52 0 0 Z " fill="#33EFB8" transform="translate(692,313)"/>
<path d="M0 0 C1.65 0 3.3 0 5 0 C5 4.29 5 8.58 5 13 C3.50748294 10.01496588 2.39012279 7.38765227 1.375 4.25 C0.98441406 3.05117187 0.98441406 3.05117187 0.5859375 1.828125 C0.39257812 1.22484375 0.19921875 0.6215625 0 0 Z " fill="#F4FEFB" transform="translate(995,0)"/>
<path d="M0 0 C0.33 0 0.66 0 1 0 C1.33 2.97 1.66 5.94 2 9 C1.01 9 0.02 9 -1 9 C-0.67 6.03 -0.34 3.06 0 0 Z " fill="#EAFDF7" transform="translate(1,904)"/>
</svg>
