<?xml version="1.0" encoding="UTF-8"?>
<svg version="1.1" xmlns="http://www.w3.org/2000/svg" width="400" height="400">
<path d="M0 0 C132 0 264 0 400 0 C400 132 400 264 400 400 C268 400 136 400 0 400 C0 268 0 136 0 0 Z " fill="#FEC126" transform="translate(0,0)"/>
<path d="M0 0 C0.77399643 0.00718552 1.54799286 0.01437103 2.34544373 0.02177429 C3.5362278 0.02246162 3.5362278 0.02246162 4.75106812 0.02316284 C6.42975865 0.02618539 8.10844637 0.03407179 9.78709412 0.0464325 C12.36588906 0.06469419 14.94432524 0.06694217 17.5231781 0.06669617 C19.15143643 0.07161108 20.77969232 0.07743929 22.40794373 0.08427429 C23.57197472 0.08594353 23.57197472 0.08594353 24.75952148 0.08764648 C30.1942374 0.13619297 30.1942374 0.13619297 31.31028748 1.25224304 C31.40777951 3.22301761 31.43544934 5.19727159 31.43626404 7.17045593 C31.4400708 8.44010696 31.44387756 9.709758 31.44779968 11.0178833 C31.44799355 11.70229555 31.44818741 12.3867078 31.44838715 13.09185982 C31.45180927 15.982381 31.47320389 18.87267868 31.49361801 21.7631216 C31.53149303 27.14274027 31.56293117 32.52213409 31.56077576 37.90190125 C31.5599777 41.64464914 31.58382539 45.38659557 31.62265778 49.12913322 C31.63297214 50.54211741 31.63475193 51.95519588 31.62700653 53.36819649 C31.56242286 66.48304758 33.72446759 78.36757902 41.31028748 89.25224304 C41.48431091 89.96638367 41.65833435 90.68052429 41.83763123 91.41630554 C42.85750822 95.37781123 47.24872446 97.78583501 50.31028748 100.25224304 C51.24421326 101.04888367 51.24421326 101.04888367 52.19700623 101.86161804 C61.97474349 109.81499762 72.6642787 112.4370584 84.93528748 112.50224304 C85.88274841 112.52286804 86.83020935 112.54349304 87.80638123 112.56474304 C102.56072633 112.64547817 114.7148598 106.30476451 125.31028748 96.25224304 C129.68173884 91.01962396 132.89550598 85.6069312 135.31028748 79.25224304 C135.6428656 78.6657196 135.97544373 78.07919617 136.31809998 77.47489929 C137.62752598 74.54157882 137.94920207 71.74341339 138.37278748 68.56474304 C139.20874506 62.35378546 139.20874506 62.35378546 140.31028748 61.25224304 C142.95315021 61.13887679 145.56890204 61.08806543 148.21263123 61.08427429 C149.00553055 61.08094589 149.79842987 61.07761749 150.61535645 61.07418823 C152.29580605 61.06911578 153.97626577 61.06678 155.65672302 61.06694031 C158.23347006 61.06475518 160.80978823 61.04660696 163.38645935 61.02763367 C165.01601517 61.02469959 166.64557303 61.02271489 168.27513123 61.02177429 C169.43612587 61.01099602 169.43612587 61.01099602 170.62057495 61 C176.08146495 61.02342052 176.08146495 61.02342052 178.31028748 63.25224304 C180.36587023 75.51403317 175.39388004 90.24680595 170.31028748 101.25224304 C169.65028748 101.25224304 168.99028748 101.25224304 168.31028748 101.25224304 C168.21102966 101.79107117 168.11177185 102.32989929 168.00950623 102.88505554 C162.96811316 119.95256502 146.08746171 132.90769604 131.31028748 141.25224304 C130.03604919 141.98507507 130.03604919 141.98507507 128.73606873 142.73271179 C108.30166825 153.70986907 82.53681397 156.94985614 60.09153748 150.62724304 C58.11993521 149.91617337 56.22668119 149.1007227 54.31028748 148.25224304 C52.92583435 147.71083679 52.92583435 147.71083679 51.51341248 147.15849304 C36.01302223 141.02128269 22.63390803 131.42561303 12.31028748 118.25224304 C11.73278748 117.53810242 11.15528748 116.82396179 10.56028748 116.08818054 C6.31028748 110.67730091 6.31028748 110.67730091 6.31028748 107.25224304 C5.65028748 107.25224304 4.99028748 107.25224304 4.31028748 107.25224304 C3.22730859 104.989535 2.17020861 102.71891408 1.12278748 100.43974304 C0.83081482 99.83581726 0.53884216 99.23189148 0.23802185 98.60966492 C-0.85842595 96.19276384 -1.78046306 93.74617848 -2.68971252 91.25224304 C-3.13145813 90.08201599 -3.57320374 88.91178894 -4.02833557 87.70610046 C-9.37092074 71.8645768 -8.33574838 55.10817161 -8.14961243 38.61485291 C-8.11943243 35.34743616 -8.11598347 32.08021232 -8.11303616 28.81267452 C-8.10862198 25.66002085 -8.09335454 22.50750162 -8.07415962 19.35490608 C-8.0652917 17.85217445 -8.05855478 16.34942867 -8.05399895 14.84667778 C-8.04499393 12.76538852 -8.02265571 10.68469125 -7.99610901 8.6035614 C-7.98546921 7.42176804 -7.97482941 6.23997467 -7.96386719 5.02236938 C-7.43986317 -0.27229649 -4.67262693 0.02003983 0 0 Z " fill="#FEFEFB" transform="translate(113.68971252441406,140.7477569580078)"/>
<path d="M0 0 C4.7505237 3.46659837 7.37719984 9.35217049 8.35546875 15.08203125 C8.60840107 21.18854022 6.61841899 26.41052962 3.4375 31.5 C2.963125 31.995 2.48875 32.49 2 33 C1.34 33 0.68 33 0 33 C0 33.66 0 34.32 0 35 C-5.92750117 38.13891315 -11.24105678 40.35178864 -18 39 C-24.13792187 36.55285468 -30.13502054 32.83577336 -33.1015625 26.734375 C-35.02771359 20.87217602 -35.04657203 14.19578244 -33.125 8.328125 C-30.40552778 2.99652814 -27.14286818 -0.00778579 -22 -3 C-14.03832465 -5.46811936 -7.11588587 -4.11745816 0 0 Z " fill="#FEFDF9" transform="translate(286,141)"/>
<path d="M0 0 C1.59752849 0.00031727 3.19507824 0.01165096 4.79248047 0.03173828 C6.05341019 0.03598312 6.05341019 0.03598312 7.33981323 0.04031372 C10.02990843 0.05152648 12.71967307 0.07663275 15.40966797 0.10205078 C17.23127775 0.11207918 19.05289274 0.12120527 20.87451172 0.12939453 C25.34469155 0.15146937 29.81462368 0.18600644 34.28466797 0.22705078 C33.95466797 1.21705078 33.62466797 2.20705078 33.28466797 3.22705078 C32.19935791 3.22181396 31.11404785 3.21657715 29.99584961 3.21118164 C25.98348815 3.19313242 21.9711303 3.18161907 17.95874023 3.17211914 C16.21947629 3.16707874 14.48021661 3.16024648 12.7409668 3.15161133 C10.2464086 3.13953286 7.75190624 3.1338197 5.25732422 3.12939453 C4.08388206 3.1216526 4.08388206 3.1216526 2.88673401 3.11375427 C1.01899683 3.11355852 -0.84862407 3.16505384 -2.71533203 3.22705078 C-4.05121012 4.33709199 -4.05121012 4.33709199 -3.83558655 7.15663147 C-3.83336594 8.46901291 -3.83114532 9.78139435 -3.82885742 11.13354492 C-3.82900345 11.85545517 -3.82914948 12.57736542 -3.82929993 13.32115173 C-3.82860072 15.71820026 -3.82080798 18.11517201 -3.81298828 20.51220703 C-3.81112413 22.16987567 -3.80970021 23.82754485 -3.80870056 25.48521423 C-3.80487516 29.85659292 -3.79504468 34.22793859 -3.78399658 38.5993042 C-3.77378295 43.05659539 -3.76920304 47.5138919 -3.76416016 51.97119141 C-3.75342243 60.72315971 -3.73634574 69.47510115 -3.71533203 78.22705078 C-4.37533203 78.22705078 -5.03533203 78.22705078 -5.71533203 78.22705078 C-5.76160794 68.3524429 -5.79717702 58.47786068 -5.81895638 48.60316658 C-5.8294077 44.01828312 -5.84359138 39.43347367 -5.86621094 34.84863281 C-5.88789139 30.42662704 -5.89989049 26.00469259 -5.90508652 21.58263779 C-5.90879093 19.89288077 -5.9160244 18.2031278 -5.92679214 16.51340103 C-5.94124346 14.15240189 -5.94331267 11.79170008 -5.94238281 9.43066406 C-5.94957336 8.72719849 -5.95676392 8.02373291 -5.96417236 7.2989502 C-5.94169349 2.04803298 -5.65714218 0.34571838 0 0 Z " fill="#F2C34D" transform="translate(110.71533203125,138.77294921875)"/>
<path d="M0 0 C5.09031755 -0.04936158 10.18049643 -0.08570105 15.27099609 -0.10986328 C17.00344265 -0.11993376 18.73587216 -0.13359089 20.46826172 -0.15087891 C22.95544639 -0.17508162 25.44240675 -0.18647239 27.9296875 -0.1953125 C28.70682098 -0.20563507 29.48395447 -0.21595764 30.28463745 -0.22659302 C32.19125493 -0.22699271 34.09731036 -0.1223214 36 0 C38 2 38 2 38.265625 4.28515625 C38.23066427 10.49942581 37.5774921 15.98581139 36 22 C35.67 22 35.34 22 35 22 C35.00523682 21.42967041 35.01047363 20.85934082 35.01586914 20.27172852 C35.03658221 17.70199677 35.0496419 15.13228253 35.0625 12.5625 C35.07506836 11.21575195 35.07506836 11.21575195 35.08789062 9.84179688 C35.09111328 8.98779297 35.09433594 8.13378906 35.09765625 7.25390625 C35.10289307 6.46314697 35.10812988 5.6723877 35.11352539 4.85766602 C35.20495909 2.98407311 35.20495909 2.98407311 34 2 C31.74398021 1.89974086 29.4848081 1.8691862 27.2265625 1.8671875 C26.54701508 1.86623077 25.86746765 1.86527405 25.16732788 1.86428833 C23.72645984 1.86360652 22.28558874 1.86546086 20.84472656 1.86962891 C18.64120541 1.87496079 16.43788963 1.86969255 14.234375 1.86328125 C12.83593705 1.86394236 11.43749923 1.86522419 10.0390625 1.8671875 C8.76240723 1.86831543 7.48575195 1.86944336 6.17041016 1.87060547 C2.97509532 1.85425815 2.97509532 1.85425815 0 3 C0.061875 4.918125 0.061875 4.918125 0.125 6.875 C0.1953125 9.0546875 0.1953125 9.0546875 0 11 C-0.66 11.66 -1.32 12.32 -2 13 C-2.17286691 7.90042617 -1.98289571 4.73767989 0 0 Z " fill="#FEF4C7" transform="translate(254,202)"/>
<path d="M0 0 C1.39066535 2.78133069 1.07662585 4.99120191 1.02172852 8.10205078 C1.00163223 9.38322784 0.98153595 10.66440491 0.96083069 11.98440552 C0.93363222 13.38804331 0.90632141 14.79167893 0.87890625 16.1953125 C0.85460772 17.6273423 0.83076403 19.05937989 0.80735779 20.49142456 C0.74449015 24.26280577 0.67543117 28.03404938 0.60510254 31.80529785 C0.53444323 35.65268684 0.4696119 39.50017348 0.40429688 43.34765625 C0.27525002 50.8985455 0.13966532 58.44929891 0 66 C0.66 66 1.32 66 2 66 C2 70.62 2 75.24 2 80 C-0.76624726 74.46750547 -1.12541666 70.16942821 -1.12939453 64.02246094 C-1.13114685 63.34058716 -1.13289917 62.65871338 -1.13470459 61.95617676 C-1.13908537 59.71554985 -1.13619978 57.47500262 -1.1328125 55.234375 C-1.13348631 53.67449936 -1.13445698 52.11462382 -1.13571167 50.55474854 C-1.13718326 47.29332474 -1.13505024 44.03192841 -1.13037109 40.77050781 C-1.12465515 36.58154 -1.12796795 32.39263601 -1.13394356 28.2036705 C-1.13754759 24.98675043 -1.13641165 21.76984563 -1.13381577 18.55292511 C-1.13314704 17.00748945 -1.13397304 15.46205241 -1.13629532 13.91661835 C-1.1388213 11.76436145 -1.13498295 9.61220994 -1.12939453 7.45996094 C-1.12859894 6.23372009 -1.12780334 5.00747925 -1.12698364 3.74407959 C-1 1 -1 1 0 0 Z " fill="#FEF0BD" transform="translate(107,142)"/>
<path d="M0 0 C1.58323688 -0.027193 3.16661062 -0.04648306 4.75 -0.0625 C6.07257813 -0.07990234 6.07257813 -0.07990234 7.421875 -0.09765625 C9.7818838 -0.00826198 11.74498524 0.33087179 14 1 C14 1.66 14 2.32 14 3 C26.54 3 39.08 3 52 3 C39.5205503 9.23972485 18.34829245 7.13816561 5.359375 3.19921875 C3.54768838 2.53092176 1.76748951 1.77769538 0 1 C0 0.67 0 0.34 0 0 Z " fill="#FEEFBA" transform="translate(168,288)"/>
<path d="M0 0 C1.29422379 0.00212242 1.29422379 0.00212242 2.61459351 0.00428772 C5.3759098 0.00989437 8.13714562 0.02244798 10.8984375 0.03515625 C12.768228 0.04017039 14.63801976 0.04473345 16.5078125 0.04882812 C21.09638527 0.05986596 25.68489773 0.07713505 30.2734375 0.09765625 C30.7684375 2.07765625 30.7684375 2.07765625 31.2734375 4.09765625 C30.6134375 3.76765625 29.9534375 3.43765625 29.2734375 3.09765625 C26.57450569 3.01090087 23.90174519 2.98207728 21.203125 3 C20.40689728 3.00141495 19.61066956 3.0028299 18.79031372 3.00428772 C16.2429837 3.0098928 13.69574103 3.02244611 11.1484375 3.03515625 C9.42317835 3.0401706 7.69791783 3.04473362 5.97265625 3.04882812 C1.73954959 3.05986388 -2.49349164 3.07713189 -6.7265625 3.09765625 C-6.84773437 4.02449219 -6.96890625 4.95132813 -7.09375 5.90625 C-7.26132813 7.10378906 -7.42890625 8.30132812 -7.6015625 9.53515625 C-7.84519531 11.32759766 -7.84519531 11.32759766 -8.09375 13.15625 C-8.40699219 14.61224609 -8.40699219 14.61224609 -8.7265625 16.09765625 C-9.3865625 16.42765625 -10.0465625 16.75765625 -10.7265625 17.09765625 C-10.7265625 11.81765625 -10.7265625 6.53765625 -10.7265625 1.09765625 C-7.39500999 -0.56812 -3.66120191 -0.02242231 0 0 Z " fill="#F2C74F" transform="translate(260.7265625,199.90234375)"/>
<path d="M0 0 C1.65 0 3.3 0 5 0 C-3.83442525 7.13549732 -13.1030908 8.3391613 -24.0625 8.25 C-25.01705078 8.25773438 -25.97160156 8.26546875 -26.95507812 8.2734375 C-32.36269566 8.25850964 -36.88891341 7.7863992 -42 6 C-42 5.67 -42 5.34 -42 5 C-38.7 4.67 -35.4 4.34 -32 4 C-31.67 4.99 -31.34 5.98 -31 7 C-17.71596214 6.5714185 -17.71596214 6.5714185 -5 3 C-3.34160126 2.62770641 -1.67798725 2.2706431 0 2 C0 1.34 0 0.68 0 0 Z " fill="#F5C346" transform="translate(223,246)"/>
<path d="M0 0 C1.29441197 3.59094935 0.71538408 5.63082775 -0.6875 9.125 C-1.02136719 9.99382812 -1.35523438 10.86265625 -1.69921875 11.7578125 C-3.22030453 14.37974414 -4.36163455 14.68871657 -7 16 C-8.05282924 18.06350389 -8.05282924 18.06350389 -8.625 20.4375 C-9.48796373 23.51878815 -10.18021269 25.27031903 -12 28 C-12.99 28.33 -13.98 28.66 -15 29 C-14.67 29.66 -14.34 30.32 -14 31 C-15.98 31.33 -17.96 31.66 -20 32 C-19.195625 31.13375 -18.39125 30.2675 -17.5625 29.375 C-14.4161369 25.71678836 -11.7930099 21.79977234 -9.1875 17.75 C-8.59207397 16.82840088 -8.59207397 16.82840088 -7.98461914 15.88818359 C-6.32727808 13.27728912 -4.98203719 10.94611156 -4 8 C-3.34 8 -2.68 8 -2 8 C-1.7834375 6.576875 -1.7834375 6.576875 -1.5625 5.125 C-1 2 -1 2 0 0 Z " fill="#F4C647" transform="translate(286,234)"/>
<path d="M0 0 C0.33 0 0.66 0 1 0 C2.67491566 11.30568069 2.55845093 19.73824444 -3 30 C-3.66 30 -4.32 30 -5 30 C-4.05169316 25.16767048 -3.09111397 20.35043167 -1.9375 15.5625 C-0.76858878 10.42665386 -0.37254901 5.24509792 0 0 Z " fill="#F6C244" transform="translate(292,204)"/>
<path d="M0 0 C0.82757813 0.3609375 1.65515625 0.721875 2.5078125 1.09375 C15.89574281 6.29856092 29.90160347 6.36264337 44 4 C40.47449281 7.33691565 37.8008574 7.35340073 33.046875 7.29296875 C32.05654266 7.28660149 32.05654266 7.28660149 31.04620361 7.28010559 C28.94704609 7.26337435 26.84886504 7.22573551 24.75 7.1875 C23.32293058 7.17244584 21.89584604 7.15875871 20.46875 7.14648438 C16.97885183 7.11349001 13.4895213 7.06174743 10 7 C10 6.34 10 5.68 10 5 C8.02 5 6.04 5 4 5 C4 4.34 4 3.68 4 3 C2.68 2.67 1.36 2.34 0 2 C0 1.34 0 0.68 0 0 Z " fill="#FDEFC0" transform="translate(173,248)"/>
<path d="M0 0 C4 4.75 4 4.75 4 7 C4.99 7 5.98 7 7 7 C7 7.66 7 8.32 7 9 C8.65 8.67 10.3 8.34 12 8 C11.773125 8.5775 11.54625 9.155 11.3125 9.75 C10.73494807 12.12172477 10.73494807 12.12172477 12.4375 14.25 C12.953125 14.8275 13.46875 15.405 14 16 C10.39313465 14.43982103 7.78799396 12.24234682 4.875 9.625 C3.57175781 8.46871094 3.57175781 8.46871094 2.2421875 7.2890625 C0.21663312 5.22116203 -0.92192633 3.65278801 -2 1 C-1.34 0.67 -0.68 0.34 0 0 Z " fill="#FDF5CB" transform="translate(130,259)"/>
<path d="M0 0 C0.99 1.485 0.99 1.485 2 3 C-0.475 2.505 -0.475 2.505 -3 2 C-3 1.34 -3 0.68 -3 0 C-4.65 0 -6.3 0 -8 0 C-8 -0.66 -8 -1.32 -8 -2 C-12.95 -1.67 -17.9 -1.34 -23 -1 C-22 -3 -22 -3 -20.19921875 -3.60546875 C-12.77891463 -4.93664231 -6.45582023 -4.0809519 0 0 Z " fill="#FDE7A6" transform="translate(286,141)"/>
<path d="M0 0 C1.32 0.99 2.64 1.98 4 3 C3.67 4.32 3.34 5.64 3 7 C2.34 7 1.68 7 1 7 C-1.29126316 8.52603434 -3.49547063 10.15134205 -5.7109375 11.78515625 C-8 13 -8 13 -10.2890625 12.68359375 C-10.85367187 12.45800781 -11.41828125 12.23242188 -12 12 C-10.02 11.34 -8.04 10.68 -6 10 C-6 9.34 -6 8.68 -6 8 C-4.33333333 6.33333333 -2.66666667 4.66666667 -1 3 C-0.67 2.01 -0.34 1.02 0 0 Z " fill="#F9C43D" transform="translate(292,166)"/>
<path d="M0 0 C1.0625 1.875 1.0625 1.875 2 4 C1.67 4.66 1.34 5.32 1 6 C0.58229929 12.94548862 0.55932417 19.4406837 3 26 C1.68 25.67 0.36 25.34 -1 25 C-1.22519106 21.20913543 -1.42729249 17.41738942 -1.625 13.625 C-1.68945312 12.54476562 -1.75390625 11.46453125 -1.8203125 10.3515625 C-1.871875 9.3203125 -1.9234375 8.2890625 -1.9765625 7.2265625 C-2.02893066 6.27346191 -2.08129883 5.32036133 -2.13525391 4.33837891 C-2 2 -2 2 0 0 Z " fill="#F5CA49" transform="translate(252,146)"/>
<path d="M0 0 C2.60881235 2.40813448 4.70271882 4.93176282 6.75 7.8125 C9.96371486 12.20457697 13.79124661 15.58172313 18 19 C16 20 16 20 13.5625 19.375 C10.44022792 17.69963449 9.65336299 16.08126739 8 13 C7.443125 12.443125 6.88625 11.88625 6.3125 11.3125 C5.879375 10.879375 5.44625 10.44625 5 10 C5 9.34 5 8.68 5 8 C4.01 7.67 3.02 7.34 2 7 C2 6.01 2 5.02 2 4 C1.34 4 0.68 4 0 4 C0 2.68 0 1.36 0 0 Z " fill="#F1C74F" transform="translate(122,253)"/>
<path d="M0 0 C0.33 0.99 0.66 1.98 1 3 C-2.61787342 8.78859748 -6.50207042 10.38613514 -13 12 C-8.87675353 7.74790208 -4.48717034 3.86364295 0 0 Z " fill="#F4C742" transform="translate(265,266)"/>
<path d="M0 0 C0.99 0 1.98 0 3 0 C1.57913611 3.42197585 -0.06970764 5.09910023 -3.0625 7.25 C-4.13177734 8.03117188 -4.13177734 8.03117188 -5.22265625 8.828125 C-7 10 -7 10 -8 10 C-8 8.35 -8 6.7 -8 5 C-5.50907189 3.75453595 -4.58919267 4.2232422 -2 5 C-1.855625 4.360625 -1.71125 3.72125 -1.5625 3.0625 C-1 1 -1 1 0 0 Z " fill="#F8C033" transform="translate(237,235)"/>
<path d="M0 0 C0.66 0 1.32 0 2 0 C2 0.66 2 1.32 2 2 C2.66 2 3.32 2 4 2 C4 3.65 4 5.3 4 7 C4.66 7 5.32 7 6 7 C6 11.95 6 16.9 6 22 C5.34 22 4.68 22 4 22 C4.04640625 21.24976563 4.0928125 20.49953125 4.140625 19.7265625 C4.40531095 12.22082516 3.33352047 6.72656808 0 0 Z " fill="#F1C448" transform="translate(289,144)"/>
<path d="M0 0 C1.32 0.33 2.64 0.66 4 1 C0.18504423 4.39717963 -3.48954059 7.53974941 -8 10 C-8.33 9.01 -8.66 8.02 -9 7 C-4.375 4 -4.375 4 -1 4 C-0.67 2.68 -0.34 1.36 0 0 Z " fill="#FEF8D6" transform="translate(259,268)"/>
<path d="M0 0 C0.99 0.495 0.99 0.495 2 1 C5.86061033 2.28687011 8.94150283 2.13757618 13 2 C12.34 3.65 11.68 5.3 11 7 C6.00724943 5.72278474 3.42388092 3.82669043 0 0 Z " fill="#F5C63E" transform="translate(165,242)"/>
<path d="M0 0 C2.125 0.9375 2.125 0.9375 4 2 C3.01 2.495 3.01 2.495 2 3 C1.58344201 5.1522163 1.26491552 7.32390825 1 9.5 C0.73508448 11.67609175 0.41655799 13.8477837 0 16 C-0.66 16.33 -1.32 16.66 -2 17 C-2 11.72 -2 6.44 -2 1 C-1.34 0.67 -0.68 0.34 0 0 Z " fill="#F4C442" transform="translate(252,200)"/>
<path d="M0 0 C1.48039971 0.64300189 2.95928782 1.28948499 4.4375 1.9375 C5.26121094 2.29714844 6.08492187 2.65679687 6.93359375 3.02734375 C9 4 9 4 10 5 C10.04063832 6.66617115 10.042721 8.33388095 10 10 C6.01978119 7.83930979 3.02749676 5.37349639 0 2 C0 1.34 0 0.68 0 0 Z " fill="#F6C74C" transform="translate(155,232)"/>
<path d="M0 0 C0.33 0.99 0.66 1.98 1 3 C0.67 3.66 0.34 4.32 0 5 C-0.94875 5.309375 -1.8975 5.61875 -2.875 5.9375 C-5.84689902 6.94794567 -7.06088831 7.62997461 -9 10 C-9.99 9.34 -10.98 8.68 -12 8 C-8 5.33333333 -4 2.66666667 0 0 Z " fill="#FEF3C9" transform="translate(236,240)"/>
<path d="M0 0 C2.08432499 3.12648749 3.28558611 6.05730868 4.625 9.5625 C5.07101563 10.71878906 5.51703125 11.87507812 5.9765625 13.06640625 C7 16 7 16 7 18 C6.34 18 5.68 18 5 18 C1.81736352 11.92405763 -0.33055613 6.94167866 0 0 Z " fill="#EFC953" transform="translate(109,226)"/>
<path d="M0 0 C1.25009054 2.50018108 0.86733449 3.33935278 0.1875 6 C0.01605469 6.70125 -0.15539062 7.4025 -0.33203125 8.125 C-1 10 -1 10 -3 12 C-3.58052245 8.99011728 -4.05989746 6.07110598 -4 3 C-2.0625 0.9375 -2.0625 0.9375 0 0 Z " fill="#FEF7D7" transform="translate(288,224)"/>
<path d="M0 0 C0.87564408 2.98950363 1.08219138 5.57963862 1 8.6875 C0.96236969 10.12450738 0.95337141 11.56325645 1 13 C1.33 13.33 1.66 13.66 2 14 C2.04080783 15.99958364 2.04254356 18.00045254 2 20 C-0.63213592 17.36786408 -0.97317657 15.61930576 -1.1328125 11.93359375 C-1.13023437 10.77988281 -1.12765625 9.62617188 -1.125 8.4375 C-1.12757813 7.28121094 -1.13015625 6.12492188 -1.1328125 4.93359375 C-1 2 -1 2 0 0 Z " fill="#FEF3C9" transform="translate(253,150)"/>
<path d="M0 0 C0.66 0.33 1.32 0.66 2 1 C1.01 2.485 1.01 2.485 0 4 C-0.66 4 -1.32 4 -2 4 C-2 4.66 -2 5.32 -2 6 C-3.96466413 7.06775224 -5.96855359 8.06553465 -8 9 C-8.66 8.67 -9.32 8.34 -10 8 C-6.25 5 -6.25 5 -4 5 C-3.67 4.01 -3.34 3.02 -3 2 C-2.01 1.34 -1.02 0.68 0 0 Z " fill="#FFF8CD" transform="translate(288,170)"/>
<path d="M0 0 C0 0.33 0 0.66 0 1 C-1.21236328 1.16435547 -1.21236328 1.16435547 -2.44921875 1.33203125 C-4.05216797 1.56986328 -4.05216797 1.56986328 -5.6875 1.8125 C-6.74324219 1.96332031 -7.79898437 2.11414063 -8.88671875 2.26953125 C-12.10193753 3.02391759 -14.28100323 4.15874987 -17 6 C-17 4.68 -17 3.36 -17 2 C-11.16200408 0.30167391 -6.06892629 -0.25287193 0 0 Z " fill="#F2C133" transform="translate(276,136)"/>
<path d="M0 0 C0.66 0.33 1.32 0.66 2 1 C0.6875 3 0.6875 3 -1 5 C-1.99 5 -2.98 5 -4 5 C-4.33 6.65 -4.66 8.3 -5 10 C-5.66 10 -6.32 10 -7 10 C-5.76075855 5.04303419 -4.21422242 2.88341534 0 0 Z " fill="#FCF1C3" transform="translate(261,140)"/>
<path d="M0 0 C3.95371299 0.56481614 6.71675094 1.71996593 10 4 C10.33 4.66 10.66 5.32 11 6 C9.35 5.67 7.7 5.34 6 5 C6 4.34 6 3.68 6 3 C4.35 3 2.7 3 1 3 C0.67 2.01 0.34 1.02 0 0 Z " fill="#FEEEBB" transform="translate(277,138)"/>
<path d="M0 0 C1.58323688 -0.027193 3.16661062 -0.04648306 4.75 -0.0625 C6.07257813 -0.07990234 6.07257813 -0.07990234 7.421875 -0.09765625 C9.7818838 -0.00826198 11.74498524 0.33087179 14 1 C14 1.66 14 2.32 14 3 C8.80790596 3.21192221 4.873261 2.5912689 0 1 C0 0.67 0 0.34 0 0 Z " fill="#FEF6D5" transform="translate(168,288)"/>
<path d="M0 0 C0 0.66 0 1.32 0 2 C-0.66 2 -1.32 2 -2 2 C-2.66 3.32 -3.32 4.64 -4 6 C-6.97 5.505 -6.97 5.505 -10 5 C-2.5 0 -2.5 0 0 0 Z " fill="#F4C851" transform="translate(247,281)"/>
<path d="M0 0 C1.57554035 2.88628401 2.46276373 5.53342384 3.125 8.75 C3.29257813 9.54921875 3.46015625 10.3484375 3.6328125 11.171875 C3.81457031 12.07679688 3.81457031 12.07679688 4 13 C2 11.5625 2 11.5625 0 9 C-0.35442445 5.97175582 -0.23347235 3.03514061 0 0 Z " fill="#FEF2C6" transform="translate(145,208)"/>
<path d="M0 0 C-0.226875 0.5775 -0.45375 1.155 -0.6875 1.75 C-1.26505193 4.12172477 -1.26505193 4.12172477 0.4375 6.25 C0.953125 6.8275 1.46875 7.405 2 8 C-1.82946843 6.54744301 -3.12050295 4.57104439 -5 1 C-2 0 -2 0 0 0 Z " fill="#FEFADD" transform="translate(142,267)"/>
<path d="M0 0 C1.65 0 3.3 0 5 0 C5.33 0.99 5.66 1.98 6 3 C4.02 3.99 4.02 3.99 2 5 C1.34 3.35 0.68 1.7 0 0 Z " fill="#F6C430" transform="translate(151,224)"/>
<path d="M0 0 C0.45375 0.495 0.9075 0.99 1.375 1.5 C2.87635519 3.22609337 2.87635519 3.22609337 5 3 C4.67 5.31 4.34 7.62 4 10 C1.04816899 7.04816899 0.91336012 4.04488053 0 0 Z " fill="#F4C443" transform="translate(147,214)"/>
<path d="M0 0 C0.33 0.99 0.66 1.98 1 3 C-3.43076923 6.07692308 -3.43076923 6.07692308 -6.3125 5.6875 C-6.869375 5.460625 -7.42625 5.23375 -8 5 C-6.02 4.34 -4.04 3.68 -2 3 C-2 2.34 -2 1.68 -2 1 C-1.34 0.67 -0.68 0.34 0 0 Z " fill="#EFC858" transform="translate(288,173)"/>
<path d="M0 0 C0.33 0.99 0.66 1.98 1 3 C-0.96466413 4.06775224 -2.96855359 5.06553465 -5 6 C-5.66 5.67 -6.32 5.34 -7 5 C-4.69 3.35 -2.38 1.7 0 0 Z " fill="#F1C65C" transform="translate(259,272)"/>
<path d="M0 0 C4.33168317 -0.26252625 7.8803623 0.70756464 12 2 C12 2.33 12 2.66 12 3 C9.36 3.33 6.72 3.66 4 4 C3.67 3.34 3.34 2.68 3 2 C2.01 1.34 1.02 0.68 0 0 Z " fill="#F6C245" transform="translate(170,290)"/>
<path d="M0 0 C0.99 0 1.98 0 3 0 C1.63016497 3.16115776 1.0109362 3.9927092 -2 6 C-1.125 1.125 -1.125 1.125 0 0 Z " fill="#F3C54B" transform="translate(237,235)"/>
<path d="M0 0 C0.33 1.32 0.66 2.64 1 4 C0.34 4 -0.32 4 -1 4 C-1.33 5.32 -1.66 6.64 -2 8 C-2.66 8 -3.32 8 -4 8 C-2.87548273 5.0280615 -1.77706209 2.66559313 0 0 Z " fill="#FEF3C5" transform="translate(248,224)"/>
<path d="M0 0 C0.66 1.32 1.32 2.64 2 4 C1.01 5.32 0.02 6.64 -1 8 C-1.625 5.125 -1.625 5.125 -2 2 C-1.34 1.34 -0.68 0.68 0 0 Z " fill="#F3C736" transform="translate(252,146)"/>
</svg>
