<?xml version="1.0" encoding="UTF-8"?>
<svg version="1.1" xmlns="http://www.w3.org/2000/svg" width="1500" height="1500">
<path d="M0 0 C4.32653638 0.00770283 8.65304179 -0.00220583 12.97957361 -0.00973 C20.54097769 -0.02050232 28.10231736 -0.0202753 35.6637243 -0.01258852 C46.90825089 -0.00118889 58.15272366 -0.00706924 69.39724994 -0.01621344 C89.48596176 -0.03197302 109.57464488 -0.03065652 129.6633594 -0.0219767 C147.24374534 -0.01441832 164.82412077 -0.01246538 182.40450799 -0.01604463 C183.57243849 -0.01627379 184.74036898 -0.01650294 185.94369131 -0.01673904 C190.68516997 -0.01767312 195.42664862 -0.01862833 200.16812727 -0.01961833 C244.61116449 -0.02878724 289.05418348 -0.0204878 333.49721789 -0.00432764 C372.94817658 0.00990827 412.39910621 0.00863435 451.85006464 -0.00571062 C496.21386159 -0.0217882 540.57764243 -0.02813688 584.94144189 -0.01887383 C589.67408502 -0.01791173 594.40672815 -0.01697321 599.13937128 -0.01604463 C600.30459634 -0.0158074 601.46982141 -0.01557017 602.67035633 -0.01532575 C620.23604153 -0.01191898 637.80171505 -0.01589361 655.36739862 -0.02348329 C675.34822977 -0.03207366 695.32902782 -0.02988974 715.30985487 -0.01364106 C726.48073937 -0.00485544 737.65155216 -0.00422347 748.82243475 -0.01557958 C756.29717949 -0.02233774 763.77186708 -0.01806441 771.2466034 -0.00506528 C775.4966033 0.00202674 779.74646139 0.00460478 783.9964565 -0.00628323 C806.25815849 -0.05915388 828.02400535 0.84352132 849.77193964 6.07290266 C851.38093133 6.45418318 851.38093133 6.45418318 853.02242792 6.84316633 C884.66609003 14.61794756 914.8564769 28.58456316 940.77193964 48.38540266 C941.61498651 49.01647932 941.61498651 49.01647932 942.47506464 49.66030501 C952.18545977 56.93490001 961.03839449 64.97452544 969.77193964 73.38540266 C970.56600214 74.13821516 971.36006464 74.89102766 972.17818964 75.66665266 C977.01650517 80.35137088 981.28903465 85.42978466 985.45455682 90.71743391 C986.3794304 91.88843767 987.31031102 93.05470997 988.24557245 94.21743391 C1027.01740475 142.4947747 1042.31382817 199.53119062 1042.1573423 260.61346303 C1042.14963946 264.93999941 1042.15954813 269.26650481 1042.1670723 273.59303663 C1042.17784462 281.15444071 1042.1776176 288.71578039 1042.16993082 296.27718733 C1042.15853119 307.52171391 1042.16441154 318.76618668 1042.17355574 330.01071296 C1042.18931532 350.09942479 1042.18799882 370.18810791 1042.179319 390.27682243 C1042.17176062 407.85720836 1042.16980768 425.4375838 1042.17338693 443.01797102 C1042.17361609 444.18590152 1042.17384524 445.35383201 1042.17408134 446.55715434 C1042.17501542 451.298633 1042.17597062 456.04011165 1042.17696063 460.7815903 C1042.18612953 505.22462752 1042.1778301 549.66764651 1042.16166994 594.11068092 C1042.14743403 633.5616396 1042.14870795 673.01256923 1042.16305292 712.46352766 C1042.1791305 756.82732461 1042.18547918 801.19110546 1042.17621613 845.55490492 C1042.17525403 850.28754804 1042.17431551 855.02019117 1042.17338693 859.7528343 C1042.17303108 861.50067191 1042.17303108 861.50067191 1042.17266805 863.28381936 C1042.16926128 880.84950455 1042.17323591 898.41517807 1042.18082559 915.98086165 C1042.18941596 935.96169279 1042.18723204 955.94249085 1042.17098336 975.92331789 C1042.16219774 987.0942024 1042.16156577 998.26501519 1042.17292188 1009.43589778 C1042.17968004 1016.91064252 1042.17540671 1024.38533011 1042.16240758 1031.86006643 C1042.15531556 1036.11006633 1042.15273752 1040.35992441 1042.16362552 1044.60991953 C1042.21649618 1066.87162152 1041.31382098 1088.63746837 1036.08443964 1110.38540266 C1035.83025262 1111.4580638 1035.57606561 1112.53072493 1035.31417596 1113.63589094 C1027.53939474 1145.27955306 1013.57277914 1175.46993993 993.77193964 1201.38540266 C993.35122186 1201.94743391 992.93050409 1202.50946516 992.49703729 1203.08852766 C985.22244228 1212.7989228 977.18281686 1221.65185751 968.77193964 1230.38540266 C968.01912714 1231.17946516 967.26631464 1231.97352766 966.49068964 1232.79165266 C961.80597142 1237.6299682 956.72755764 1241.90249768 951.43990839 1246.06801985 C950.26890463 1246.99289342 949.10263233 1247.92377405 947.93990839 1248.85903548 C899.6625676 1287.63086778 842.62615168 1302.9272912 781.54387927 1302.77080533 C777.21734289 1302.76310249 772.89083748 1302.77301115 768.56430566 1302.78053532 C761.00290158 1302.79130765 753.44156191 1302.79108063 745.88015497 1302.78339384 C734.63562838 1302.77199422 723.39115561 1302.77787456 712.14662933 1302.78701876 C692.05791751 1302.80277835 671.96923439 1302.80146185 651.88051987 1302.79278203 C634.30013393 1302.78522365 616.7197585 1302.78327071 599.13937128 1302.78684996 C597.97144078 1302.78707911 596.80351029 1302.78730827 595.60018796 1302.78754437 C590.8587093 1302.78847844 586.11723065 1302.78943365 581.375752 1302.79042366 C536.93271478 1302.79959256 492.48969579 1302.79129313 448.04666138 1302.77513297 C408.59570269 1302.76089706 369.14477307 1302.76217098 329.69381464 1302.77651594 C285.33001768 1302.79259352 240.96623684 1302.7989422 196.60243738 1302.78967915 C191.86979425 1302.78871706 187.13715113 1302.78777853 182.40450799 1302.78684996 C181.23928293 1302.78661273 180.07405786 1302.78637549 178.87352294 1302.78613107 C161.30783775 1302.78272431 143.74216422 1302.78669894 126.17648065 1302.79428862 C106.1956495 1302.80287899 86.21485145 1302.80069507 66.23402441 1302.78444639 C55.0631399 1302.77566077 43.89232711 1302.7750288 32.72144452 1302.78638491 C25.24669978 1302.79314306 17.77201219 1302.78886974 10.29727587 1302.7758706 C6.04727597 1302.76877859 1.79741789 1302.76620054 -2.45257723 1302.77708855 C-24.71427922 1302.82995921 -46.48012608 1301.927284 -68.22806036 1296.69790266 C-69.3007215 1296.44371565 -70.37338263 1296.18952864 -71.47854865 1295.92763899 C-103.12221076 1288.15285776 -133.31259763 1274.18624216 -159.22806036 1254.38540266 C-159.79009161 1253.96468489 -160.35212286 1253.54396712 -160.93118536 1253.11050032 C-170.6415805 1245.83590531 -179.49451522 1237.79627989 -188.22806036 1229.38540266 C-189.02212286 1228.63259016 -189.81618536 1227.87977766 -190.63431036 1227.10415266 C-195.4726259 1222.41943444 -199.74515538 1217.34102066 -203.91067755 1212.05337141 C-204.83555112 1210.88236766 -205.76643175 1209.71609536 -206.70169318 1208.55337141 C-245.47352548 1160.27603062 -260.7699489 1103.2396147 -260.61346303 1042.1573423 C-260.60576019 1037.83080591 -260.61566886 1033.50430051 -260.62319303 1029.17776869 C-260.63396535 1021.61636461 -260.63373833 1014.05502494 -260.62605155 1006.49361799 C-260.61465192 995.24909141 -260.62053226 984.00461864 -260.62967647 972.76009236 C-260.64543605 952.67138054 -260.64411955 932.58269742 -260.63543973 912.49398289 C-260.62788135 894.91359696 -260.62592841 877.33322153 -260.62950766 859.7528343 C-260.62973682 858.58490381 -260.62996597 857.41697331 -260.63020207 856.21365098 C-260.63113615 851.47217233 -260.63209135 846.73069368 -260.63308136 841.98921503 C-260.64225026 797.5461778 -260.63395083 753.10315881 -260.61779067 708.6601244 C-260.60355476 669.20916572 -260.60482868 629.75823609 -260.61917365 590.30727766 C-260.63525123 545.94348071 -260.64159991 501.57969986 -260.63233685 457.2159004 C-260.63137476 452.48325728 -260.63043624 447.75061415 -260.62950766 443.01797102 C-260.62927043 441.85274595 -260.6290332 440.68752088 -260.62878878 439.48698596 C-260.62538201 421.92130077 -260.62935664 404.35562725 -260.63694632 386.78994368 C-260.64553669 366.80911253 -260.64335277 346.82831447 -260.62710409 326.84748743 C-260.61831847 315.67660292 -260.6176865 304.50579014 -260.62904261 293.33490754 C-260.63580076 285.8601628 -260.63152744 278.38547521 -260.61852831 270.9107389 C-260.61143629 266.660739 -260.60885825 262.41088091 -260.61974625 258.16088579 C-260.67261691 235.89918381 -259.7699417 214.13333695 -254.54056036 192.38540266 C-254.28637335 191.31274153 -254.03218634 190.2400804 -253.77029669 189.13491438 C-245.99551547 157.49125226 -232.02889987 127.3008654 -212.22806036 101.38540266 C-211.80734259 100.82337141 -211.38662482 100.26134016 -210.95315802 99.68227766 C-203.67856301 89.97188252 -195.63893759 81.11894781 -187.22806036 72.38540266 C-186.47524786 71.59134016 -185.72243536 70.79727766 -184.94681036 69.97915266 C-180.26209215 65.14083713 -175.18367836 60.86830765 -169.89602911 56.70278548 C-168.72502536 55.7779119 -167.55875306 54.84703128 -166.39602911 53.91176985 C-118.11868833 15.13993754 -61.08227241 -0.15648587 0 0 Z " fill="#474848" transform="translate(359.2280603647232,98.61459733732045)"/>
<path d="M0 0 C6.27 0.33 12.54 0.66 19 1 C22.08988281 1.16048828 22.08988281 1.16048828 25.2421875 1.32421875 C43.6691022 2.44124568 61.73415956 5.42559224 79.89147949 8.6282959 C81.84545824 8.97275634 83.80014207 9.31321067 85.75488281 9.65332031 C158.86801117 22.49948167 231.11771671 52.65066323 292 95 C293.0194873 95.70503662 293.0194873 95.70503662 294.05957031 96.42431641 C324.02875883 117.18935802 351.728131 140.72990323 377.5625 166.4375 C378.20501709 167.07534424 378.84753418 167.71318848 379.50952148 168.37036133 C383.29146399 172.16514575 386.87532349 176.08141435 390.37670898 180.13598633 C392.60361025 182.69312141 394.92841773 185.15386795 397.25 187.625 C402.21309933 192.98157337 406.73941753 198.60575859 411.1953125 204.38671875 C413.05147307 206.79427201 414.93976609 209.16865132 416.8671875 211.51953125 C466.02375234 271.55420106 500.65904231 344.82877362 519 420 C519.30325195 421.22589844 519.60650391 422.45179688 519.91894531 423.71484375 C526.21654171 449.27451246 530.41487541 474.81054985 533 501 C533.15879639 502.54131592 533.15879639 502.54131592 533.32080078 504.11376953 C537.55393625 546.82751524 537.66411676 592.53649642 529.38696289 634.79443359 C528.87588479 637.70741752 528.48706159 640.63238985 528.0859375 643.5625 C527.04432708 650.97333428 525.67210242 658.29142754 524.1875 665.625 C523.99099854 666.59912338 523.99099854 666.59912338 523.79052734 667.59292603 C520.18595805 685.41173514 515.74633707 702.75524245 510 720 C509.62101562 721.15016602 509.24203125 722.30033203 508.8515625 723.48535156 C493.38108342 770.35388243 472.93690281 814.5852766 446 856 C445.31679687 857.05960938 444.63359375 858.11921875 443.9296875 859.2109375 C434.68762341 873.32538685 424.58197324 886.86705245 414 900 C412.88044922 901.39412109 412.88044922 901.39412109 411.73828125 902.81640625 C409.51242498 905.56176218 407.26335464 908.28547832 405 911 C404.57170898 911.5146582 404.14341797 912.02931641 403.70214844 912.55957031 C392.45502916 926.02556373 380.37364636 938.69398603 368 951.125 C367.31848877 951.81118408 366.63697754 952.49736816 365.93481445 953.2043457 C362.02264455 957.10408236 357.999624 960.81511177 353.81738281 964.42333984 C351.45065345 966.47658248 349.16639973 968.61332501 346.875 970.75 C341.67067822 975.49553859 336.23012749 979.84639408 330.66015625 984.15234375 C328.2044946 986.05165994 325.77755417 987.9801313 323.37109375 989.94140625 C314.20687776 997.40655609 304.74266266 1004.31013217 295 1011 C294.40316406 1011.41427246 293.80632813 1011.82854492 293.19140625 1012.25537109 C209.34744119 1070.36152035 102.75267789 1108 0 1108 C0 804.4 0 500.8 0 188 C20.20217519 182.22794994 41.98942065 186 63 186 C63 452.97 63 719.94 63 995 C68.94 993.515 68.94 993.515 75 992 C76.65 992 78.3 992 80 992 C80 991.34 80 990.68 80 990 C81.27875 989.74605469 82.5575 989.49210937 83.875 989.23046875 C85.5834032 988.88315601 87.29173266 988.53548038 89 988.1875 C89.83917969 988.02185547 90.67835938 987.85621094 91.54296875 987.68554688 C96.95500495 986.573772 101.85424551 985.00293609 107 983 C108.74098568 982.54714245 110.4911703 982.12766282 112.25 981.75 C126.74621461 978.24964982 143.74888036 973.17238369 156.58203125 965.4453125 C159.09745737 963.941746 161.47205339 963.04285955 164.25 962.125 C168.78202204 960.53695993 172.81097499 958.6071366 176.9296875 956.1484375 C179 955 179 955 181.4609375 954.03125 C184.10250585 952.95836686 186.34064496 951.64462589 188.75 950.125 C192.77957442 947.65175821 196.81170084 945.64095037 201.1875 943.859375 C203.18955235 943.03443929 203.18955235 943.03443929 205 941 C205.76570312 940.69835938 206.53140625 940.39671875 207.3203125 940.0859375 C210.20069568 938.91866852 212.37060822 937.45728664 214.875 935.625 C218.19013675 933.25077706 221.4947206 931.10709967 225.0625 929.125 C239.03605297 921.01132408 251.81820019 910.60578544 264.21484375 900.29296875 C266 899 266 899 268 899 C268.33 898.01 268.66 897.02 269 896 C274.46511628 891 274.46511628 891 277 891 C277 890.34 277 889.68 277 889 C278.6796875 887.2734375 278.6796875 887.2734375 280.875 885.375 C281.95394531 884.42753906 281.95394531 884.42753906 283.0546875 883.4609375 C285 882 285 882 287 882 C287 881.34 287 880.68 287 880 C289.81346467 876.87392815 292.28002639 874.8599868 296 873 C296.33 872.01 296.66 871.02 297 870 C297.99 870 298.98 870 300 870 C300 869.01 300 868.02 300 867 C300.66 867 301.32 867 302 867 C302 866.34 302 865.68 302 865 C302.99 865 303.98 865 305 865 C305 864.34 305 863.68 305 863 C305.66 863 306.32 863 307 863 C307 862.34 307 861.68 307 861 C307.66 861 308.32 861 309 861 C309.061875 860.46375 309.12375 859.9275 309.1875 859.375 C310.40035264 855.82973843 312.44610926 853.7407608 315 851 C315.66 851 316.32 851 317 851 C317.33837891 850.195625 317.33837891 850.195625 317.68359375 849.375 C319.42144696 846.23964466 321.71314255 843.68269329 324.0625 841 C328.51215222 835.83219156 332.69408897 830.534744 336.7421875 825.04296875 C338.75493725 822.33028353 340.80664012 819.6565692 342.8815918 816.99169922 C349.14648259 808.93600304 354.6193093 800.84334162 359.42578125 791.8359375 C361.58568273 787.9448991 363.99011398 784.2315672 366.40625 780.49609375 C367.70644026 778.45976636 368.94129824 776.41738902 370.125 774.3125 C371.92870957 771.12594642 373.85376198 768.05887493 375.8515625 764.9921875 C377.15682219 762.72796151 378.05296184 760.43575345 379 758 C381.61124467 752.17319404 384.26867395 746.36737772 387.1875 740.6875 C388.77888063 737.56367877 390.00202732 734.39225457 391.18164062 731.09423828 C392 729 392 729 393.82421875 725.47265625 C396.44214027 720.29297127 398.37033282 714.89944687 400.3125 709.4375 C400.70203857 708.34703369 401.09157715 707.25656738 401.49291992 706.13305664 C407.18415106 690.01546213 412.21527039 673.67445666 416 657 C416.2254248 656.01999023 416.45084961 655.03998047 416.68310547 654.03027344 C424.34202719 620.47452922 428.16627912 587.50247998 428.1875 553.125 C428.18913147 551.6887175 428.18913147 551.6887175 428.1907959 550.22341919 C428.18959782 540.91824639 428.13806741 531.68785576 427.22045898 522.41943359 C426.91013207 519.01374172 426.90330574 515.66942642 426.9375 512.25 C426.94652344 511.05890625 426.95554687 509.8678125 426.96484375 508.640625 C426.98224609 507.33351563 426.98224609 507.33351563 427 506 C426.34 506 425.68 506 425 506 C424.90203125 505.06285156 424.8040625 504.12570312 424.703125 503.16015625 C422.68031863 484.54280216 419.63467533 466.15209532 415.5625 447.875 C415.28639893 446.61993652 415.01029785 445.36487305 414.72583008 444.07177734 C412.68600948 435.14925275 409.97055862 426.64394859 407 418 C406.18618538 415.44633243 405.42839599 412.88886671 404.6875 410.3125 C404.36136719 409.19488281 404.03523438 408.07726562 403.69921875 406.92578125 C403 404 403 404 403 400 C402.34 400 401.68 400 401 400 C400.56429687 398.92363281 400.12859375 397.84726562 399.6796875 396.73828125 C396.81970644 389.71311455 393.92890911 382.73398174 390.6875 375.875 C388.67502056 371.59914846 387.16600828 367.56686575 386 363 C385.62875 362.278125 385.2575 361.55625 384.875 360.8125 C384 359 384 359 384 355 C383.34 355 382.68 355 382 355 C381.731875 354.21625 381.46375 353.4325 381.1875 352.625 C380.15185568 349.71885077 380.15185568 349.71885077 377 348 C375.71875 345.390625 375.71875 345.390625 374.5 342.25 C372.82865731 338.05663121 371.09650801 334.00242438 369 330 C368.34064453 328.61361328 368.34064453 328.61361328 367.66796875 327.19921875 C365.98145551 323.96443105 364.09051307 321.12928048 361.9375 318.1875 C361.24527344 317.23230469 360.55304687 316.27710938 359.83984375 315.29296875 C358.20501471 312.9284495 358.20501471 312.9284495 356 312 C355.21923598 310.52619826 354.49965116 309.01970632 353.8125 307.5 C351.52607885 302.73548167 348.7404309 298.85424585 345.35546875 294.8125 C344 293 344 293 344 291 C343.34 291 342.68 291 342 291 C341.34 288.69 340.68 286.38 340 284 C339.34 284 338.68 284 338 284 C336.97388051 282.34928604 335.97691857 280.68029994 335 279 C334.00139567 277.99860627 333.00122025 276.99877825 332 276 C330.9235992 274.59386629 329.86219102 273.17618353 328.8125 271.75 C325.75891867 267.74380569 322.45727117 264.61349196 318.50390625 261.5078125 C317 260 317 260 317 257 C316.34 257 315.68 257 315 257 C313.07627902 255.41083919 311.96145414 253.93040687 310.7487793 251.7409668 C308.6882599 248.51139102 306.19217264 245.97807462 303.45703125 243.33203125 C302.92857101 242.81114426 302.40011078 242.29025726 301.8556366 241.75358582 C300.17936399 240.10161173 298.49677502 238.45631196 296.8125 236.8125 C294.58416571 234.63719874 292.36242662 232.4554689 290.14453125 230.26953125 C289.62897171 229.77056839 289.11341217 229.27160553 288.58222961 228.75752258 C287.34997383 227.54255774 286.16950831 226.27547803 285 225 C285 224.34 285 223.68 285 223 C284.34 223 283.68 223 283 223 C283 222.34 283 221.68 283 221 C282.44183594 220.92652344 281.88367187 220.85304688 281.30859375 220.77734375 C278.14147151 219.7109185 276.46423023 217.87755125 274.0625 215.5625 C268.59550272 210.42350408 262.78631254 205.83043028 256.78173828 201.3359375 C254.92009358 199.94008661 253.06705511 198.53333962 251.21484375 197.125 C244.1548899 191.77219487 237.02468886 186.52098577 229.8125 181.375 C229.10577148 180.86598145 228.39904297 180.35696289 227.67089844 179.83251953 C224.1863729 177.36648303 221.01372621 175.51121298 217 174 C214.93944914 172.56385849 213.01695253 171.01367139 211.0625 169.4375 C208.78409912 167.84952363 206.58751876 167.00050726 204 166 C201.92465579 164.92016822 199.86295505 163.81387665 197.8125 162.6875 C193.86260542 160.53705121 189.90909702 158.42550301 185.875 156.4375 C182.3676571 154.7065298 178.92652634 152.8860292 175.5 151 C164.81214147 145.09982624 164.81214147 145.09982624 153.3984375 140.87109375 C151 140 151 140 147.71484375 138.25 C141.18626338 134.92890662 134.12904474 132.84375929 127.1875 130.5625 C126.45411407 130.31944122 125.72072815 130.07638245 124.96511841 129.82595825 C113.74426013 126.11090812 102.50040793 122.7472536 91 120 C81.66666667 117.66666667 72.33333333 115.33333333 63 113 C63 130.16 63 147.32 63 165 C9.21 165 -44.58 165 -100 165 C-100 147.84 -100 130.68 -100 113 C-120.25602543 116.66909779 -120.25602543 116.66909779 -139.98925781 122.33642578 C-143.04017602 123.34327324 -146.12404807 124.23098834 -149.20776367 125.13134766 C-163.29136977 129.25106956 -177.4327923 133.58302776 -190.68359375 139.94921875 C-193.00816406 141.00370343 -195.31491652 141.80229865 -197.75 142.5625 C-200.6287928 143.46565068 -203.09445137 144.51915377 -205.6875 146.0625 C-208.81743396 147.89321609 -211.56521314 148.9008682 -215 150 C-220.96004395 152.27216727 -220.96004395 152.27216727 -226 156 C-227.65697379 156.69040574 -229.3255761 157.3530635 -231 158 C-234.66164321 159.71873049 -237.80950726 161.5299411 -241 164 C-243.5388527 165.62746968 -245.85759318 166.94701142 -248.6875 168 C-251.31863969 168.8891283 -251.31863969 168.8891283 -253 172 C-254.64819336 173.01147461 -254.64819336 173.01147461 -256.58984375 173.90234375 C-257.29173828 174.23556641 -257.99363281 174.56878906 -258.71679688 174.91210938 C-260.19256016 175.59353042 -261.66911961 176.27322995 -263.14648438 176.95117188 C-267.22619186 178.89193098 -269.2941453 180.35041396 -272 184 C-273.68375305 184.72335993 -275.37033947 185.44180819 -277.078125 186.10644531 C-280.642204 187.76352473 -283.50693784 190.36329629 -286.5 192.875 C-299.95542394 204 -299.95542394 204 -303 204 C-303 204.66 -303 205.32 -303 206 C-304.71332754 207.58533702 -306.49689047 209.09541215 -308.3125 210.5625 C-309.29863281 211.36816406 -310.28476562 212.17382812 -311.30078125 213.00390625 C-314 215 -314 215 -317 216 C-317 216.66 -317 217.32 -317 218 C-318.6796875 219.7265625 -318.6796875 219.7265625 -320.875 221.625 C-321.59429687 222.25664062 -322.31359375 222.88828125 -323.0546875 223.5390625 C-325 225 -325 225 -327 225 C-327 225.66 -327 226.32 -327 227 C-327.66 227 -328.32 227 -329 227 C-329 227.66 -329 228.32 -329 229 C-329.66 229 -330.32 229 -331 229 C-331 229.99 -331 230.98 -331 232 C-331.99 232 -332.98 232 -334 232 C-334 232.66 -334 233.32 -334 234 C-335.65002828 235.35386936 -337.3174387 236.68678142 -339 238 C-339.33 238.66 -339.66 239.32 -340 240 C-340.66 240 -341.32 240 -342 240 C-342 240.66 -342 241.32 -342 242 C-343.375 243.625 -343.375 243.625 -345 245 C-345.66 245 -346.32 245 -347 245 C-347 245.66 -347 246.32 -347 247 C-347.66 247 -348.32 247 -349 247 C-349.3403125 247.804375 -349.3403125 247.804375 -349.6875 248.625 C-351.41558938 251.75201887 -353.66266565 254.32167523 -356 257 C-356.51691406 257.598125 -357.03382813 258.19625 -357.56640625 258.8125 C-360.0399389 261.65907121 -362.52103562 264.48803434 -365.09765625 267.2421875 C-370.91038755 273.49574322 -375.79599839 280.1342437 -380.66894531 287.11621094 C-382.97884336 290.3853183 -385.36958081 293.5946009 -387.75 296.8125 C-394.71430865 306.11515374 -394.71430865 306.11515374 -400.5625 316.125 C-401.73748654 318.47497308 -402.860295 320.19485409 -404.4375 322.25 C-407.13556346 325.87450694 -408.60110289 329.72310685 -410.10546875 333.9609375 C-411 336 -411 336 -413 337 C-413.268125 337.680625 -413.53625 338.36125 -413.8125 339.0625 C-415.12822198 342.31718069 -416.85083959 345.0183428 -418.78125 347.9375 C-420.13251286 350.22425253 -421.02411927 352.52968937 -422 355 C-423.12926441 357.30206672 -424.27122845 359.59198011 -425.4375 361.875 C-428.86770308 368.61686782 -431.8720397 375.24883598 -434.05859375 382.49609375 C-434.87807422 384.67570779 -435.81123782 386.60658234 -436.88574219 388.66552734 C-438.88381579 392.63708054 -440.39748795 396.6326768 -441.76953125 400.85546875 C-442.01149231 401.58710739 -442.25345337 402.31874603 -442.50274658 403.07255554 C-443.28142528 405.44145024 -444.04833134 407.81388749 -444.8125 410.1875 C-445.07634491 411.00180481 -445.34018982 411.81610962 -445.61203003 412.65509033 C-450.54666474 427.94103767 -454.59852969 443.2960156 -458 459 C-458.17853516 459.80566406 -458.35707031 460.61132812 -458.54101562 461.44140625 C-460.27690299 469.31361975 -461.48435435 477.18537911 -462.46875 485.18359375 C-462.99701472 488.97855426 -463.73623099 492.68357532 -464.5 496.4375 C-466.6545483 510.17274542 -467.13274204 524.1238727 -468 538 C-502.65 538 -537.3 538 -573 538 C-573 528.36431976 -572.62147096 519.00477918 -571.8125 509.4375 C-571.74753326 508.66254181 -571.68256653 507.88758362 -571.6156311 507.08914185 C-569.42499249 481.37589516 -565.77188184 456.05403252 -559.70556641 430.953125 C-559.04863248 428.20354966 -558.42881315 425.4489836 -557.82421875 422.6875 C-554.45541312 407.52206135 -549.79925034 392.76609078 -545 378 C-544.70367676 377.0836377 -544.40735352 376.16727539 -544.10205078 375.22314453 C-529.9272597 331.83455807 -508.93791063 290.1447859 -484 252 C-483.28328125 250.8965625 -482.5665625 249.793125 -481.828125 248.65625 C-459.94994203 215.40141188 -434.04614681 185.05117641 -406 156.875 C-405.31848877 156.18881592 -404.63697754 155.50263184 -403.93481445 154.7956543 C-400.02264455 150.89591764 -395.999624 147.18488823 -391.81738281 143.57666016 C-389.45065345 141.52341752 -387.16639973 139.38667499 -384.875 137.25 C-379.6671532 132.50124713 -374.22300397 128.14766808 -368.6484375 123.83984375 C-366.22936232 121.96903201 -363.84147526 120.06771452 -361.4765625 118.12890625 C-299.4694683 67.36807206 -223.71838753 32.50724866 -146 14 C-144.4845459 13.63865967 -144.4845459 13.63865967 -142.93847656 13.27001953 C-131.03986983 10.47297348 -119.15950686 8.28151726 -107.04296875 6.68359375 C-102.97808185 6.14716259 -98.93925918 5.50940368 -94.89648438 4.82788086 C-75.89936178 1.65043326 -57.24880535 0.76236043 -38 1 C-38 15.85 -38 30.7 -38 46 C-25.46 46 -12.92 46 0 46 C0 30.82 0 15.64 0 0 Z " fill="#02C4ED" transform="translate(768,192)"/>
<path d="M0 0 C26.73 0 53.46 0 81 0 C81 182.49 81 364.98 81 553 C44.965482 553 10.0966816 548.23539321 -24.84375 539.75634766 C-27.45308012 539.13106109 -30.06335073 538.5391624 -32.6875 537.98046875 C-46.71725527 534.96550263 -60.36053987 530.4136327 -74 526 C-74.92216309 525.70222656 -75.84432617 525.40445313 -76.79443359 525.09765625 C-159.43424469 498.09477094 -233.31270059 448.50998472 -294.625 387.5 C-295.582854 386.54915527 -295.582854 386.54915527 -296.56005859 385.57910156 C-300.32429948 381.80197283 -303.88920208 377.90162692 -307.37451172 373.86621094 C-309.60231074 371.30849154 -311.92771101 368.84688429 -314.25 366.375 C-319.72872376 360.46192356 -324.66307096 354.19589817 -329.58203125 347.81640625 C-331.01235971 345.98416731 -332.46898359 344.17674177 -333.9375 342.375 C-341.40478477 333.21010614 -348.3090861 323.74418607 -355 314 C-355.41427246 313.40316406 -355.82854492 312.80632812 -356.25537109 312.19140625 C-384.78170772 271.02947757 -406.63501017 225.70650577 -422.875 178.4375 C-423.14617645 177.6510611 -423.41735291 176.86462219 -423.69674683 176.05435181 C-427.34241072 165.43930188 -430.58474921 154.76256327 -433.48553467 143.92044067 C-433.92994182 142.26151924 -434.38332446 140.60500706 -434.83837891 138.94897461 C-442.0794171 112.45526464 -446.78573273 85.3814554 -449.4375 58.0625 C-449.5213092 57.21108429 -449.60511841 56.35966858 -449.69146729 55.48245239 C-449.92880979 53.0217032 -450.15309384 50.5601888 -450.37109375 48.09765625 C-450.43633743 47.39890381 -450.50158112 46.70015137 -450.56880188 45.98022461 C-451.17901877 38.60338046 -451 31.48829096 -451 24 C-416.35 24 -381.7 24 -346 24 C-344.68 39.18 -343.36 54.36 -342 70 C-339.20976322 87.82220129 -339.20976322 87.82220129 -334 105 C-333.63345915 106.33507415 -333.29836036 107.67930463 -333 109.03125 C-332.835 109.75957031 -332.67 110.48789062 -332.5 111.23828125 C-332.16666667 112.74609375 -331.83333333 114.25390625 -331.5 115.76171875 C-330.61096196 119.68598821 -329.54749204 123.27455621 -328 127 C-327.57768924 128.68106927 -327.18401683 130.36948035 -326.8125 132.0625 C-325.19674278 138.74924912 -322.93245919 145.15433048 -320.60083008 151.61743164 C-319.09683295 155.79973419 -317.7173693 159.95773223 -316.53125 164.2421875 C-315.31502773 168.41087459 -313.51593663 171.43905819 -311 175 C-310.02559889 177.28877183 -309.11148765 179.60388198 -308.25 181.9375 C-305.85488726 188.22822101 -302.98133139 194.10533763 -299.71582031 199.98803711 C-297.897526 203.26684693 -296.37863303 206.51866196 -295 210 C-294.15833186 211.49838372 -293.28106966 212.97715867 -292.375 214.4375 C-289.40508215 219.29006847 -286.58134345 224.21292465 -283.80419922 229.17749023 C-282.04482818 232.29195694 -280.14570586 235.14533285 -278 238 C-277.4121875 239.5159375 -277.4121875 239.5159375 -276.8125 241.0625 C-274.76653886 246.01038562 -271.48931381 250.07175637 -268.27441406 254.31494141 C-266.858951 256.18649812 -265.45631438 258.06727938 -264.0546875 259.94921875 C-258.77817067 267.024794 -253.47077593 274.07297436 -248 281 C-247.39027344 281.78375 -246.78054688 282.5675 -246.15234375 283.375 C-241.66535106 289.08409607 -236.91805159 294.40655745 -231.90625 299.65234375 C-230 302 -230 302 -230 305 C-229.47075928 305.20254395 -228.94151855 305.40508789 -228.39624023 305.61376953 C-224.94456771 307.61057 -222.43456824 310.34045994 -219.66015625 313.1796875 C-219.05618515 313.78886017 -218.45221405 314.39803284 -217.8299408 315.02566528 C-215.90264029 316.9707462 -213.98215534 318.92237577 -212.0625 320.875 C-210.14558462 322.81962691 -208.22719924 324.76274319 -206.30577087 326.70291138 C-205.11199561 327.90883952 -203.92090285 329.11743096 -202.73292542 330.32907104 C-200.26612454 332.82530857 -197.86440326 335.10633921 -195.09545898 337.27783203 C-194.40395752 337.84614746 -193.71245605 338.41446289 -193 339 C-193 339.66 -193 340.32 -193 341 C-192.4225 341.0928125 -191.845 341.185625 -191.25 341.28125 C-188.45947278 342.17266842 -187.11559654 343.48056694 -185 345.5 C-180.47401633 349.66689737 -175.67646202 353.31430266 -170.7265625 356.9609375 C-168.63992676 358.52143013 -166.64904894 360.10270066 -164.6875 361.8125 C-162.24218498 363.80287269 -159.79996117 365.27526893 -157.0390625 366.77734375 C-154.46317433 368.32188972 -152.09902663 370.08503587 -149.6875 371.875 C-145.32905523 375.09880832 -140.88941364 377.97462049 -136.19140625 380.67578125 C-134 382 -134 382 -131.87890625 383.6015625 C-129.70878236 385.21674826 -127.50653247 386.01057929 -125 387 C-124.34 387.66 -123.68 388.32 -123 389 C-122.030625 389.309375 -121.06125 389.61875 -120.0625 389.9375 C-117 391 -117 391 -115.62890625 392.3828125 C-110.48590772 397.48881104 -102.51687036 400.31083199 -95.921875 403.12890625 C-94 404 -94 404 -91.375 405.625 C-88.91475379 407.17831316 -88.91475379 407.17831316 -85.5 408 C-82 409 -82 409 -79.625 410.4375 C-76.68160093 412.18952325 -73.84159033 413.08918109 -70.58984375 414.1171875 C-66.70048735 415.44297113 -62.95620707 417.0856436 -59.1875 418.71875 C-55.98348237 420.00663944 -52.76189674 421.109939 -49.48144531 422.18310547 C-46.87215044 423.04208822 -44.27595144 423.93447104 -41.6796875 424.83203125 C-39.74482946 425.49229827 -37.80993302 426.15245275 -35.875 426.8125 C-34.50794922 427.28913086 -34.50794922 427.28913086 -33.11328125 427.77539062 C-22.17805933 431.48113494 -11.27784237 434.05795417 0 437 C0 372.65 0 308.3 0 242 C-62.7 242 -125.4 242 -190 242 C-190 216.59 -190 191.18 -190 165 C-127.3 165 -64.6 165 0 165 C0 110.55 0 56.1 0 0 Z " fill="#06DFEE" transform="translate(647,746)"/>
<path d="M0 0 C7.88259207 2.27125534 15.02551941 5.69284309 22 10 C22.33 10.66 22.66 11.32 23 12 C18.7649042 10.6808718 14.89223993 9.06793586 10.9375 7.0625 C9.43509766 6.30646484 9.43509766 6.30646484 7.90234375 5.53515625 C5.20276402 4.10724934 2.56776072 2.65373213 0 1 C0 0.67 0 0.34 0 0 Z " fill="#1B8BAE" transform="translate(938,339)"/>
</svg>
