<?xml version="1.0" encoding="UTF-8"?>
<svg version="1.1" xmlns="http://www.w3.org/2000/svg" width="1500" height="1500">
<path d="M0 0 C4.32653638 0.00770283 8.65304179 -0.00220583 12.97957361 -0.00973 C20.54097769 -0.02050232 28.10231736 -0.0202753 35.6637243 -0.01258852 C46.90825089 -0.00118889 58.15272366 -0.00706924 69.39724994 -0.01621344 C89.48596176 -0.03197302 109.57464488 -0.03065652 129.6633594 -0.0219767 C147.24374534 -0.01441832 164.82412077 -0.01246538 182.40450799 -0.01604463 C183.57243849 -0.01627379 184.74036898 -0.01650294 185.94369131 -0.01673904 C190.68516997 -0.01767312 195.42664862 -0.01862833 200.16812727 -0.01961833 C244.61116449 -0.02878724 289.05418348 -0.0204878 333.49721789 -0.00432764 C372.94817658 0.00990827 412.39910621 0.00863435 451.85006464 -0.00571062 C496.21386159 -0.0217882 540.57764243 -0.02813688 584.94144189 -0.01887383 C589.67408502 -0.01791173 594.40672815 -0.01697321 599.13937128 -0.01604463 C600.30459634 -0.0158074 601.46982141 -0.01557017 602.67035633 -0.01532575 C620.23604153 -0.01191898 637.80171505 -0.01589361 655.36739862 -0.02348329 C675.34822977 -0.03207366 695.32902782 -0.02988974 715.30985487 -0.01364106 C726.48073937 -0.00485544 737.65155216 -0.00422347 748.82243475 -0.01557958 C756.29717949 -0.02233774 763.77186708 -0.01806441 771.2466034 -0.00506528 C775.4966033 0.00202674 779.74646139 0.00460478 783.9964565 -0.00628323 C806.25815849 -0.05915388 828.02400535 0.84352132 849.77193964 6.07290266 C851.38093133 6.45418318 851.38093133 6.45418318 853.02242792 6.84316633 C884.66609003 14.61794756 914.8564769 28.58456316 940.77193964 48.38540266 C941.61498651 49.01647932 941.61498651 49.01647932 942.47506464 49.66030501 C952.18545977 56.93490001 961.03839449 64.97452544 969.77193964 73.38540266 C970.56600214 74.13821516 971.36006464 74.89102766 972.17818964 75.66665266 C977.01650517 80.35137088 981.28903465 85.42978466 985.45455682 90.71743391 C986.3794304 91.88843767 987.31031102 93.05470997 988.24557245 94.21743391 C1027.01740475 142.4947747 1042.31382817 199.53119062 1042.1573423 260.61346303 C1042.14963946 264.93999941 1042.15954813 269.26650481 1042.1670723 273.59303663 C1042.17784462 281.15444071 1042.1776176 288.71578039 1042.16993082 296.27718733 C1042.15853119 307.52171391 1042.16441154 318.76618668 1042.17355574 330.01071296 C1042.18931532 350.09942479 1042.18799882 370.18810791 1042.179319 390.27682243 C1042.17176062 407.85720836 1042.16980768 425.4375838 1042.17338693 443.01797102 C1042.17361609 444.18590152 1042.17384524 445.35383201 1042.17408134 446.55715434 C1042.17501542 451.298633 1042.17597062 456.04011165 1042.17696063 460.7815903 C1042.18612953 505.22462752 1042.1778301 549.66764651 1042.16166994 594.11068092 C1042.14743403 633.5616396 1042.14870795 673.01256923 1042.16305292 712.46352766 C1042.1791305 756.82732461 1042.18547918 801.19110546 1042.17621613 845.55490492 C1042.17525403 850.28754804 1042.17431551 855.02019117 1042.17338693 859.7528343 C1042.17303108 861.50067191 1042.17303108 861.50067191 1042.17266805 863.28381936 C1042.16926128 880.84950455 1042.17323591 898.41517807 1042.18082559 915.98086165 C1042.18941596 935.96169279 1042.18723204 955.94249085 1042.17098336 975.92331789 C1042.16219774 987.0942024 1042.16156577 998.26501519 1042.17292188 1009.43589778 C1042.17968004 1016.91064252 1042.17540671 1024.38533011 1042.16240758 1031.86006643 C1042.15531556 1036.11006633 1042.15273752 1040.35992441 1042.16362552 1044.60991953 C1042.21649618 1066.87162152 1041.31382098 1088.63746837 1036.08443964 1110.38540266 C1035.83025262 1111.4580638 1035.57606561 1112.53072493 1035.31417596 1113.63589094 C1027.53939474 1145.27955306 1013.57277914 1175.46993993 993.77193964 1201.38540266 C993.35122186 1201.94743391 992.93050409 1202.50946516 992.49703729 1203.08852766 C985.22244228 1212.7989228 977.18281686 1221.65185751 968.77193964 1230.38540266 C968.01912714 1231.17946516 967.26631464 1231.97352766 966.49068964 1232.79165266 C961.80597142 1237.6299682 956.72755764 1241.90249768 951.43990839 1246.06801985 C950.26890463 1246.99289342 949.10263233 1247.92377405 947.93990839 1248.85903548 C899.6625676 1287.63086778 842.62615168 1302.9272912 781.54387927 1302.77080533 C777.21734289 1302.76310249 772.89083748 1302.77301115 768.56430566 1302.78053532 C761.00290158 1302.79130765 753.44156191 1302.79108063 745.88015497 1302.78339384 C734.63562838 1302.77199422 723.39115561 1302.77787456 712.14662933 1302.78701876 C692.05791751 1302.80277835 671.96923439 1302.80146185 651.88051987 1302.79278203 C634.30013393 1302.78522365 616.7197585 1302.78327071 599.13937128 1302.78684996 C597.97144078 1302.78707911 596.80351029 1302.78730827 595.60018796 1302.78754437 C590.8587093 1302.78847844 586.11723065 1302.78943365 581.375752 1302.79042366 C536.93271478 1302.79959256 492.48969579 1302.79129313 448.04666138 1302.77513297 C408.59570269 1302.76089706 369.14477307 1302.76217098 329.69381464 1302.77651594 C285.33001768 1302.79259352 240.96623684 1302.7989422 196.60243738 1302.78967915 C191.86979425 1302.78871706 187.13715113 1302.78777853 182.40450799 1302.78684996 C181.23928293 1302.78661273 180.07405786 1302.78637549 178.87352294 1302.78613107 C161.30783775 1302.78272431 143.74216422 1302.78669894 126.17648065 1302.79428862 C106.1956495 1302.80287899 86.21485145 1302.80069507 66.23402441 1302.78444639 C55.0631399 1302.77566077 43.89232711 1302.7750288 32.72144452 1302.78638491 C25.24669978 1302.79314306 17.77201219 1302.78886974 10.29727587 1302.7758706 C6.04727597 1302.76877859 1.79741789 1302.76620054 -2.45257723 1302.77708855 C-24.71427922 1302.82995921 -46.48012608 1301.927284 -68.22806036 1296.69790266 C-69.3007215 1296.44371565 -70.37338263 1296.18952864 -71.47854865 1295.92763899 C-103.12221076 1288.15285776 -133.31259763 1274.18624216 -159.22806036 1254.38540266 C-159.79009161 1253.96468489 -160.35212286 1253.54396712 -160.93118536 1253.11050032 C-170.6415805 1245.83590531 -179.49451522 1237.79627989 -188.22806036 1229.38540266 C-189.02212286 1228.63259016 -189.81618536 1227.87977766 -190.63431036 1227.10415266 C-195.4726259 1222.41943444 -199.74515538 1217.34102066 -203.91067755 1212.05337141 C-204.83555112 1210.88236766 -205.76643175 1209.71609536 -206.70169318 1208.55337141 C-245.47352548 1160.27603062 -260.7699489 1103.2396147 -260.61346303 1042.1573423 C-260.60576019 1037.83080591 -260.61566886 1033.50430051 -260.62319303 1029.17776869 C-260.63396535 1021.61636461 -260.63373833 1014.05502494 -260.62605155 1006.49361799 C-260.61465192 995.24909141 -260.62053226 984.00461864 -260.62967647 972.76009236 C-260.64543605 952.67138054 -260.64411955 932.58269742 -260.63543973 912.49398289 C-260.62788135 894.91359696 -260.62592841 877.33322153 -260.62950766 859.7528343 C-260.62973682 858.58490381 -260.62996597 857.41697331 -260.63020207 856.21365098 C-260.63113615 851.47217233 -260.63209135 846.73069368 -260.63308136 841.98921503 C-260.64225026 797.5461778 -260.63395083 753.10315881 -260.61779067 708.6601244 C-260.60355476 669.20916572 -260.60482868 629.75823609 -260.61917365 590.30727766 C-260.63525123 545.94348071 -260.64159991 501.57969986 -260.63233685 457.2159004 C-260.63137476 452.48325728 -260.63043624 447.75061415 -260.62950766 443.01797102 C-260.62927043 441.85274595 -260.6290332 440.68752088 -260.62878878 439.48698596 C-260.62538201 421.92130077 -260.62935664 404.35562725 -260.63694632 386.78994368 C-260.64553669 366.80911253 -260.64335277 346.82831447 -260.62710409 326.84748743 C-260.61831847 315.67660292 -260.6176865 304.50579014 -260.62904261 293.33490754 C-260.63580076 285.8601628 -260.63152744 278.38547521 -260.61852831 270.9107389 C-260.61143629 266.660739 -260.60885825 262.41088091 -260.61974625 258.16088579 C-260.67261691 235.89918381 -259.7699417 214.13333695 -254.54056036 192.38540266 C-254.28637335 191.31274153 -254.03218634 190.2400804 -253.77029669 189.13491438 C-245.99551547 157.49125226 -232.02889987 127.3008654 -212.22806036 101.38540266 C-211.80734259 100.82337141 -211.38662482 100.26134016 -210.95315802 99.68227766 C-203.67856301 89.97188252 -195.63893759 81.11894781 -187.22806036 72.38540266 C-186.47524786 71.59134016 -185.72243536 70.79727766 -184.94681036 69.97915266 C-180.26209215 65.14083713 -175.18367836 60.86830765 -169.89602911 56.70278548 C-168.72502536 55.7779119 -167.55875306 54.84703128 -166.39602911 53.91176985 C-118.11868833 15.13993754 -61.08227241 -0.15648587 0 0 Z " fill="#FEFEFE" transform="translate(359.2280603647232,98.61459733732045)"/>
<path d="M0 0 C0 15.18 0 30.36 0 46 C12.54 46 25.08 46 38 46 C38 30.82 38 15.64 38 0 C63.44956366 1.21188398 63.44956366 1.21188398 74.6171875 2.41796875 C75.5050293 2.51384277 76.39287109 2.6097168 77.30761719 2.70849609 C78.19610352 2.80469238 79.08458984 2.90088867 80 3 C81.30952637 3.13462646 81.30952637 3.13462646 82.64550781 3.27197266 C161.22098043 11.46229666 237.48433877 38.24637825 305 79 C305.93005859 79.55864746 306.86011719 80.11729492 307.81835938 80.69287109 C331.96720657 95.24114157 354.32171057 112.00589655 376 130 C376.58845703 130.48791016 377.17691406 130.97582031 377.78320312 131.47851562 C391.18604489 142.64503204 403.76577785 154.69781414 416.125 167 C416.81118408 167.68151123 417.49736816 168.36302246 418.2043457 169.06518555 C422.10408236 172.97735545 425.81511177 177.000376 429.42333984 181.18261719 C431.47658248 183.54934655 433.61332501 185.83360027 435.75 188.125 C440.49553859 193.32932178 444.84639408 198.76987251 449.15234375 204.33984375 C451.05165994 206.7955054 452.9801313 209.22244583 454.94140625 211.62890625 C462.40655609 220.79312224 469.31013217 230.25733734 476 240 C476.41427246 240.59683594 476.82854492 241.19367188 477.25537109 241.80859375 C514.3988351 295.40456144 541.94633902 356.57227777 557 420 C557.37629874 421.53287314 557.75377526 423.06545797 558.1328125 424.59765625 C559.14197068 428.72031874 560.07814659 432.85707169 561 437 C561.19303711 437.84965332 561.38607422 438.69930664 561.58496094 439.57470703 C569.97719715 476.75061143 573.22668488 514.45820652 573.1875 552.5 C573.18722809 553.50401855 573.18695618 554.50803711 573.18667603 555.54248047 C573.16791193 570.68585353 572.76343178 585.67853494 571.30322266 600.76123047 C570.9886556 604.12117139 570.73176044 607.48242983 570.48046875 610.84765625 C567.50788414 647.78758099 559.76983399 684.87599108 548 720 C547.43369873 721.71654785 547.43369873 721.71654785 546.85595703 723.46777344 C524.14517839 792.26622485 489.85590829 855.56808996 443 911 C442.45005371 911.65436035 441.90010742 912.3087207 441.33349609 912.98291016 C431.19587076 925.03478085 431.19587076 925.03478085 425.68017578 930.3190918 C423.9773296 932.02268029 422.42128441 933.79572032 420.859375 935.62890625 C416.79005765 940.3083266 412.45711293 944.69013828 408.0625 949.0625 C406.92264648 950.2081543 406.92264648 950.2081543 405.75976562 951.37695312 C401.56521067 955.56434403 397.28491336 959.58511673 392.79321289 963.4519043 C390.37494947 965.53961136 388.03403531 967.70728309 385.6875 969.875 C380.2850248 974.79577302 374.69762419 979.4270049 369 984 C367.86801214 984.92389449 366.73652513 985.8484029 365.60546875 986.7734375 C342.33970574 1005.71684075 317.229761 1022.45047603 291 1037 C290.11231934 1037.49918945 289.22463867 1037.99837891 288.31005859 1038.51269531 C263.44417887 1052.47534805 237.70178923 1064.02069337 211 1074 C209.82904785 1074.43973145 208.6580957 1074.87946289 207.45166016 1075.33251953 C184.7490017 1083.80589336 161.87044266 1090.52397253 138.12597656 1095.35546875 C134.77389317 1096.04661997 131.43033163 1096.77259658 128.0859375 1097.5 C114.43382234 1100.41405597 100.86225566 1102.71210344 87 1104.3125 C86.29765228 1104.39372101 85.59530457 1104.47494202 84.87167358 1104.55862427 C69.15174699 1106.34975354 53.89782394 1107 38 1107 C38 803.73 38 500.46 38 188 C58.20217519 182.22794994 79.98942065 186 101 186 C101 452.97 101 719.94 101 995 C106.94 993.515 106.94 993.515 113 992 C114.65 992 116.3 992 118 992 C118 991.34 118 990.68 118 990 C119.27875 989.74605469 120.5575 989.49210937 121.875 989.23046875 C123.5834032 988.88315601 125.29173266 988.53548038 127 988.1875 C127.83917969 988.02185547 128.67835938 987.85621094 129.54296875 987.68554688 C134.29382892 986.70959498 138.7058455 985.46888505 143.21289062 983.68041992 C145.67794903 982.74187924 148.18043124 982.14682284 150.75 981.5625 C156.1278885 980.27782015 161.29460918 978.61665252 166.50390625 976.76953125 C169 976 169 976 172 976 C172 975.34 172 974.68 172 974 C172.89138672 973.76216797 172.89138672 973.76216797 173.80078125 973.51953125 C179.45293333 971.92849 184.63691433 969.89224472 189.94140625 967.38671875 C193.45434415 965.79400744 197.03076039 964.39505308 200.625 963 C205.66132777 961.03261534 210.43296562 958.87170746 215.0703125 956.078125 C217 955 217 955 219.453125 954.03125 C222.04342031 952.98241877 224.25428027 951.72476211 226.625 950.25 C239.7522739 942.24412892 239.7522739 942.24412892 245.5390625 940.02734375 C248.20891386 938.91278676 250.23871071 937.53076721 252.5625 935.8125 C256.15054471 933.233758 259.76262551 930.95651196 263.625 928.8125 C270.90249126 924.64592606 277.4422504 919.59888573 284.06884766 914.48583984 C285.84328512 913.12057734 287.6277068 911.77018648 289.41796875 910.42578125 C296.01232806 905.45023592 302.33208483 900.24336553 308.50830078 894.7578125 C312.78899311 891 312.78899311 891 315 891 C315 890.34 315 889.68 315 889 C319.35294118 885 319.35294118 885 323 885 C323 884.01 323 883.02 323 882 C323.66 882 324.32 882 325 882 C325 881.34 325 880.68 325 880 C327.81346467 876.87392815 330.28002639 874.8599868 334 873 C334.33 872.01 334.66 871.02 335 870 C335.99 870 336.98 870 338 870 C338 869.01 338 868.02 338 867 C338.66 867 339.32 867 340 867 C340 866.34 340 865.68 340 865 C341.65 864.34 343.3 863.68 345 863 C345 862.34 345 861.68 345 861 C345.66 861 346.32 861 347 861 C347.12375 860.38125 347.2475 859.7625 347.375 859.125 C348 857 348 857 350 855 C350.99 855 351.98 855 353 855 C353.2475 854.10410156 353.495 853.20820312 353.75 852.28515625 C355.07364418 848.8064539 356.424621 847.08186237 359 844.4375 C363.97251216 839.122879 368.35907265 833.46948756 372.73388672 827.66894531 C373.978944 826.02775527 375.23819238 824.39873479 376.50390625 822.7734375 C388.00412794 808.54381549 388.00412794 808.54381549 397.07421875 792.7890625 C398.18348078 790.64542533 399.56318791 788.88964395 401.0625 787 C403.54557908 783.81894098 404.83812996 781.00714438 406.08984375 777.20703125 C407.65434718 773.4132783 410.0073326 770.11184028 412.28125 766.7109375 C415.99554773 760.85247699 418.64713118 754.42860841 421.5 748.12109375 C422.8581051 745.29524486 424.38570254 742.68298041 426 740 C426.71727901 738.10899171 427.43167903 736.21665859 428.11328125 734.3125 C429.49997692 730.69609543 431.16760415 727.2139999 432.81640625 723.7109375 C434.06644625 720.84780959 435.02632093 717.96826792 436 715 C436.48714348 713.68643113 436.98117169 712.37540373 437.48046875 711.06640625 C444.18670368 693.42476143 449.82096329 675.41166307 454 657 C454.2254248 656.01999023 454.45084961 655.03998047 454.68310547 654.03027344 C465.93215905 604.7452202 465.15568787 556.19821726 465 506 C464.34 506 463.68 506 463 506 C462.67827551 503.64767177 462.35682605 501.29530687 462.03588867 498.94287109 C461.75873368 496.91567085 461.48021989 494.88865597 461.20043945 492.86181641 C460.61965968 488.63851194 460.0476686 484.41956956 459.56640625 480.18359375 C457.01200926 457.8787046 450.97300337 436.27356961 444 415 C443.44331569 413.26584786 442.88728169 411.53148677 442.33203125 409.796875 C439.90439056 402.28727102 437.29322458 394.93282027 434.15625 387.68359375 C432.99918801 384.99811542 431.93186821 382.28873958 430.875 379.5625 C429.86397089 377.00041419 428.90170924 374.84273478 427.4375 372.5 C425.9938524 369.98930852 425.33092731 367.84288485 424.5625 365.0625 C423.3373174 360.73607393 421.59594289 357.69725199 419 354 C417.925922 351.70244217 416.9381721 349.37657969 415.9453125 347.04296875 C414.89604977 344.77534723 413.52931626 342.96626376 412 341 C411.835 340.319375 411.67 339.63875 411.5 338.9375 C410.87300489 336.50789396 409.79405143 335.72504945 408 334 C406.14381695 331.21572542 404.80206862 328.52991298 403.5 325.4375 C402.22509119 322.51583397 400.92932232 320.48055727 399 318 C399 317.34 399 316.68 399 316 C398.34 316 397.68 316 397 316 C396.649375 315.05125 396.29875 314.1025 395.9375 313.125 C393.26800569 306.87075619 388.97421881 301.46777351 384.75 296.1875 C383 294 383 294 381.6796875 291.74609375 C379.77184924 288.62700003 377.61784369 285.75537027 375.375 282.875 C374.94058594 282.31385498 374.50617187 281.75270996 374.05859375 281.17456055 C366.89519359 271.76582916 366.89519359 271.76582916 359 263 C359 262.01 359 261.02 359 260 C358.44054688 259.77828125 357.88109375 259.5565625 357.3046875 259.328125 C354.27038272 257.57954258 352.44550334 255.38036283 350.125 252.75 C344.57170781 246.57987782 338.79382214 240.64140844 332.93865967 234.75939941 C331.93885321 233.75410509 330.94100218 232.74686217 329.94512939 231.7376709 C328.52979108 230.30436172 327.1068267 228.87859535 325.68359375 227.453125 C324.85400146 226.61942383 324.02440918 225.78572266 323.16967773 224.92675781 C321.06471437 222.80297004 321.06471437 222.80297004 318 222 C315.77292113 219.89664774 313.65955777 217.71210496 311.578125 215.46484375 C306.49457157 210.14221232 300.72277696 205.78333962 294.84619141 201.38427734 C292.9578532 199.96839826 291.07798476 198.54183165 289.19921875 197.11328125 C282.14455519 191.7642856 275.01938141 186.51719884 267.8125 181.375 C267.10577148 180.86598145 266.39904297 180.35696289 265.67089844 179.83251953 C262.1841831 177.36493328 259.01491612 175.50966052 255 174 C252.85336112 172.74462384 250.72955385 171.44971917 248.625 170.125 C247.46265492 169.40037501 246.29989898 168.67640864 245.13671875 167.953125 C244.10160156 167.30859375 243.06648437 166.6640625 242 166 C236.6964496 162.77811928 231.1554225 160.07025481 225.57421875 157.3671875 C223 156 223 156 221 154 C219.02620057 153.27627354 217.0515781 152.55459223 215.0703125 151.8515625 C213 151 213 151 210.125 149 C206.70428606 146.81074308 203.6647596 145.88621033 199.7578125 144.90625 C196.71407716 143.90604235 194.03955488 142.54363835 191.1953125 141.08349609 C187.36555486 139.19331989 183.40567894 137.63571536 179.4375 136.0625 C178.56706055 135.71622559 177.69662109 135.36995117 176.79980469 135.01318359 C167.38398739 131.30659032 157.91440064 127.92879301 148.07519531 125.52685547 C143.79666964 124.4406133 139.58214229 123.12578047 135.35546875 121.85546875 C134.65035156 121.64535156 133.94523438 121.43523437 133.21875 121.21875 C132.59935547 121.03248047 131.97996094 120.84621094 131.34179688 120.65429688 C127.91407815 119.69659398 124.452733 118.86318325 121 118 C111.1 115.525 111.1 115.525 101 113 C101 130.16 101 147.32 101 165 C47.21 165 -6.58 165 -62 165 C-62 147.84 -62 130.68 -62 113 C-85.27199884 117.79473343 -107.8866412 123.42830287 -130.375 131.125 C-131.56923584 131.53266602 -132.76347168 131.94033203 -133.99389648 132.36035156 C-140.36209294 134.58278531 -146.51948473 137.02120382 -152.60888672 139.92504883 C-154.95766626 140.9809684 -157.2913553 141.80253546 -159.75 142.5625 C-162.6287928 143.46565068 -165.09445137 144.51915377 -167.6875 146.0625 C-170.79049049 147.8774567 -173.60356594 148.89246715 -177 150 C-178.67739862 150.98189187 -180.34467377 151.98133771 -182 153 C-183.1446875 153.433125 -183.1446875 153.433125 -184.3125 153.875 C-186.73112958 154.88744959 -188.62988978 156.00942495 -190.8125 157.4375 C-193.53348692 159.19512432 -196.05500602 160.47275536 -199.125 161.5 C-203.1562078 162.88302646 -205.75506213 165.23835075 -209 168 C-211.33333333 169 -213.66666667 170 -216 171 C-217.4447359 172.2199992 -218.88808781 173.4422553 -220.30078125 174.69921875 C-222.26842826 176.20548646 -224.25049697 177.14898555 -226.5 178.1875 C-235.27887597 182.41339708 -242.91954709 188.61453115 -250.60546875 194.5390625 C-251.37753662 195.13396484 -252.14960449 195.72886719 -252.94506836 196.34179688 C-254.46447831 197.51728361 -255.97973351 198.69816325 -257.49047852 199.88476562 C-258.17940186 200.42037109 -258.8683252 200.95597656 -259.578125 201.5078125 C-260.19075195 201.98879395 -260.80337891 202.46977539 -261.43457031 202.96533203 C-263 204 -263 204 -265 204 C-265 204.66 -265 205.32 -265 206 C-266.71332754 207.58533702 -268.49689047 209.09541215 -270.3125 210.5625 C-271.29863281 211.36816406 -272.28476562 212.17382812 -273.30078125 213.00390625 C-276 215 -276 215 -279 216 C-279 216.66 -279 217.32 -279 218 C-282.46153846 221 -282.46153846 221 -285 221 C-285.33 222.65 -285.66 224.3 -286 226 C-286.66 226 -287.32 226 -288 226 C-288 226.66 -288 227.32 -288 228 C-289.65 228.33 -291.3 228.66 -293 229 C-293 229.99 -293 230.98 -293 232 C-294.71484375 233.53515625 -294.71484375 233.53515625 -296.9375 235.0625 C-299.99278157 237.06958135 -299.99278157 237.06958135 -302 240 C-302.99 240 -303.98 240 -305 240 C-305.66 241.65 -306.32 243.3 -307 245 C-307.66 245 -308.32 245 -309 245 C-309 245.66 -309 246.32 -309 247 C-309.66 247 -310.32 247 -311 247 C-311 247.66 -311 248.32 -311 249 C-311.66 249 -312.32 249 -313 249 C-313 249.66 -313 250.32 -313 251 C-313.66 251 -314.32 251 -315 251 C-315.0825 251.61875 -315.165 252.2375 -315.25 252.875 C-316.23825442 255.67505419 -317.40359985 255.74113932 -320 257 C-320.68268138 258.32520503 -321.3507041 259.65812182 -322 261 C-322.99 261.33 -323.98 261.66 -325 262 C-325.73323796 264.01508358 -325.73323796 264.01508358 -326 266 C-326.66 266 -327.32 266 -328 266 C-328.309375 266.78375 -328.61875 267.5675 -328.9375 268.375 C-330 271 -330 271 -331 273 C-331.66 273 -332.32 273 -333 273 C-333 274.32 -333 275.64 -333 277 C-333.928125 277.4021875 -333.928125 277.4021875 -334.875 277.8125 C-337.2995233 278.95556848 -337.2995233 278.95556848 -339 282 C-339.66 282 -340.32 282 -341 282 C-342.485 286.455 -342.485 286.455 -344 291 C-344.66 291 -345.32 291 -346 291 C-346.35384766 291.77150391 -346.35384766 291.77150391 -346.71484375 292.55859375 C-348.8034571 296.52632427 -351.34417939 300.21499973 -353.81054688 303.95507812 C-355.54883666 306.62083513 -356.98879554 308.96638661 -358 312 C-359.3066605 313.35948295 -360.64361016 314.69012895 -362 316 C-363.23525137 317.45676269 -364.44394271 318.93646464 -365.625 320.4375 C-366.21539062 321.17871094 -366.80578125 321.91992188 -367.4140625 322.68359375 C-369.05897992 325.08614555 -369.96586125 327.28292823 -371 330 C-372.22362951 332.60694194 -373.51788346 335.17770583 -374.8125 337.75 C-375.16634766 338.45576172 -375.52019531 339.16152344 -375.88476562 339.88867188 C-378.46126803 344.99943895 -381.1361729 350.04337618 -384 355 C-384.66 355 -385.32 355 -386 355 C-386.12890625 355.72058594 -386.2578125 356.44117188 -386.390625 357.18359375 C-388.5736835 367.27324231 -393.36968308 377.04469271 -397.5234375 386.44921875 C-405.88689651 405.67340201 -411.93602311 426.00659033 -417.0625 446.3125 C-417.34931641 447.44341064 -417.63613281 448.57432129 -417.93164062 449.73950195 C-419.31718612 455.43007414 -420.36145574 460.9456872 -420.74414062 466.79467773 C-421.02958703 469.25501871 -421.66885598 471.39685803 -422.4375 473.75 C-426.20635323 485.55725275 -426.57001664 498.45474374 -427.5625 510.75 C-427.75174993 513.04966601 -427.94219162 515.34922919 -428.13328552 517.64874268 C-428.25038195 519.06233 -428.3662732 520.47601801 -428.48060608 521.88983154 C-428.9204152 527.2694777 -429.46261815 532.62618147 -430 538 C-464.32 538 -498.64 538 -534 538 C-534 505.48634496 -534 505.48634496 -532.3125 492.625 C-532.12868912 491.1423911 -531.94535295 489.65972328 -531.76245117 488.17700195 C-531.20997168 483.77965632 -530.61274245 479.38930756 -530 475 C-529.82339844 473.72398926 -529.64679688 472.44797852 -529.46484375 471.13330078 C-524.93745899 439.43741543 -517.10997445 408.35419117 -507 378 C-506.56421631 376.66243652 -506.56421631 376.66243652 -506.11962891 375.29785156 C-491.94428604 331.86737355 -470.93532676 290.19147786 -446 252 C-444.97712891 250.41445313 -444.97712891 250.41445313 -443.93359375 248.796875 C-434.6943466 234.67760796 -424.5834693 221.13480426 -414 208 C-413.25363281 207.07058594 -412.50726563 206.14117187 -411.73828125 205.18359375 C-409.51242498 202.43823782 -407.26335464 199.71452168 -405 197 C-404.57170898 196.4853418 -404.14341797 195.97068359 -403.70214844 195.44042969 C-392.45502916 181.97443627 -380.37364636 169.30601397 -368 156.875 C-367.31848877 156.18881592 -366.63697754 155.50263184 -365.93481445 154.7956543 C-362.02264455 150.89591764 -357.999624 147.18488823 -353.81738281 143.57666016 C-351.45065345 141.52341752 -349.16639973 139.38667499 -346.875 137.25 C-341.67067822 132.50446141 -336.23012749 128.15360592 -330.66015625 123.84765625 C-328.2044946 121.94834006 -325.77755417 120.0198687 -323.37109375 118.05859375 C-314.20687776 110.59344391 -304.74266266 103.68986783 -295 97 C-294.10474609 96.37859131 -294.10474609 96.37859131 -293.19140625 95.74462891 C-240.64543216 59.32883904 -180.36256116 31.59434696 -118.13818359 16.75585938 C-115.02809246 16.00676632 -111.93002399 15.21938783 -108.83203125 14.421875 C-73.74091029 5.50475285 -36.29022314 0 0 0 Z " fill="#03C5ED" transform="translate(730,192)"/>
<path d="M0 0 C26.73 0 53.46 0 81 0 C81 182.49 81 364.98 81 553 C56.62301873 553 56.62301873 553 48.875 552.1875 C47.97015869 552.09911865 47.06531738 552.0107373 46.13305664 551.91967773 C38.60710656 551.14675654 31.15644506 550.0255903 23.69921875 548.76171875 C20.64435319 548.24910663 17.59640742 547.81378022 14.51953125 547.45703125 C-12.29046718 544.26123014 -39.34780085 537.30779056 -65 529 C-66.10359863 528.64357422 -67.20719727 528.28714844 -68.34423828 527.91992188 C-113.65124277 513.12426521 -156.89215489 492.76296717 -197 467 C-197.59167969 466.62037109 -198.18335938 466.24074219 -198.79296875 465.84960938 C-233.52550593 443.42353907 -265.29140658 416.68995679 -294.5625 387.5625 C-295.20501709 386.92465576 -295.84753418 386.28681152 -296.50952148 385.62963867 C-300.29146399 381.83485425 -303.87532349 377.91858565 -307.37670898 373.86401367 C-309.60361025 371.30687859 -311.92841773 368.84613205 -314.25 366.375 C-319.21309933 361.01842663 -323.73941753 355.39424141 -328.1953125 349.61328125 C-330.05147307 347.20572799 -331.93976609 344.83134868 -333.8671875 342.48046875 C-371.84578978 296.09385759 -399.81215403 241.91403405 -420.32806396 185.82574463 C-421.28134302 183.23555147 -422.26173088 180.65571233 -423.23828125 178.07421875 C-436.72817025 141.70988339 -444.34064706 102.9127537 -448.9375 64.5 C-449.09963486 63.17592636 -449.09963486 63.17592636 -449.26504517 61.82510376 C-449.57532731 59.24942154 -449.8670138 56.67230533 -450.15234375 54.09375 C-450.23944611 53.37076218 -450.32654846 52.64777435 -450.41629028 51.90287781 C-451.39284813 42.55846914 -451 33.51514819 -451 24 C-416.35 24 -381.7 24 -346 24 C-344.87760444 35.22395561 -344.87760444 35.22395561 -344.71875 40.84765625 C-344.66267578 42.61979492 -344.66267578 42.61979492 -344.60546875 44.42773438 C-344.53413699 46.88603834 -344.46385319 49.34437291 -344.39453125 51.80273438 C-344.33845703 53.5574707 -344.33845703 53.5574707 -344.28125 55.34765625 C-344.25095703 56.40992432 -344.22066406 57.47219238 -344.18945312 58.56665039 C-344.26934517 60.94735026 -344.26934517 60.94735026 -343 62 C-342.67940492 63.4900449 -342.41203482 64.99161818 -342.16796875 66.49609375 C-342.01134766 67.43831787 -341.85472656 68.38054199 -341.69335938 69.35131836 C-341.44295898 70.87897827 -341.44295898 70.87897827 -341.1875 72.4375 C-339.45056893 82.71354685 -337.40755871 92.86192073 -335 103 C-334.835 103.70769531 -334.67 104.41539062 -334.5 105.14453125 C-332.72351838 112.73621443 -330.72743667 120.09201809 -327.92578125 127.3828125 C-326.96146119 130.10894938 -326.27754904 132.80873571 -325.625 135.625 C-322.44449843 148.914339 -317.70159717 164.86595516 -310.44921875 176.484375 C-309 179 -309 179 -308.0546875 182.3515625 C-306.88134684 186.41045204 -305.18223064 189.71300601 -303.125 193.375 C-300.85636741 197.50564744 -298.6491896 201.59142378 -296.8125 205.9375 C-295.25187533 209.62057423 -293.27784357 212.86398327 -291.09765625 216.2109375 C-289.77031753 218.3743579 -288.90453031 220.63430534 -288 223 C-287.34 223.66 -286.68 224.32 -286 225 C-285.69964844 225.76441406 -285.39929688 226.52882813 -285.08984375 227.31640625 C-283.90908003 230.22387821 -282.41746583 232.41235297 -280.5625 234.9375 C-278.64813239 237.54649776 -277.00154718 239.9968677 -275.56640625 242.90234375 C-273.80378889 246.38801848 -271.67119788 249.48103664 -269.375 252.625 C-268.93478516 253.23400146 -268.49457031 253.84300293 -268.04101562 254.47045898 C-263.76489911 260.36699053 -259.40516879 266.19935823 -255 272 C-254.17701719 273.09500237 -253.35410218 274.19005571 -252.53125 275.28515625 C-247.33524742 282.161923 -241.84685877 288.66311878 -236 295 C-230 301.5443299 -230 301.5443299 -230 305 C-229.19042847 305.31952637 -229.19042847 305.31952637 -228.36450195 305.64550781 C-225.13667792 307.4945494 -222.74318445 310.03077727 -220.16796875 312.671875 C-219.61313309 313.23191223 -219.05829742 313.79194946 -218.48664856 314.36895752 C-216.71543361 316.15794042 -214.95103799 317.95345139 -213.1875 319.75 C-211.43386961 321.53143509 -209.67873753 323.31132071 -207.92048645 325.0881958 C-206.82897445 326.19176049 -205.74014143 327.29798432 -204.65458679 328.40740967 C-201.36923357 331.73507478 -197.95614495 334.77716119 -194.31221008 337.71026611 C-193.87918076 338.1358783 -193.44615143 338.56149048 -193 339 C-193 339.66 -193 340.32 -193 341 C-192.4225 341.0928125 -191.845 341.185625 -191.25 341.28125 C-188.45947278 342.17266842 -187.11559654 343.48056694 -185 345.5 C-180.47401633 349.66689737 -175.67646202 353.31430266 -170.7265625 356.9609375 C-168.63992676 358.52143013 -166.64904894 360.10270066 -164.6875 361.8125 C-162.21719657 363.82321209 -159.72936841 365.36645356 -156.94140625 366.89453125 C-154.61039821 368.22184569 -152.36935289 369.65603369 -150.125 371.125 C-149.36445313 371.62257813 -148.60390625 372.12015625 -147.8203125 372.6328125 C-146 374 -146 374 -145 376 C-144.01 376.33 -143.02 376.66 -142 377 C-142 377.66 -142 378.32 -142 379 C-141.2678125 379.09410156 -140.535625 379.18820312 -139.78125 379.28515625 C-136.5851637 380.10662225 -135.00378364 381.31721843 -132.5 383.4375 C-129.42712318 386.02888732 -126.78160013 387.63390471 -123 389 C-122.154375 389.433125 -121.30875 389.86625 -120.4375 390.3125 C-116.21742184 392.38417473 -111.88302792 394.09046499 -107.51171875 395.81640625 C-105 397 -105 397 -104 399 C-102.02477154 400.04808041 -100.02518491 401.0520411 -98 402 C-98 402.66 -98 403.32 -98 404 C-97.2575 404.12375 -96.515 404.2475 -95.75 404.375 C-93.14755361 404.96646509 -91.36607695 405.81696152 -89 407 C-87.2984375 407.4640625 -87.2984375 407.4640625 -85.5625 407.9375 C-82 409 -82 409 -79.625 410.4375 C-76.70853596 412.1734905 -73.92892924 413.05794405 -70.70703125 414.078125 C-67.67829796 415.1095551 -64.76433418 416.32765515 -61.8125 417.5625 C-43.70397223 424.95785733 -24.84360296 431.01388817 -5.734375 435.16015625 C-2 436 -2 436 0 437 C0 372.65 0 308.3 0 242 C-62.7 242 -125.4 242 -190 242 C-190 216.59 -190 191.18 -190 165 C-127.3 165 -64.6 165 0 165 C0 110.55 0 56.1 0 0 Z " fill="#06E0EE" transform="translate(647,746)"/>
<path d="M0 0 C2.26034026 6.78102079 -0.16364117 13.89314115 -2.30078125 20.4609375 C-3.43513986 24.58011682 -3.73763079 28.74780934 -4 33 C-4.33 33 -4.66 33 -5 33 C-5.63938444 25.41619011 -4.48947387 18.29513872 -3.0625 10.875 C-2.88041992 9.9260083 -2.69833984 8.9770166 -2.51074219 7.99926758 C-1.14125165 1.14125165 -1.14125165 1.14125165 0 0 Z " fill="#45E1F2" transform="translate(309,648)"/>
<path d="M0 0 C-3.74592133 2.53755961 -7.44922153 3.89759342 -11.72265625 5.234375 C-13.84119533 5.94661112 -15.79456759 6.79527929 -17.8125 7.75 C-21.13982105 9.05483179 -21.79584277 9.02866653 -25 8 C-24.11957031 7.67386719 -23.23914063 7.34773438 -22.33203125 7.01171875 C-21.17058594 6.57472656 -20.00914062 6.13773438 -18.8125 5.6875 C-17.66394531 5.25824219 -16.51539063 4.82898437 -15.33203125 4.38671875 C-12.33724424 3.1403537 -9.74300526 1.71377143 -7 0 C-3.91108646 -1.09020478 -3.236172 -1.078724 0 0 Z " fill="#5BE7F4" transform="translate(934,1156)"/>
<path d="M0 0 C0.33 0 0.66 0 1 0 C1.50870533 3.186173 2.00536581 6.37411475 2.5 9.5625 C2.64308594 10.45775391 2.78617187 11.35300781 2.93359375 12.27539062 C3.69892388 17.25003648 4.16568252 21.96739357 4 27 C3.67 27 3.34 27 3 27 C2.80083984 25.60974609 2.80083984 25.60974609 2.59765625 24.19140625 C2.42105469 22.99386719 2.24445313 21.79632812 2.0625 20.5625 C1.88847656 19.36753906 1.71445312 18.17257812 1.53515625 16.94140625 C1.31014787 14.12044324 1.31014787 14.12044324 0 13 C-0.07258946 10.81360547 -0.08373783 8.62499611 -0.0625 6.4375 C-0.05347656 5.23996094 -0.04445313 4.04242187 -0.03515625 2.80859375 C-0.02355469 1.88175781 -0.01195312 0.95492187 0 0 Z " fill="#89EFF7" transform="translate(302,794)"/>
<path d="M0 0 C0.66 0.33 1.32 0.66 2 1 C-1.01887244 4.48331435 -3.56909529 5.79157144 -8 7 C-5.42215154 4.35247996 -3.08351902 2.05567935 0 0 Z " fill="#46E1F2" transform="translate(985,1126)"/>
</svg>
